<svg width="514" height="362" viewBox="0 0 514 362" fill="none" xmlns="http://www.w3.org/2000/svg">
<path opacity="0.1" fill-rule="evenodd" clip-rule="evenodd" d="M445 362C461.569 362 475 358.642 475 354.5C475 350.358 461.569 347 445 347C428.431 347 415 350.358 415 354.5C415 358.642 428.431 362 445 362Z" fill="#4285F4"/>
<path opacity="0.1" fill-rule="evenodd" clip-rule="evenodd" d="M493.422 318.886C482.199 328.187 466.229 332.037 450.784 334.468L448.184 334.864C432.053 337.268 415.741 338.548 399.374 339.326C390.617 339.75 381.86 340.049 373.103 340.316L366.24 340.519C357.329 340.783 348.401 341.042 339.456 341.297C330.699 341.545 321.942 341.779 313.185 341.997C301.969 342.27 290.754 342.497 279.539 342.678C270.781 342.816 262.024 342.912 253.267 342.964C242.048 343.028 230.833 343.007 219.621 342.899C210.857 342.81 202.1 342.657 193.349 342.439C182.128 342.15 170.912 341.728 159.703 341.172C152.095 340.801 144.491 340.354 136.893 339.833L133.431 339.588C100.813 337.24 67.6091 333.027 39.0651 319.71L38.2954 319.346C37.9129 319.166 37.5303 318.987 37.1478 318.798C31.9069 316.295 26.8867 313.354 22.1407 310.008C13.7015 303.994 6.73254 296.654 3.0499 287.946C-2.72066 274.289 0.330546 258.936 6.92151 245.583C13.5125 232.229 23.4081 220.174 31.9672 207.598C34.4745 203.914 36.8528 200.093 39.0651 196.174C52.8923 171.598 59.7506 143.16 45.2551 119.477C43.3418 116.458 41.2758 113.538 39.0651 110.728C35.53 106.124 31.9349 101.519 29.5059 96.4215C23.8414 84.5597 25.0582 71.2197 27.1231 58.5475C29.8885 41.6988 34.9585 23.5515 50.8044 13.0251C67.245 2.09343 90.5807 2.646 110.985 6.57844C142.709 12.6521 171.991 25.3658 201.549 36.8316C231.107 48.2974 262.07 58.7824 294.569 59.9105C301.55 60.1492 308.539 59.8953 315.485 59.1507C324.744 58.2001 333.877 56.2786 342.734 53.4178C355.524 49.2091 367.162 42.8776 375.79 34.0779C394.295 15.2676 429.071 13.8447 454.144 25.2046C478.07 36.0442 493.542 58.985 492.399 81.8981C491.099 107.404 471.981 128.374 454.462 149.882C452.337 152.489 450.24 155.104 448.198 157.738C447.058 159.209 445.94 160.682 444.843 162.159C442.921 164.765 441.063 167.385 439.312 170.037C430.361 183.635 424.033 199.968 430.195 214.648C433.652 222.868 440.248 229.139 448.198 234.614C466.012 246.877 490.602 255.128 501.663 272.295C511.195 287.09 507.664 307.061 493.422 318.886Z" fill="#4285F4"/>
<g opacity="0.1">
<path fill-rule="evenodd" clip-rule="evenodd" d="M256.877 253.317C256.895 253.75 256.928 254.175 256.975 254.59C260.598 253.16 264.155 251.623 267.645 249.978C269.507 249.734 271.239 248.895 272.577 247.59C273.597 247.083 274.613 246.552 275.619 246.022C275.391 245.545 275.133 245.083 274.845 244.639C272.885 241.572 269.904 239.654 266.62 239.76C263.337 239.866 260.496 241.973 258.74 245.151C257.393 247.659 256.749 250.479 256.877 253.317Z" fill="#3F3D56"/>
<path fill-rule="evenodd" clip-rule="evenodd" d="M256.341 237.192C256.411 240.018 257.239 242.774 258.74 245.178C260.705 248.236 263.686 250.154 266.97 250.048C267.198 250.048 267.435 250.016 267.645 249.997C269.507 249.753 271.239 248.914 272.577 247.609C273.486 246.753 274.251 245.76 274.845 244.667C277.518 239.562 277.317 233.449 274.314 228.527C272.349 225.461 269.368 223.543 266.085 223.649C262.801 223.755 259.965 225.862 258.209 229.039C256.863 231.543 256.218 234.358 256.341 237.192Z" fill="#3F3D56"/>
<path fill-rule="evenodd" clip-rule="evenodd" d="M266.409 233.923C272.032 233.731 276.404 227.668 276.175 220.38C275.946 213.092 271.203 207.34 265.58 207.532C259.958 207.725 255.586 213.788 255.815 221.076C256.044 228.363 260.787 234.116 266.409 233.923Z" fill="#3F3D56"/>
<path fill-rule="evenodd" clip-rule="evenodd" d="M265.875 217.801C271.497 217.609 275.87 211.546 275.641 204.258C275.412 196.97 270.668 191.218 265.046 191.41C259.424 191.602 255.052 197.666 255.281 204.954C255.51 212.241 260.253 217.993 265.875 217.801Z" fill="#3F3D56"/>
<path fill-rule="evenodd" clip-rule="evenodd" d="M265.341 201.674C270.963 201.482 275.336 195.419 275.107 188.131C274.878 180.843 270.135 175.091 264.512 175.283C258.89 175.475 254.518 181.539 254.747 188.827C254.976 196.114 259.719 201.867 265.341 201.674Z" fill="#3F3D56"/>
<path fill-rule="evenodd" clip-rule="evenodd" d="M299.395 76.9016C300.728 75.1039 301.933 73.2164 303 71.2529L276.108 67.776L305.04 67.0474C310.249 54.7868 310.127 40.9437 304.705 28.7744L266.555 49.9629L301.487 22.7567C291.794 7.49074 274.321 -1.15941 256.17 0.323304C238.019 1.80601 222.213 13.1747 215.179 29.807C208.145 46.4394 211.054 65.5659 222.723 79.4101C220.647 82.209 218.881 85.2204 217.455 88.3927L252.764 105.122L215.336 94.0276C210.569 109.654 214.091 126.608 224.703 139.102C209.643 159.407 212.875 187.761 232.126 204.232C251.378 220.703 280.183 219.759 298.292 202.063C316.401 184.367 317.731 155.863 301.347 136.589C314.682 118.63 313.876 93.9694 299.395 76.9016Z" fill="#4285F4"/>
<path opacity="0.1" fill-rule="evenodd" clip-rule="evenodd" d="M213.278 109.577C213.618 120.408 217.644 130.807 224.703 139.088C209.639 159.39 212.865 187.745 232.114 204.22C251.363 220.694 280.168 219.755 298.28 202.062C316.392 184.369 317.727 155.866 301.347 136.589C307.611 128.169 213.101 104.159 213.278 109.577Z" fill="black"/>
</g>
<g opacity="0.1">
<path fill-rule="evenodd" clip-rule="evenodd" d="M151.328 336.879C151.328 337.182 151.295 337.485 151.258 337.798C148.668 336.787 146.124 335.704 143.625 334.55C142.294 334.379 141.055 333.787 140.097 332.864C139.367 332.499 138.642 332.129 137.921 331.752C138.084 331.416 138.268 331.091 138.473 330.778C139.877 328.601 142.002 327.241 144.351 327.314C146.7 327.388 148.731 328.876 149.966 331.127C150.933 332.891 151.403 334.877 151.328 336.879Z" fill="#3F3D56"/>
<path fill-rule="evenodd" clip-rule="evenodd" d="M151.693 325.445C151.647 327.448 151.059 329.403 149.99 331.109C148.586 333.278 146.457 334.642 144.112 334.569L143.644 334.532C142.313 334.361 141.074 333.769 140.116 332.846C139.465 332.24 138.917 331.536 138.492 330.76C136.584 327.145 136.722 322.817 138.857 319.326C140.261 317.149 142.39 315.789 144.735 315.862C147.079 315.936 149.115 317.424 150.373 319.675C151.329 321.449 151.785 323.441 151.693 325.445Z" fill="#3F3D56"/>
<path fill-rule="evenodd" clip-rule="evenodd" d="M152.071 314.026C152.242 308.861 149.121 304.575 145.102 304.453C141.082 304.332 137.686 308.421 137.515 313.587C137.345 318.752 140.465 323.038 144.485 323.159C148.504 323.281 151.901 319.192 152.071 314.026Z" fill="#3F3D56"/>
<path fill-rule="evenodd" clip-rule="evenodd" d="M152.435 302.593C152.605 297.428 149.485 293.142 145.465 293.021C141.446 292.899 138.049 296.989 137.879 302.154C137.709 307.319 140.829 311.605 144.848 311.727C148.868 311.848 152.264 307.759 152.435 302.593Z" fill="#3F3D56"/>
<path fill-rule="evenodd" clip-rule="evenodd" d="M152.803 291.157C152.973 285.991 149.853 281.706 145.834 281.584C141.814 281.463 138.418 285.552 138.247 290.717C138.077 295.883 141.197 300.169 145.217 300.29C149.236 300.411 152.633 296.322 152.803 291.157Z" fill="#3F3D56"/>
<path fill-rule="evenodd" clip-rule="evenodd" d="M120.785 211.842C119.831 210.567 118.966 209.231 118.197 207.841L137.42 205.332L116.732 204.873C112.996 196.183 113.07 186.366 116.938 177.732L144.234 192.722L119.236 173.451C126.131 162.577 138.632 156.39 151.637 157.414C164.643 158.438 175.979 166.502 181.02 178.316C186.061 190.13 183.965 203.719 175.586 213.537C177.075 215.52 178.341 217.655 179.363 219.904L154.131 231.793L180.883 223.892C184.304 234.969 181.802 246.993 174.229 255.865C185.019 270.245 182.739 290.351 168.992 302.05C155.245 313.748 134.648 313.109 121.68 300.582C108.713 288.056 107.73 267.848 119.423 254.166C109.875 241.441 110.437 223.954 120.785 211.847V211.842Z" fill="#4285F4"/>
<path opacity="0.1" fill-rule="evenodd" clip-rule="evenodd" d="M182.367 234.931C182.132 242.61 179.265 249.986 174.229 255.866C185.019 270.245 182.739 290.352 168.992 302.05C155.245 313.748 134.648 313.109 121.68 300.582C108.713 288.056 107.73 267.848 119.423 254.166C114.935 248.194 182.498 231.086 182.367 234.931Z" fill="black"/>
</g>
<g opacity="0.1">
<path fill-rule="evenodd" clip-rule="evenodd" d="M391.22 278.856C391.22 279.164 391.187 279.463 391.155 279.775C388.562 278.765 386.018 277.682 383.522 276.527C382.19 276.356 380.95 275.764 379.989 274.841C379.264 274.478 378.534 274.106 377.813 273.73C377.978 273.395 378.162 273.069 378.366 272.756C379.77 270.578 381.894 269.218 384.243 269.292C386.592 269.365 388.623 270.854 389.858 273.105C390.826 274.869 391.296 276.854 391.22 278.856Z" fill="#3F3D56"/>
<path fill-rule="evenodd" clip-rule="evenodd" d="M391.613 267.422C391.566 269.425 390.976 271.38 389.905 273.086C388.501 275.254 386.377 276.619 384.028 276.545L383.56 276.508C382.227 276.337 380.987 275.745 380.027 274.822C379.378 274.215 378.83 273.511 378.403 272.737C376.495 269.122 376.633 264.793 378.768 261.303C380.172 259.13 382.301 257.765 384.645 257.839C386.99 257.912 389.03 259.401 390.284 261.652C391.243 263.424 391.702 265.416 391.613 267.422Z" fill="#3F3D56"/>
<path fill-rule="evenodd" clip-rule="evenodd" d="M391.979 255.999C392.15 250.833 389.029 246.547 385.01 246.426C380.99 246.305 377.594 250.394 377.423 255.559C377.253 260.725 380.373 265.011 384.393 265.132C388.412 265.253 391.809 261.164 391.979 255.999Z" fill="#3F3D56"/>
<path fill-rule="evenodd" clip-rule="evenodd" d="M392.348 244.567C392.518 239.402 389.398 235.116 385.378 234.994C381.359 234.873 377.962 238.962 377.792 244.128C377.621 249.293 380.742 253.579 384.761 253.7C388.781 253.822 392.177 249.733 392.348 244.567Z" fill="#3F3D56"/>
<path fill-rule="evenodd" clip-rule="evenodd" d="M392.716 233.135C392.886 227.969 389.766 223.683 385.747 223.562C381.727 223.441 378.331 227.53 378.16 232.695C377.99 237.86 381.11 242.146 385.129 242.268C389.149 242.389 392.545 238.3 392.716 233.135Z" fill="#3F3D56"/>
<path fill-rule="evenodd" clip-rule="evenodd" d="M360.677 153.819C359.722 152.546 358.859 151.209 358.094 149.818L377.317 147.332L356.629 146.841C352.894 138.151 352.967 128.335 356.831 119.7L384.126 134.69L359.128 115.428C366.012 104.526 378.523 98.3144 391.547 99.3319C404.57 100.349 415.923 108.426 420.964 120.259C426.004 132.092 423.887 145.698 415.479 155.514C416.966 157.497 418.23 159.632 419.25 161.881L394.019 173.77L420.771 165.869C424.197 176.944 421.694 188.969 414.117 197.838C424.908 212.215 422.63 232.321 408.885 244.019C395.139 255.717 374.543 255.078 361.577 242.551C348.611 230.024 347.63 209.818 359.325 196.138C349.776 183.413 350.339 165.926 360.687 153.819H360.677Z" fill="#4285F4"/>
<path opacity="0.1" fill-rule="evenodd" clip-rule="evenodd" d="M422.264 176.908C422.029 184.586 419.16 191.961 414.122 197.838C424.911 212.215 422.632 232.32 408.886 244.017C395.141 255.714 374.546 255.075 361.58 242.549C348.614 230.024 347.632 209.818 359.325 196.138C354.832 190.17 422.386 173.058 422.264 176.908Z" fill="black"/>
</g>
<path fill-rule="evenodd" clip-rule="evenodd" d="M89 352C103.359 352 115 349.761 115 347C115 344.239 103.359 342 89 342C74.6406 342 63 344.239 63 347C63 349.761 74.6406 352 89 352Z" fill="#4285F4"/>
<path fill-rule="evenodd" clip-rule="evenodd" d="M88 348C89.6569 348 91 346.433 91 344.5C91 342.567 89.6569 341 88 341C86.3431 341 85 342.567 85 344.5C85 346.433 86.3431 348 88 348Z" fill="#3F3D56"/>
<path fill-rule="evenodd" clip-rule="evenodd" d="M88 342C89.6569 342 91 340.433 91 338.5C91 336.567 89.6569 335 88 335C86.3431 335 85 336.567 85 338.5C85 340.433 86.3431 342 88 342Z" fill="#3F3D56"/>
<path fill-rule="evenodd" clip-rule="evenodd" d="M88 338C89.6569 338 91 336.433 91 334.5C91 332.567 89.6569 331 88 331C86.3431 331 85 332.567 85 334.5C85 336.433 86.3431 338 88 338Z" fill="#3F3D56"/>
<path fill-rule="evenodd" clip-rule="evenodd" d="M88 333C89.6569 333 91 331.433 91 329.5C91 327.567 89.6569 326 88 326C86.3431 326 85 327.567 85 329.5C85 331.433 86.3431 333 88 333Z" fill="#3F3D56"/>
<path fill-rule="evenodd" clip-rule="evenodd" d="M88 328C89.6569 328 91 326.433 91 324.5C91 322.567 89.6569 321 88 321C86.3431 321 85 322.567 85 324.5C85 326.433 86.3431 328 88 328Z" fill="#3F3D56"/>
<path fill-rule="evenodd" clip-rule="evenodd" d="M88 324C89.6569 324 91 322.433 91 320.5C91 318.567 89.6569 317 88 317C86.3431 317 85 318.567 85 320.5C85 322.433 86.3431 324 88 324Z" fill="#3F3D56"/>
<path fill-rule="evenodd" clip-rule="evenodd" d="M88 318C89.6569 318 91 316.433 91 314.5C91 312.567 89.6569 311 88 311C86.3431 311 85 312.567 85 314.5C85 316.433 86.3431 318 88 318Z" fill="#3F3D56"/>
<path fill-rule="evenodd" clip-rule="evenodd" d="M99.7876 280.888C100.214 280.352 100.604 279.787 100.953 279.199L92.7263 277.867L101.622 277.937C103.347 274.243 103.451 270.014 101.91 266.242L89.9717 272.335L100.981 264.358C98.1674 259.582 92.8798 256.75 87.2755 257.017C81.6713 257.285 76.6875 260.608 74.3577 265.63C72.0279 270.652 72.7416 276.533 76.2077 280.874C75.5425 281.709 74.9701 282.611 74.5002 283.566L85.1793 289.023L73.7927 285.264C72.1676 289.988 73.076 295.2 76.2077 299.122C71.3733 305.172 72.0765 313.862 77.8232 319.084C83.5698 324.305 92.4302 324.305 98.1768 319.084C103.923 313.862 104.627 305.172 99.7923 299.122C104.069 293.767 104.069 286.229 99.7923 280.874L99.7876 280.888Z" fill="#4285F4"/>
<path opacity="0.1" fill-rule="evenodd" clip-rule="evenodd" d="M73.0002 289.223C72.9947 292.61 74.1249 295.901 76.2077 298.561C71.3733 304.753 72.0765 313.647 77.8232 318.992C83.5698 324.336 92.4302 324.336 98.1768 318.992C103.923 313.647 104.627 304.753 99.7923 298.561C101.797 295.991 73.0002 287.527 73.0002 289.223Z" fill="black"/>
<path fill-rule="evenodd" clip-rule="evenodd" d="M161 238.057V342C153.181 341.629 145.367 341.183 137.557 340.662L134 340.418V238.057C134 236.981 134.44 235.949 135.224 235.188C136.007 234.427 137.07 234 138.178 234H156.822C157.93 234 158.993 234.427 159.776 235.188C160.56 235.949 161 236.981 161 238.057Z" fill="#3F3D56"/>
<path fill-rule="evenodd" clip-rule="evenodd" d="M193 344.543V169.075C193 166.824 194.871 165 197.178 165H215.822C216.93 165 217.993 165.429 218.776 166.193C219.56 166.958 220 167.994 220 169.075V345L193 344.543Z" fill="#3F3D56"/>
<path fill-rule="evenodd" clip-rule="evenodd" d="M253 345V206.058C253 203.817 254.871 202 257.178 202H275.822C278.129 202 280 203.817 280 206.058V344.701L253 345Z" fill="#3F3D56"/>
<path fill-rule="evenodd" clip-rule="evenodd" d="M340 103.073V344.298C331 344.547 322 344.781 313 345V103.073C313 100.824 314.871 99 317.178 99H335.822C338.129 99 340 100.824 340 103.073Z" fill="#3F3D56"/>
<path fill-rule="evenodd" clip-rule="evenodd" d="M399 150.057V340.011C390 340.434 381 340.733 372 341V150.057C372 147.816 373.871 146 376.178 146H394.822C397.129 146 399 147.816 399 150.057Z" fill="#3F3D56"/>
<path d="M147 178L207 110.889L267 144.676L327 41L387 90.5236" stroke="#3F3D56" stroke-width="7" stroke-linecap="round"/>
<path fill-rule="evenodd" clip-rule="evenodd" d="M146 191C153.18 191 159 185.18 159 178C159 170.82 153.18 165 146 165C138.82 165 133 170.82 133 178C133 185.18 138.82 191 146 191Z" fill="#4285F4"/>
<path fill-rule="evenodd" clip-rule="evenodd" d="M207 125C214.18 125 220 119.18 220 112C220 104.82 214.18 99 207 99C199.82 99 194 104.82 194 112C194 119.18 199.82 125 207 125Z" fill="#4285F4"/>
<path fill-rule="evenodd" clip-rule="evenodd" d="M267 157C274.18 157 280 151.18 280 144C280 136.82 274.18 131 267 131C259.82 131 254 136.82 254 144C254 151.18 259.82 157 267 157Z" fill="#4285F4"/>
<path fill-rule="evenodd" clip-rule="evenodd" d="M326 54C333.18 54 339 48.1797 339 41C339 33.8203 333.18 28 326 28C318.82 28 313 33.8203 313 41C313 48.1797 318.82 54 326 54Z" fill="#4285F4"/>
<path fill-rule="evenodd" clip-rule="evenodd" d="M442 164C449.18 164 455 158.18 455 151C455 143.82 449.18 138 442 138C434.82 138 429 143.82 429 151C429 158.18 434.82 164 442 164Z" fill="#4285F4"/>
<path opacity="0.1" fill-rule="evenodd" clip-rule="evenodd" d="M108.5 334C113.194 334 117 333.328 117 332.5C117 331.672 113.194 331 108.5 331C103.806 331 100 331.672 100 332.5C100 333.328 103.806 334 108.5 334Z" fill="#4285F4"/>
<path fill-rule="evenodd" clip-rule="evenodd" d="M102 326.574C102 326.574 107.104 326.426 108.642 325.402C110.181 324.378 116.497 323.167 116.881 324.799C117.264 326.43 124.548 332.954 118.797 332.998C113.047 333.043 105.403 332.158 103.869 331.286C102.335 330.414 102 326.574 102 326.574Z" fill="#A8A8A8"/>
<path opacity="0.2" fill-rule="evenodd" clip-rule="evenodd" d="M118.894 332.38C113.141 332.428 105.5 331.469 103.961 330.519C102.791 329.794 102.326 327.198 102.168 326H102C102 326 102.321 330.183 103.86 331.133C105.399 332.083 113.026 333.047 118.793 332.998C120.457 332.998 121.032 332.385 120.999 331.493C120.769 332.034 120.136 332.37 118.894 332.38Z" fill="black"/>
<path opacity="0.1" fill-rule="evenodd" clip-rule="evenodd" d="M491 348C499.837 348 507 346.881 507 345.5C507 344.119 499.837 343 491 343C482.163 343 475 344.119 475 345.5C475 346.881 482.163 348 491 348Z" fill="#4285F4"/>
<path fill-rule="evenodd" clip-rule="evenodd" d="M480 331.86C480 331.86 489.137 331.584 491.892 329.653C494.647 327.722 505.946 325.419 506.627 328.513C507.309 331.607 520.364 343.914 510.045 343.997C499.727 344.08 486.074 342.416 483.324 340.779C480.574 339.142 480 331.86 480 331.86Z" fill="#A8A8A8"/>
<path opacity="0.2" fill-rule="evenodd" clip-rule="evenodd" d="M510.234 343.008C499.915 343.083 486.262 341.574 483.511 340.089C481.419 338.951 480.584 334.864 480.304 333H480C480 333 480.579 339.584 483.325 341.077C486.07 342.57 499.733 344.084 510.048 343.996C513.027 343.996 514.054 343.029 513.998 341.628C513.582 342.462 512.448 342.991 510.234 343.008Z" fill="black"/>
<path fill-rule="evenodd" clip-rule="evenodd" d="M393.007 161.325C392.485 160.696 392.161 159.928 392.074 159.117C391.786 157.333 392.345 155.517 393.589 154.198C394.857 152.953 396.964 152.527 398.488 153.453C399.672 154.166 400.325 155.48 400.917 156.725C401.186 157.291 401.494 157.848 401.802 158.406C402.495 159.662 403.191 160.922 403.462 162.306C404.059 165.366 405.685 168.044 407.316 170.732C408.626 172.891 409.94 175.056 410.729 177.43C410.933 178.043 411.102 178.669 411.271 179.295C411.628 180.614 411.984 181.932 412.664 183.109C413.137 183.868 413.667 184.59 414.248 185.27C416.543 188.143 418.571 191.217 420.308 194.452C421.137 194.612 421.891 195.215 422.612 195.792C422.767 195.916 422.92 196.038 423.072 196.155C424.171 197.004 425.444 197.603 426.801 197.909C427.348 197.974 427.871 198.164 428.33 198.465C428.691 198.765 428.878 199.2 429.066 199.638C429.211 199.976 429.357 200.316 429.584 200.598C429.964 201.019 430.445 201.338 430.983 201.524C431.015 201.362 431.015 201.195 431.015 201.033V201.033C431.048 200.172 431.048 199.312 431.048 198.451C427.957 194.817 427.969 189.497 431.076 185.876C431.041 184.536 430.863 183.204 430.545 181.901C430.377 181.267 430.405 180.485 430.917 180.078C431.198 179.909 431.488 179.754 431.784 179.615C432.174 179.291 432.491 178.891 432.717 178.439C434.141 176.422 436.83 175.732 439.061 176.81C440.079 177.341 440.852 178.186 441.628 179.034C442.145 179.6 442.663 180.167 443.256 180.642C443.642 180.955 444.06 181.227 444.477 181.5C444.881 181.763 445.285 182.026 445.661 182.327C447.194 183.652 448.283 185.41 448.78 187.367C449.275 189.314 449.564 191.307 449.642 193.314C449.722 193.915 449.698 194.525 449.572 195.119C449.418 195.614 449.186 196.082 448.887 196.507C447.466 198.801 445.47 200.689 443.093 201.987C443.079 202.105 443.079 202.225 443.093 202.343C443.115 202.522 443.149 202.693 443.185 202.867L443.191 202.898C443.219 202.89 443.247 202.88 443.275 202.87C443.338 202.847 443.4 202.824 443.461 202.824C443.789 202.75 444.125 202.703 444.461 202.657C445.148 202.562 445.832 202.467 446.431 202.135C447.222 201.694 447.727 200.924 448.234 200.153C448.707 199.433 449.181 198.712 449.889 198.252C450.014 198.17 450.145 198.099 450.281 198.039C450.382 195.408 450.888 192.808 451.782 190.329C451.842 190.16 451.904 189.991 451.966 189.822C452.345 188.797 452.728 187.757 452.672 186.673C452.616 185.586 452.13 184.58 451.655 183.594C451.618 183.517 451.581 183.44 451.544 183.364C449.828 179.744 448.604 175.903 447.386 172.078L447.349 171.96C446.566 169.532 445.789 167.102 445.018 164.671C444.259 164.113 443.572 163.465 442.972 162.741C441.73 161.302 440.909 159.553 440.599 157.683C440.299 155.796 440.77 153.868 441.909 152.328C442.41 151.592 443.207 151.108 444.095 151C444.878 151.016 445.62 151.35 446.146 151.926C446.916 152.804 447.511 153.82 447.899 154.92C448.659 156.706 449.432 158.571 449.363 160.515C449.346 160.926 449.295 161.348 449.245 161.772C449.097 163.011 448.948 164.259 449.642 165.231C452.187 168.762 454.224 172.725 456.231 176.628C456.665 177.472 457.098 178.314 457.534 179.147C458.159 180.266 458.692 181.433 459.128 182.637C459.726 184.586 460.009 186.616 459.967 188.653C459.986 192.471 459.464 196.271 458.942 200.052C458.704 201.764 458.401 203.579 457.581 205.055C458.119 206.882 458.401 208.774 458.42 210.678C458.439 211.118 458.369 211.557 458.214 211.969C457.938 212.45 457.589 212.885 457.18 213.26C456.072 214.504 455.562 216.164 455.781 217.81C455.913 219.345 455.773 220.891 455.366 222.377C454.434 226.482 453.502 230.592 452.751 234.734C452.573 235.505 452.515 236.297 452.579 237.085C452.64 237.507 452.764 237.921 452.887 238.332C453.09 239.015 453.292 239.691 453.208 240.39C453.077 240.912 452.978 241.442 452.914 241.977C452.945 242.382 453.039 242.781 453.194 243.157C453.394 243.737 453.657 244.457 453.953 245.267C455.228 248.752 457.104 253.885 457.082 256.513C456.839 256.449 456.588 256.393 456.336 256.338C456.745 258.651 457.458 260.907 458.171 263.168C458.758 265.027 459.346 266.888 459.767 268.787C460.407 271.848 460.698 274.972 460.634 278.098C460.57 279.501 460.595 280.906 460.708 282.305C460.787 283.008 460.924 283.702 461.061 284.397C461.167 284.932 461.272 285.468 461.352 286.008C461.548 287.672 461.621 289.349 461.571 291.024C461.624 293.654 461.476 296.284 461.128 298.892C460.639 301.915 461.064 304.926 461.491 307.953C461.691 309.374 461.892 310.799 462 312.23C462.173 315.367 462.533 318.492 463.076 321.588C463.157 321.998 463.243 322.407 463.33 322.816C463.52 323.712 463.71 324.606 463.831 325.512C464.065 327.264 464.041 329.039 464.017 330.813C463.988 333.004 463.958 335.192 464.414 337.327C464.467 337.578 464.526 337.833 464.585 338.09C464.955 339.691 465.345 341.383 464.47 342.714C464.294 342.985 464.071 343.224 463.849 343.462C463.672 343.652 463.495 343.842 463.342 344.047C462.948 344.495 462.824 345.117 463.016 345.681C463.103 345.867 463.242 346.023 463.379 346.178C463.557 346.378 463.733 346.577 463.799 346.838C463.962 347.546 463.235 348.134 462.564 348.434C462.524 348.454 462.485 348.468 462.446 348.483C462.42 348.492 462.394 348.502 462.368 348.513C462.461 349.006 462.33 349.514 462.009 349.902C461.611 350.277 461.115 350.533 460.578 350.642L451.777 353.294C449.796 353.882 447.661 354.451 445.717 353.988C445.671 354.265 445.55 354.524 445.368 354.738C444.969 355.111 444.473 355.368 443.937 355.478L435.136 358.125C432.889 358.801 430.419 359.472 428.265 358.547C427.645 358.296 427.101 357.891 426.685 357.371C425.995 356.355 425.79 355.089 426.126 353.909C426.241 353.32 426.537 352.78 426.974 352.364C427.575 351.954 428.282 351.725 429.011 351.706C429.632 351.687 430.241 351.529 430.792 351.244C430.957 351.135 431.095 350.991 431.197 350.823C430.694 350.327 430.2 349.809 429.733 349.286C430.111 349.133 430.246 348.606 430.284 348.208C430.656 344.28 429.784 340.411 428.91 336.531C428.473 334.591 428.035 332.649 427.752 330.695C427.328 327.754 427.253 324.773 427.529 321.814C427.56 321.49 427.595 321.165 427.631 320.84C427.716 320.054 427.802 319.266 427.832 318.473C427.945 315.515 427.282 312.617 426.616 309.712C425.97 306.89 425.322 304.061 425.384 301.164C425.416 299.333 424.77 297.519 424.132 295.726C423.818 294.845 423.506 293.968 423.277 293.098C422.667 290.751 422.634 288.298 422.634 285.878L422.518 266.783C422.504 264.205 422.499 261.553 423.352 259.114C423.765 257.766 423.88 256.345 423.688 254.949C423.139 254.713 422.596 254.448 422.056 254.184C420.26 253.307 418.482 252.44 416.532 252.635C415.852 250.853 416.654 244.911 417.292 243.115C419.782 236.032 420.266 228.405 418.691 221.068C418.411 219.779 418.455 218.454 418.5 217.129C418.547 215.741 418.593 214.353 418.267 213.01C418.15 212.392 417.912 211.803 417.567 211.275C417.215 210.744 416.613 210.429 415.973 210.442C415.964 208.813 416.006 207.202 416.113 205.573C415.083 204.739 414.205 203.736 413.517 202.607C412.426 200.845 411.716 198.891 411.007 196.937C410.792 196.344 410.577 195.752 410.352 195.165C409.265 192.333 407.93 189.615 406.593 186.892C405.83 185.339 405.066 183.784 404.348 182.207C403.221 179.732 402.672 177.123 402.12 174.503C401.704 172.527 401.286 170.544 400.619 168.609C399.752 166.131 397.955 164.08 395.603 162.885C395.409 162.788 395.21 162.696 395.011 162.604C394.277 162.264 393.538 161.922 393.007 161.325ZM445.638 346.87C446.259 346.851 446.868 346.693 447.419 346.407C447.735 346.146 447.964 345.796 448.076 345.403C447.885 345.195 447.698 344.982 447.526 344.76C448.113 344.667 448.845 344.242 448.845 343.649C448.801 343.056 448.672 342.471 448.463 341.914C448.188 340.907 448.141 339.853 448.328 338.827C448.401 338.43 448.506 338.05 448.61 337.672C448.698 337.352 448.786 337.033 448.854 336.707C448.994 335.916 449.088 335.117 449.134 334.314C449.386 331.43 449.954 328.581 450.826 325.818C451.418 323.947 451.034 322.052 450.645 320.133C450.476 319.303 450.307 318.469 450.216 317.631C450.177 317.263 450.154 316.892 450.131 316.52C450.071 315.558 450.011 314.595 449.675 313.697C449.535 313.322 449.352 312.972 449.169 312.624C448.987 312.276 448.805 311.929 448.668 311.559C448.029 309.846 448.412 307.935 448.799 306.144C446.274 301.588 445.291 296.232 444.345 291.068C444.259 290.598 444.173 290.13 444.086 289.664L442.338 280.25C442.091 278.857 441.806 277.404 440.939 276.28C440.033 280.435 439.678 284.69 439.881 288.937C439.987 290.161 439.971 291.391 439.835 292.612C439.706 293.421 439.453 294.2 439.199 294.98C439.029 295.503 438.858 296.026 438.725 296.559C438.229 298.517 438.255 300.54 438.282 302.566C438.295 303.563 438.308 304.561 438.259 305.552C438.229 306.112 438.18 306.672 438.131 307.233C438.074 307.884 438.016 308.535 437.989 309.189C437.76 314.553 439.569 319.769 441.354 324.832C442.184 327.159 442.529 329.73 442.865 332.234C442.978 333.076 443.09 333.911 443.219 334.726L443.242 334.871C443.723 337.937 444.206 341.009 444.449 344.103C444.463 344.274 444.476 344.447 444.489 344.62C444.549 345.414 444.61 346.221 444.706 347.018C445.014 346.952 445.325 346.903 445.638 346.87Z" fill="url(#paint0_linear)"/>
<path fill-rule="evenodd" clip-rule="evenodd" d="M427.23 351.261C426.457 351.279 425.705 351.491 425.068 351.872C424.602 352.254 424.287 352.753 424.167 353.3C423.812 354.388 424.029 355.556 424.761 356.491C425.203 356.974 425.781 357.348 426.438 357.58C428.724 358.44 431.347 357.812 433.732 357.188L443.074 354.745C443.644 354.644 444.17 354.407 444.593 354.061C445.121 353.444 445.137 352.603 444.633 351.971C444.131 351.364 443.446 350.889 442.654 350.598C439.749 349.368 436.473 349.089 433.282 349.037C432.094 349.037 430.921 348.788 430.115 349.583C429.689 350.013 429.768 350.474 429.125 350.839C428.537 351.1 427.89 351.244 427.23 351.261Z" fill="#3F3D56"/>
<path fill-rule="evenodd" clip-rule="evenodd" d="M444.23 346.26C443.457 346.279 442.706 346.491 442.067 346.87C441.603 347.253 441.288 347.752 441.167 348.298C440.812 349.388 441.029 350.558 441.761 351.494C442.204 351.974 442.782 352.347 443.438 352.578C445.729 353.439 448.347 352.815 450.732 352.191L460.075 349.744C460.644 349.642 461.17 349.406 461.594 349.06C462.12 348.444 462.136 347.604 461.634 346.974C461.131 346.367 460.446 345.892 459.654 345.601C456.744 344.371 453.469 344.087 450.277 344.036C449.089 344.036 447.921 343.79 447.11 344.586C446.684 345.016 446.763 345.472 446.12 345.838C445.535 346.102 444.889 346.247 444.23 346.26Z" fill="#3F3D56"/>
<path fill-rule="evenodd" clip-rule="evenodd" d="M438.327 251.652C443.451 251.138 448.605 250.993 453.75 251.22C454.09 251.216 454.428 251.269 454.75 251.376C455.883 251.836 456.058 253.318 456.164 254.528C456.624 259.443 458.77 264.022 459.848 268.836C460.481 271.862 460.768 274.949 460.705 278.04C460.642 279.42 460.667 280.804 460.778 282.181C460.916 283.41 461.239 284.616 461.414 285.84C461.608 287.485 461.68 289.141 461.63 290.796C461.683 293.392 461.537 295.987 461.193 298.56C460.484 302.946 461.722 307.304 462.054 311.74C462.219 314.843 462.568 317.933 463.099 320.994C463.353 322.288 463.67 323.567 463.845 324.869C464.361 328.74 463.606 332.725 464.421 336.544C464.799 338.33 465.48 340.336 464.476 341.864C464.163 342.324 463.703 342.716 463.362 343.18C462.973 343.622 462.85 344.238 463.04 344.796C463.238 345.215 463.698 345.491 463.813 345.937C463.993 346.641 463.256 347.216 462.593 347.515C457.596 349.77 451.153 348.183 447.782 343.862C448.362 343.77 449.071 343.351 449.085 342.762C449.041 342.176 448.914 341.6 448.707 341.05C448.436 340.057 448.391 339.016 448.574 338.003C448.707 337.295 448.947 336.623 449.094 335.909C449.233 335.127 449.325 334.337 449.371 333.544C449.62 330.693 450.18 327.879 451.042 325.15C451.881 322.504 450.738 319.826 450.439 317.064C450.301 315.757 450.361 314.409 449.905 313.176C449.629 312.449 449.182 311.795 448.91 311.068C448.279 309.37 448.657 307.483 449.039 305.716C446.317 300.806 445.41 294.952 444.383 289.434L442.656 280.138C442.398 278.758 442.117 277.326 441.274 276.213C440.379 280.317 440.028 284.521 440.229 288.716C440.333 289.925 440.318 291.141 440.183 292.347C439.971 293.682 439.414 294.938 439.087 296.245C438.373 299.131 438.792 302.159 438.626 305.127C438.562 306.328 438.41 307.52 438.359 308.721C438.133 314.022 439.92 319.177 441.684 324.179C442.766 327.248 443.006 330.737 443.526 333.949C443.987 337.028 444.498 340.106 444.742 343.213C444.968 346.066 445.069 349.154 446.847 351.395C445.221 352.449 443.545 353.521 441.643 353.885C439.426 354.231 437.158 353.792 435.232 352.642C433.317 351.498 431.605 350.044 430.166 348.339C430.539 348.21 430.673 347.667 430.709 347.276C431.262 341.45 429.047 335.771 428.209 329.973C427.79 327.068 427.716 324.124 427.988 321.201C428.094 320.102 428.246 319.002 428.287 317.897C428.508 312.14 425.731 306.595 425.832 300.833C425.878 298.132 424.451 295.472 423.751 292.863C423.147 290.562 423.129 288.123 423.115 285.73L423 266.862C423 264.312 423 261.698 423.824 259.291C424.838 256.392 423.677 253.065 423.502 250C428.288 251.516 433.325 252.077 438.327 251.652Z" fill="#696791"/>
<path fill-rule="evenodd" clip-rule="evenodd" d="M421.678 197.544C419.699 193.635 417.28 189.949 414.467 186.551C413.88 185.887 413.344 185.181 412.866 184.44C411.853 182.744 411.552 180.752 410.911 178.896C409.122 173.693 404.657 169.513 403.569 164.133C403.173 162.177 401.882 160.494 400.997 158.675C400.399 157.46 399.739 156.178 398.543 155.491C397.003 154.581 394.874 155 393.593 156.219C392.344 157.504 391.783 159.277 392.076 161.017C392.164 161.809 392.492 162.559 393.018 163.173C393.701 163.914 394.723 164.251 395.642 164.697C398.015 165.858 399.831 167.861 400.71 170.286C402.278 174.675 402.481 179.324 404.478 183.562C406.475 187.801 408.82 191.868 410.544 196.202C411.524 198.663 412.305 201.205 413.742 203.479C415.179 205.753 417.42 207.659 420.129 208C420.11 206.351 420.37 204.711 420.896 203.143C421.485 201.351 422.531 199.24 421.678 197.544Z" fill="#A0616A"/>
<path fill-rule="evenodd" clip-rule="evenodd" d="M450.026 201.374C449.903 198.055 450.432 194.745 451.583 191.622C452.024 190.425 452.542 189.21 452.498 187.938C452.436 186.755 451.861 185.671 451.339 184.601C449.538 180.917 448.273 177.013 447.028 173.118L444.632 165.774C443.851 165.213 443.145 164.558 442.529 163.826C441.252 162.38 440.409 160.616 440.091 158.73C439.782 156.83 440.267 154.888 441.437 153.342C441.954 152.599 442.772 152.109 443.684 152C444.488 152.017 445.25 152.357 445.792 152.939C446.582 153.822 447.193 154.844 447.593 155.951C448.374 157.753 449.169 159.631 449.097 161.583C449.03 163.207 448.412 165.018 449.385 166.337C452.565 170.664 454.975 175.633 457.495 180.359C458.138 181.485 458.686 182.661 459.133 183.874C459.749 185.84 460.04 187.89 459.996 189.947C459.996 193.79 459.478 197.619 458.942 201.43C458.602 203.819 458.156 206.419 456.312 208C454.395 205.597 452.47 203.251 450.026 201.374Z" fill="#A0616A"/>
<path fill-rule="evenodd" clip-rule="evenodd" d="M437 203C442.523 203 447 198.523 447 193C447 187.477 442.523 183 437 183C431.477 183 427 187.477 427 193C427 198.523 431.477 203 437 203Z" fill="#A0616A"/>
<path fill-rule="evenodd" clip-rule="evenodd" d="M442.628 203.151C442.859 204.891 443.787 206.449 444.691 207.952C445.236 208.879 445.933 209.867 447 209.969C444.224 211.433 441.308 212.611 438.297 213.485C437.273 213.831 436.2 214.004 435.12 214C434.205 213.931 433.31 213.701 432.475 213.318C428.775 211.7 426.02 208.465 425 204.543C426.193 204.575 427.386 204.483 428.56 204.269C429.23 204.218 429.855 203.909 430.305 203.407C430.572 202.936 430.698 202.398 430.665 201.857C430.711 200.253 430.716 198.643 430.665 197.039C433.019 196.888 435.38 197.18 437.627 197.901C438.551 198.203 439.474 198.564 440.398 198.801C440.979 198.949 442.582 198.801 443.011 199.14C443.717 199.617 442.466 201.969 442.628 203.151Z" fill="#A0616A"/>
<path fill-rule="evenodd" clip-rule="evenodd" d="M437.628 209.599C437.843 207.035 439.689 204.895 442.209 204.289C443.195 204.07 444.264 204.097 445.144 203.612C446.656 202.775 447.112 200.736 448.564 199.798C450.015 198.86 452.075 199.382 453.338 200.566C454.601 201.751 455.241 203.439 455.757 205.09C456.528 207.322 456.946 209.659 456.997 212.019C457.016 212.45 456.947 212.881 456.794 213.286C456.521 213.758 456.176 214.185 455.771 214.552C454.677 215.771 454.172 217.403 454.389 219.021C454.519 220.527 454.381 222.045 453.978 223.503C453.057 227.537 452.135 231.566 451.393 235.637C451.219 236.386 451.162 237.157 451.223 237.924C451.365 239.026 451.978 240.069 451.845 241.171C451.714 241.684 451.617 242.205 451.554 242.73C451.585 243.128 451.678 243.519 451.831 243.887C452.877 246.901 455.702 253.808 455.674 257C450.766 255.751 443.531 255.472 438.462 255.45C437.068 255.435 435.674 255.496 434.287 255.632C430.955 255.989 427.545 256.954 424.314 256.062C421.314 255.235 418.66 252.861 415.559 253.158C414.886 251.411 415.678 245.58 416.31 243.814C418.771 236.863 419.249 229.372 417.692 222.167C417.125 219.579 417.904 216.83 417.273 214.26C417.157 213.652 416.923 213.072 416.582 212.554C416.232 212.031 415.638 211.722 415.006 211.735C414.948 207.601 415.334 203.472 416.158 199.418C416.462 197.978 417.079 196.276 418.568 196.029C419.886 195.805 420.992 196.912 422.052 197.722C423.139 198.556 424.397 199.144 425.738 199.441C426.278 199.505 426.796 199.693 427.25 199.99C427.881 200.511 427.973 201.449 428.49 202.085C429.411 203.224 431.471 203.128 432.126 204.44C432.269 204.831 432.384 205.232 432.471 205.638C432.781 206.418 433.308 207.094 433.992 207.587C435.018 208.545 436.267 209.236 437.628 209.599Z" fill="#F86D70"/>
<path fill-rule="evenodd" clip-rule="evenodd" d="M429.096 182.618C428.921 181.977 428.95 181.213 429.484 180.782C429.75 180.581 430.099 180.506 430.385 180.314C430.789 179.987 431.119 179.584 431.355 179.129C432.849 177.11 435.634 176.427 437.945 177.514C439.695 178.399 440.753 180.169 442.309 181.363C443.099 181.981 444.016 182.44 444.811 183.058C446.404 184.387 447.536 186.155 448.055 188.125C448.57 190.081 448.871 192.084 448.952 194.101C449.035 194.706 449.01 195.32 448.879 195.918C448.718 196.419 448.478 196.893 448.167 197.323C446.566 199.664 444.457 201.79 441.814 202.998C439.172 204.206 435.957 204.403 433.348 203.139C433.086 203.036 432.86 202.862 432.698 202.638C432.55 202.296 432.515 201.918 432.597 201.556C432.738 200.125 432.445 198.685 431.753 197.411C431.268 196.475 430.541 195.669 430.153 194.7C429.792 193.615 429.638 192.476 429.697 191.338C429.653 188.392 429.862 185.456 429.096 182.618Z" fill="#2D293D"/>
<defs>
<linearGradient id="paint0_linear" x1="464.987" y1="151.037" x2="392.014" y2="151.037" gradientUnits="userSpaceOnUse">
<stop stop-color="#808080" stop-opacity="0.25"/>
<stop offset="0.54" stop-color="#808080" stop-opacity="0.12"/>
<stop offset="1" stop-color="#808080" stop-opacity="0.1"/>
</linearGradient>
</defs>
</svg>
