<svg width="330" height="330" viewBox="0 0 330 330" fill="none" xmlns="http://www.w3.org/2000/svg">
<path opacity="0.1" d="M164.999 330C255.879 330 330 255.879 330 165.001C330 74.1224 255.879 0 164.999 0C74.1211 0 0 74.1224 0 165.001C0 255.879 74.1211 330 164.999 330Z" fill="#4285F4"/>
<path d="M239.803 161.744L313.386 237.225C309.884 244.403 305.88 251.285 301.417 257.833L223.366 177.77C221.072 175.416 221.119 171.614 223.474 169.318L231.354 161.636C233.708 159.341 237.51 159.391 239.804 161.743V161.744H239.803Z" fill="#323145"/>
<path d="M255.133 140.673C254.756 141.306 254.323 141.924 253.84 142.515L249.27 148.095L249.746 148.582C251.646 150.531 251.605 153.677 249.657 155.577L217.121 187.296C215.172 189.196 212.026 189.154 210.126 187.206L209.609 186.676L203.954 191.144C203.47 191.529 202.968 191.876 202.455 192.189C203.127 193.95 202.744 196.026 201.312 197.42L201.311 197.422C199.394 199.293 196.299 199.253 194.429 197.333L164.65 166.785C162.78 164.868 162.82 161.773 164.738 159.903V159.902C166.218 158.459 168.396 158.152 170.174 158.968C170.487 158.483 170.834 158.01 171.212 157.554L175.798 151.989L175.175 151.349C173.277 149.4 173.315 146.255 175.265 144.355L207.801 112.636C209.749 110.737 212.895 110.777 214.794 112.727L215.372 113.319L221.096 108.921C221.685 108.469 222.293 108.066 222.916 107.715C222.081 105.896 222.426 103.663 223.937 102.191L223.938 102.19C225.857 100.321 228.95 100.359 230.82 102.276L260.6 132.824C262.471 134.74 262.431 137.835 260.514 139.706L260.511 139.707C259.049 141.132 256.903 141.448 255.137 140.668L255.133 140.673Z" fill="#3F3D56"/>
<path d="M246.557 158.6L244.705 160.404L202.851 117.461L204.697 115.662L246.557 158.6ZM222.058 182.48L180.204 139.54L178.358 141.339L220.216 184.277L222.058 182.482V182.48H222.058Z" fill="#FFD832"/>
<path d="M145.88 17.1414V50.7343V163.149H29.1084C20.5845 163.149 13.6113 170.708 13.6113 179.945V33.9385C13.6113 24.6998 20.5845 17.1414 29.1084 17.1414H145.88ZM13.6113 181.005H13.6429C13.6229 180.656 13.6113 180.302 13.6113 179.945V181.005Z" fill="#3B78DC"/>
<path opacity="0.1" d="M29.1084 163.148H145.88C140.043 174.103 139.909 185.295 145.88 196.741H29.1084C20.5845 196.741 13.6113 189.182 13.6113 179.944C13.6113 170.707 20.5845 163.148 29.1084 163.148Z" fill="#4285F4"/>
<path d="M143.939 193.043C140.78 185.032 140.957 176.259 143.939 166.844H31.7637C24.6171 166.844 18.7622 172.743 18.7622 179.943C18.7622 187.144 24.6171 193.043 31.7637 193.043H143.939Z" fill="white"/>
<path d="M35.2275 25.031H137.901V154.337H35.2275V25.031Z" fill="#4285F4"/>
<path d="M130.832 209.66L118.342 202.171L109.553 209.66V177.543H130.831V209.66H130.832Z" fill="#4FCDC4"/>
<path d="M64.5771 81.5686H117.031V86.1841H64.5771V81.5686Z" fill="#ECF0F1"/>
<path d="M64.5771 94.2124H117.031V98.8279H64.5771V94.2124Z" fill="#ECF0F1"/>
<path d="M64.5771 106.859H101.791V111.474H64.5771V106.859Z" fill="#ECF0F1"/>
<path d="M118.395 267.687H232.519V251.55H118.395V267.687Z" fill="#3F3D56"/>
<path d="M128.52 242.426H222.394C224.904 242.426 226.956 244.479 226.956 246.989V251.552H123.956V246.989C123.956 244.479 126.008 242.426 128.519 242.426H128.52Z" fill="#FFD832"/>
<path d="M244.706 160.403L202.852 117.461L180.204 139.538L222.058 182.479L226.336 178.311L240.439 164.563L244.706 160.403Z" fill="#525067"/>
<path d="M259.381 126.315C265.119 120.949 271.622 116.61 278.592 113.381C285.672 110.101 293.235 107.96 300.973 107.042L301.152 108.549C293.571 109.45 286.161 111.548 279.228 114.759C272.396 117.923 266.027 122.172 260.414 127.42L259.381 126.316V126.315ZM237.282 98.9472C243.02 93.5814 249.523 89.2424 256.493 86.014C263.572 82.734 271.136 80.5928 278.874 79.6731L279.052 81.1807C271.472 82.0817 264.062 84.1777 257.129 87.3907C250.297 90.5541 243.928 94.8028 238.315 100.051L237.282 98.9472ZM266.886 90.8299L266.411 89.3933C261.942 90.8757 257.702 92.8112 253.735 95.1399C249.693 97.5118 245.933 100.296 242.51 103.425L243.532 104.54C246.876 101.485 250.551 98.7654 254.502 96.4444C258.378 94.1692 262.523 92.2775 266.887 90.8299H266.886ZM288.985 118.196L288.51 116.761C284.041 118.243 279.801 120.179 275.834 122.506C271.791 124.879 268.032 127.662 264.608 130.792L265.63 131.907C268.973 128.851 272.647 126.132 276.6 123.811C280.476 121.535 284.621 119.642 288.985 118.196Z" fill="white"/>
</svg>
