<svg width="112" height="100" viewBox="0 0 112 100" fill="none" xmlns="http://www.w3.org/2000/svg">
<rect x="11.5044" y="38.0527" width="88.4956" height="53.9823" fill="#707487"/>
<path fill-rule="evenodd" clip-rule="evenodd" d="M107.633 96.3743H3.87179C2.81065 96.3743 1.9502 95.509 1.9502 94.4419V92.5095C1.9502 91.4424 2.81065 90.5771 3.87179 90.5771H107.633C108.694 90.5771 109.555 91.4424 109.555 92.5095V94.4419C109.555 95.5093 108.694 96.3743 107.633 96.3743Z" fill="#AFB9D2"/>
<path fill-rule="evenodd" clip-rule="evenodd" d="M107.633 40.3382H3.87179C2.81065 40.3382 1.9502 39.4729 1.9502 38.4058V36.4734C1.9502 35.4063 2.81065 34.541 3.87179 34.541H107.633C108.694 34.541 109.555 35.4063 109.555 36.4734V38.4058C109.555 39.4731 108.694 40.3382 107.633 40.3382Z" fill="#AFB9D2"/>
<path fill-rule="evenodd" clip-rule="evenodd" d="M109.368 99.8392H1.91883C0.859214 99.8392 0 98.9761 0 97.9117V95.9842C0 94.9197 0.859214 94.0566 1.91883 94.0566H109.368C110.428 94.0566 111.287 94.9197 111.287 95.9842V97.9117C111.287 98.9763 110.428 99.8392 109.368 99.8392Z" fill="#C7CFE2"/>
<path fill-rule="evenodd" clip-rule="evenodd" d="M109.368 36.2342H1.91883C0.859214 36.2342 0 35.3711 0 34.3067V31.5897C0 30.8877 0.379941 30.2412 0.991803 29.9019L53.7897 0.640773C54.9436 0.00125292 56.3432 0.00125292 57.4972 0.640773L110.295 29.9023C110.907 30.2416 111.287 30.8879 111.287 31.5901V34.3071C111.287 35.3711 110.428 36.2342 109.368 36.2342Z" fill="#C7CFE2"/>
<path fill-rule="evenodd" clip-rule="evenodd" d="M13.127 43.3631H5.45752C4.39865 43.3631 3.54004 42.5705 3.54004 41.5932V39.8232H15.0445V41.5932C15.0445 42.5707 14.1859 43.3631 13.127 43.3631Z" fill="#8F96AC"/>
<rect x="5.30957" y="44.248" width="7.9646" height="46.0177" fill="#AFB9D2"/>
<path fill-rule="evenodd" clip-rule="evenodd" d="M5.59068 86.2188H13.2264C14.2806 86.2188 15.1355 87.0819 15.1355 88.1465V90.0742H3.68164V88.1465C3.68164 87.0819 4.53647 86.2188 5.59068 86.2188Z" fill="#8F96AC"/>
<path fill-rule="evenodd" clip-rule="evenodd" d="M59.0414 43.8115H51.4056C50.3514 43.8115 49.4966 42.9483 49.4966 41.8838V39.9561H60.9504V41.8838C60.9504 42.9485 60.0956 43.8115 59.0414 43.8115Z" fill="#8F96AC"/>
<rect x="51.3276" y="44.248" width="7.9646" height="46.0177" fill="#AFB9D2"/>
<path fill-rule="evenodd" clip-rule="evenodd" d="M52.1465 86.2188H59.8959C60.9658 86.2188 61.8334 87.0819 61.8334 88.1465V90.0742H50.209V88.1465C50.209 87.0819 51.0765 86.2188 52.1465 86.2188Z" fill="#8F96AC"/>
<path fill-rule="evenodd" clip-rule="evenodd" d="M44.3969 43.8115H36.6474C35.5775 43.8115 34.71 42.9483 34.71 41.8838V39.9561H46.3344V41.8838C46.3344 42.9485 45.467 43.8115 44.3969 43.8115Z" fill="#8F96AC"/>
<rect x="36.2832" y="44.248" width="7.9646" height="46.0177" fill="#AFB9D2"/>
<path fill-rule="evenodd" clip-rule="evenodd" d="M36.5385 86.2188H44.0985C45.1422 86.2188 45.9886 87.0819 45.9886 88.1465V90.0742H34.6484V88.1465C34.6487 87.0819 35.4948 86.2188 36.5385 86.2188Z" fill="#8F96AC"/>
<path fill-rule="evenodd" clip-rule="evenodd" d="M28.9784 43.8115H21.4184C20.3747 43.8115 19.5283 42.9483 19.5283 41.8838V39.9561H30.8685V41.8838C30.8682 42.9485 30.0221 43.8115 28.9784 43.8115Z" fill="#8F96AC"/>
<rect x="21.2388" y="44.248" width="7.9646" height="46.0177" fill="#AFB9D2"/>
<path fill-rule="evenodd" clip-rule="evenodd" d="M21.4376 86.2188H29.0734C30.1276 86.2188 30.9824 87.0819 30.9824 88.1465V90.0742H19.5288V88.1465C19.5288 87.0819 20.3834 86.2188 21.4376 86.2188Z" fill="#8F96AC"/>
<path fill-rule="evenodd" clip-rule="evenodd" d="M74.8885 43.8115H67.2528C66.1986 43.8115 65.3438 42.9483 65.3438 41.8838V39.9561H76.7976V41.8838C76.7974 42.9485 75.9427 43.8115 74.8885 43.8115Z" fill="#8F96AC"/>
<rect x="67.2568" y="44.248" width="7.9646" height="46.0177" fill="#AFB9D2"/>
<path fill-rule="evenodd" clip-rule="evenodd" d="M67.4401 86.2188H75.1319C76.1938 86.2188 77.055 87.0819 77.055 88.1465V90.0742H65.5171V88.1465C65.5171 87.0819 66.378 86.2188 67.4401 86.2188Z" fill="#8F96AC"/>
<path fill-rule="evenodd" clip-rule="evenodd" d="M105.899 43.8115H98.2072C97.1453 43.8115 96.2842 42.9483 96.2842 41.8838V39.9561H107.822V41.8838C107.822 42.9485 106.961 43.8115 105.899 43.8115Z" fill="#8F96AC"/>
<rect x="97.3452" y="44.248" width="7.9646" height="46.0177" fill="#AFB9D2"/>
<path fill-rule="evenodd" clip-rule="evenodd" d="M98.1338 86.2188H105.883C106.953 86.2188 107.821 87.0819 107.821 88.1465V90.0742H96.1963V88.1465C96.1963 87.0819 97.0639 86.2188 98.1338 86.2188Z" fill="#8F96AC"/>
<path fill-rule="evenodd" clip-rule="evenodd" d="M90.3842 43.8115H82.6347C81.5648 43.8115 80.6973 42.9483 80.6973 41.8838V39.9561H92.3217V41.8838C92.3214 42.9485 91.4541 43.8115 90.3842 43.8115Z" fill="#8F96AC"/>
<rect x="82.3008" y="44.248" width="7.9646" height="46.0177" fill="#AFB9D2"/>
<path fill-rule="evenodd" clip-rule="evenodd" d="M82.4482 86.7256H90.1177C91.1766 86.7256 92.0352 87.5181 92.0352 88.4955V90.2654H80.5308V88.4955C80.531 87.5181 81.3894 86.7256 82.4482 86.7256Z" fill="#8F96AC"/>
<path fill-rule="evenodd" clip-rule="evenodd" d="M55.3097 6.19434L99.115 30.0881H11.5044L55.3097 6.19434Z" fill="#AFB9D2"/>
<path fill-rule="evenodd" clip-rule="evenodd" d="M70.5432 26.5088H40.0761C39.0246 26.5088 38.1719 25.6537 38.1719 24.5991C38.1719 23.5446 39.0246 22.6895 40.0761 22.6895H70.543C71.5945 22.6895 72.4472 23.5446 72.4472 24.5991C72.4472 25.6539 71.5947 26.5088 70.5432 26.5088Z" fill="#8F96AC"/>
<path fill-rule="evenodd" clip-rule="evenodd" d="M61.0223 20.7803H49.5971C48.5456 20.7803 47.6929 19.9252 47.6929 18.8706C47.6929 17.8161 48.5456 16.9609 49.5971 16.9609H61.0223C62.0739 16.9609 62.9266 17.8161 62.9266 18.8706C62.9264 19.9254 62.0739 20.7803 61.0223 20.7803Z" fill="#8F96AC"/>
</svg>
