<svg width="343" height="343" viewBox="0 0 343 343" fill="none" xmlns="http://www.w3.org/2000/svg">
<path opacity="0.1" fill-rule="evenodd" clip-rule="evenodd" d="M171.5 343C266.217 343 343 266.217 343 171.5C343 76.7832 266.217 0 171.5 0C76.7832 0 0 76.7832 0 171.5C0 266.217 76.7832 343 171.5 343Z" fill="#4285F4"/>
<path fill-rule="evenodd" clip-rule="evenodd" d="M198.763 70.5431V209.855C198.763 216.563 193.341 222 186.653 222H15.1049C8.42135 222 3 216.563 3 209.855V70.5431C3 63.8354 8.42135 58.3983 15.1049 58.3983H186.653C193.341 58.3983 198.763 63.8354 198.763 70.5431Z" fill="#E6E6E6"/>
<path fill-rule="evenodd" clip-rule="evenodd" d="M198.763 69.4048V90.5593H3V69.4048C3 62.5535 8.42135 57 15.1049 57H186.653C193.341 57 198.763 62.5535 198.763 69.4048Z" fill="#CCCCCC"/>
<path fill-rule="evenodd" clip-rule="evenodd" d="M30.9663 74.478C30.9663 78.7261 27.5229 82.1694 23.2749 82.1694C19.0283 82.1694 15.585 78.7261 15.585 74.478C15.585 70.2315 19.0283 66.7881 23.2749 66.7881C27.5229 66.7881 30.9663 70.2315 30.9663 74.478Z" fill="#4285F4"/>
<path fill-rule="evenodd" clip-rule="evenodd" d="M78.5083 74.478C78.5083 78.7261 75.0649 82.1694 70.8169 82.1694C66.5703 82.1694 63.127 78.7261 63.127 74.478C63.127 70.2315 66.5703 66.7881 70.8169 66.7881C75.0649 66.7881 78.5083 70.2315 78.5083 74.478Z" fill="#4FCDC4"/>
<path fill-rule="evenodd" clip-rule="evenodd" d="M54.7373 74.478C54.7373 78.7261 51.2939 82.1694 47.0474 82.1694C42.7993 82.1694 39.356 78.7261 39.356 74.478C39.356 70.2315 42.7993 66.7881 47.0474 66.7881C51.2939 66.7881 54.7373 70.2315 54.7373 74.478Z" fill="#FFD832"/>
<path fill-rule="evenodd" clip-rule="evenodd" d="M15.585 103.144H65.9239V209.415H15.585V103.144Z" fill="#4FCDC4"/>
<path fill-rule="evenodd" clip-rule="evenodd" d="M79.9067 101.746H186.178V146.491H79.9067V101.746Z" fill="#FFD832"/>
<path fill-rule="evenodd" clip-rule="evenodd" d="M79.9067 163.271H186.178V208.017H79.9067V163.271Z" fill="#4285F4"/>
<path fill-rule="evenodd" clip-rule="evenodd" d="M70.1187 103.307V207.855C70.1187 209.49 68.7781 210.814 67.1219 210.814H17.1834C15.5287 210.814 14.1865 209.49 14.1865 207.855V103.307C14.1865 101.673 15.5287 100.347 17.1834 100.347H67.1219C68.7781 100.347 70.1187 101.673 70.1187 103.307ZM20.1787 204.896H64.1266V106.265H20.1787V204.896Z" fill="#4FCDC4"/>
<path fill-rule="evenodd" clip-rule="evenodd" d="M184.617 150.686H80.0685C78.4344 150.686 77.1104 149.359 77.1104 147.723V103.31C77.1104 101.674 78.4344 100.347 80.0685 100.347H184.617C186.252 100.347 187.576 101.674 187.576 103.31V147.723C187.576 149.359 186.252 150.686 184.617 150.686ZM181.659 106.272H83.0283V144.761H181.659V106.272Z" fill="#FFD832"/>
<path fill-rule="evenodd" clip-rule="evenodd" d="M80.0685 210.814C78.4344 210.814 77.1104 209.488 77.1104 207.852V163.436C77.1104 161.8 78.4344 160.475 80.0685 160.475H184.617C186.252 160.475 187.576 161.8 187.576 163.436V207.852C187.576 209.488 186.252 210.814 184.617 210.814H80.0685ZM181.659 166.399H83.0283V204.889H181.659V166.399Z" fill="#4285F4"/>
<path fill-rule="evenodd" clip-rule="evenodd" d="M29.7297 121.322H54.5766C56.2101 121.322 57.5337 120.071 57.5337 118.526C57.5337 116.982 56.2101 115.729 54.5766 115.729H29.7297C28.0961 115.729 26.771 116.982 26.771 118.526C26.771 120.071 28.0961 121.322 29.7297 121.322Z" fill="black"/>
<path fill-rule="evenodd" clip-rule="evenodd" d="M29.7297 139.5H54.5766C56.2101 139.5 57.5337 138.247 57.5337 136.703C57.5337 135.159 56.2101 133.907 54.5766 133.907H29.7297C28.0961 133.907 26.771 135.159 26.771 136.703C26.771 138.247 28.0961 139.5 29.7297 139.5Z" fill="black"/>
<path fill-rule="evenodd" clip-rule="evenodd" d="M29.7297 157.678H54.5766C56.2101 157.678 57.5337 156.425 57.5337 154.881C57.5337 153.336 56.2101 152.085 54.5766 152.085H29.7297C28.0961 152.085 26.771 153.336 26.771 154.881C26.771 156.425 28.0961 157.678 29.7297 157.678Z" fill="black"/>
<path fill-rule="evenodd" clip-rule="evenodd" d="M29.7297 175.856H54.5766C56.2101 175.856 57.5337 174.605 57.5337 173.06C57.5337 171.516 56.2101 170.263 54.5766 170.263H29.7297C28.0961 170.263 26.771 171.516 26.771 173.06C26.771 174.605 28.0961 175.856 29.7297 175.856Z" fill="black"/>
<path fill-rule="evenodd" clip-rule="evenodd" d="M29.7297 194.034H54.5766C56.2101 194.034 57.5337 192.781 57.5337 191.237C57.5337 189.692 56.2101 188.441 54.5766 188.441H29.7297C28.0961 188.441 26.771 189.692 26.771 191.237C26.771 192.781 28.0961 194.034 29.7297 194.034Z" fill="black"/>
<path d="M327 169.034V153.124C327 151.467 325.657 150.124 324 150.124H306.681V172.034H324C325.657 172.034 327 170.69 327 169.034Z" fill="#A8A8A8"/>
<path d="M327 203.622V187.713C327 186.057 325.657 184.713 324 184.713H306.681V206.622H324C325.657 206.622 327 205.278 327 203.622Z" fill="#A8A8A8"/>
<path d="M327 238.211V222.303C327 220.646 325.657 219.303 324 219.303H306.681V241.211H324C325.657 241.211 327 239.868 327 238.211Z" fill="#A8A8A8"/>
<path d="M323.906 150.124H319.336V163.095C319.336 164.803 317.95 166.189 316.242 166.189H306.681V172.032H323.906C325.614 172.032 327 170.648 327 168.938V153.218C327 151.508 325.614 150.124 323.906 150.124Z" fill="#949294"/>
<path d="M323.906 184.713H319.336V197.685C319.336 199.393 317.95 200.778 316.242 200.778H306.681V206.622H323.906C325.614 206.622 327 205.237 327 203.528V187.807C327 186.098 325.614 184.713 323.906 184.713Z" fill="#949294"/>
<path d="M323.906 219.303H319.336V232.274C319.336 233.982 317.95 235.368 316.242 235.368H306.681V241.211H323.906C325.614 241.211 327 239.825 327 238.117V222.396C327 220.687 325.614 219.303 323.906 219.303Z" fill="#949294"/>
<path d="M269.873 250.839V139.375C269.873 137.718 271.216 136.375 272.873 136.375H308.131C309.788 136.375 311.131 137.718 311.131 139.375V250.839C311.131 252.496 309.788 253.839 308.131 253.839H272.873C271.216 253.839 269.873 252.496 269.873 250.839Z" fill="#A8A8A8"/>
<path d="M195.795 136.375H179.886C178.229 136.375 176.886 137.718 176.886 139.375V156.694H198.795V139.375C198.795 137.718 197.452 136.375 195.795 136.375Z" fill="#4FCDC4"/>
<path d="M230.385 136.375H214.475C212.818 136.375 211.475 137.718 211.475 139.375V156.694H233.385V139.375C233.385 137.718 232.042 136.375 230.385 136.375Z" fill="#4FCDC4"/>
<path d="M195.702 136.375H187.194C188.902 136.375 190.288 137.761 190.288 139.469V156.694H198.795V139.469C198.795 137.759 197.411 136.375 195.702 136.375Z" fill="#48B8B0"/>
<path d="M230.291 136.375H221.783C223.491 136.375 224.877 137.761 224.877 139.469V156.694H233.385V139.469C233.385 137.759 231.999 136.375 230.291 136.375Z" fill="#48B8B0"/>
<path d="M244.241 193.501H166.138C164.481 193.501 163.138 192.158 163.138 190.501V155.244C163.138 153.587 164.481 152.244 166.138 152.244H244.241C245.897 152.244 247.241 153.587 247.241 155.244V190.502C247.241 192.159 245.897 193.501 244.241 193.501Z" fill="#4FCDC4"/>
<path d="M308.038 136.375H300.488V244.302C300.488 246.01 299.102 247.396 297.394 247.396H269.874V250.746C269.874 252.455 271.258 253.839 272.968 253.839H308.038C309.746 253.839 311.131 252.455 311.131 250.746V139.469C311.131 137.759 309.746 136.375 308.038 136.375Z" fill="#949294"/>
<path d="M244.147 152.244H236.599V183.962C236.599 185.671 235.213 187.056 233.505 187.056H163.138V190.407C163.138 192.117 164.522 193.501 166.232 193.501H244.147C245.856 193.501 247.241 192.117 247.241 190.407V155.337C247.241 153.629 245.856 152.244 244.147 152.244Z" fill="#48B8B0"/>
<path d="M285.422 277.801H138C136.343 277.801 135 276.458 135 274.801V207.191C135 205.535 136.343 204.191 138 204.191H285.422C287.079 204.191 288.422 205.535 288.422 207.191V274.801C288.422 276.458 287.079 277.801 285.422 277.801Z" fill="#3F3D56"/>
<path d="M170.659 224.812C170.659 230.862 165.753 235.766 159.703 235.766C153.653 235.766 148.749 230.862 148.749 224.812C148.749 218.762 153.653 213.858 159.703 213.858C165.753 213.858 170.659 218.762 170.659 224.812Z" fill="#575A89"/>
<path d="M170.659 257.181C170.659 263.232 165.753 268.136 159.703 268.136C153.653 268.136 148.749 263.232 148.749 257.181C148.749 251.131 153.653 246.227 159.703 246.227C165.753 246.227 170.659 251.131 170.659 257.181Z" fill="#575A89"/>
<path d="M205.189 224.812C205.189 230.862 200.285 235.766 194.235 235.766C188.184 235.766 183.28 230.862 183.28 224.812C183.28 218.762 188.184 213.858 194.235 213.858C200.285 213.858 205.189 218.762 205.189 224.812Z" fill="#575A89"/>
<path d="M205.189 257.181C205.189 263.232 200.285 268.136 194.235 268.136C188.184 268.136 183.28 263.232 183.28 257.181C183.28 251.131 188.184 246.227 194.235 246.227C200.285 246.227 205.189 251.131 205.189 257.181Z" fill="#575A89"/>
<path d="M239.836 224.812C239.836 230.862 234.932 235.766 228.882 235.766C222.832 235.766 217.928 230.862 217.928 224.812C217.928 218.762 222.832 213.858 228.882 213.858C234.932 213.858 239.836 218.762 239.836 224.812Z" fill="#575A89"/>
<path d="M239.836 257.181C239.836 263.232 234.932 268.136 228.882 268.136C222.832 268.136 217.928 263.232 217.928 257.181C217.928 251.131 222.832 246.227 228.882 246.227C234.932 246.227 239.836 251.131 239.836 257.181Z" fill="#575A89"/>
<path d="M274.368 224.812C274.368 230.862 269.464 235.766 263.414 235.766C257.363 235.766 252.458 230.862 252.458 224.812C252.458 218.762 257.363 213.858 263.414 213.858C269.464 213.858 274.368 218.762 274.368 224.812Z" fill="#575A89"/>
<path d="M274.368 257.181C274.368 263.232 269.464 268.136 263.414 268.136C257.363 268.136 252.458 263.232 252.458 257.181C252.458 251.131 257.363 246.227 263.414 246.227C269.464 246.227 274.368 251.131 274.368 257.181Z" fill="#575A89"/>
<path d="M285.328 204.191H277.654V266.67C277.654 268.379 276.268 269.764 274.56 269.764H135V274.708C135 276.416 136.386 277.801 138.094 277.801H285.328C287.036 277.801 288.422 276.416 288.422 274.708V207.285C288.422 205.577 287.036 204.191 285.328 204.191Z" fill="#2D2B3C"/>
<path d="M314.354 327.256H236.193C234.536 327.256 233.193 325.913 233.193 324.256V256.645C233.193 254.988 234.536 253.645 236.193 253.645H314.354C316.011 253.645 317.354 254.988 317.354 256.645V324.256C317.354 325.913 316.011 327.256 314.354 327.256Z" fill="#4285F4"/>
<path d="M314.26 253.645H306.586V316.123C306.586 317.833 305.202 319.217 303.492 319.217H233.193V324.162C233.193 325.87 234.577 327.256 236.287 327.256H314.26C315.968 327.256 317.354 325.87 317.354 324.162V256.738C317.354 255.03 315.968 253.645 314.26 253.645Z" fill="#3973D5"/>
<path d="M268.961 274.265C268.961 280.315 264.057 285.221 258.007 285.221C251.958 285.221 247.053 280.315 247.053 274.265C247.053 268.215 251.958 263.311 258.007 263.311C264.057 263.311 268.961 268.215 268.961 274.265Z" fill="#689DF6"/>
<path d="M268.961 306.635C268.961 312.685 264.057 317.589 258.007 317.589C251.958 317.589 247.053 312.685 247.053 306.635C247.053 300.585 251.958 295.681 258.007 295.681C264.057 295.681 268.961 300.585 268.961 306.635Z" fill="#689DF6"/>
<path d="M303.494 274.265C303.494 280.315 298.589 285.221 292.538 285.221C286.488 285.221 281.584 280.315 281.584 274.265C281.584 268.215 286.488 263.311 292.538 263.311C298.589 263.311 303.494 268.215 303.494 274.265Z" fill="#689DF6"/>
<path d="M303.494 306.635C303.494 312.685 298.589 317.589 292.538 317.589C286.488 317.589 281.584 312.685 281.584 306.635C281.584 300.585 286.488 295.681 292.538 295.681C298.589 295.681 303.494 300.585 303.494 306.635Z" fill="#689DF6"/>
</svg>
