<svg width="95" height="101" viewBox="0 0 95 101" fill="none" xmlns="http://www.w3.org/2000/svg">
<path fill-rule="evenodd" clip-rule="evenodd" d="M19.4829 100.001H11.9322C11.2684 100.001 10.7305 99.4681 10.7305 98.811V91.7891H20.6848V98.811C20.6848 99.4681 20.1466 100.001 19.4829 100.001Z" fill="#C1C1C1"/>
<path fill-rule="evenodd" clip-rule="evenodd" d="M82.5275 100.001H74.9766C74.3129 100.001 73.7749 99.4681 73.7749 98.811V91.7891H83.7292V98.811C83.7292 99.4681 83.1911 100.001 82.5275 100.001Z" fill="#C1C1C1"/>
<path fill-rule="evenodd" clip-rule="evenodd" d="M19.4518 100.001H15.6748V91.7891H20.6543V98.811C20.6543 99.4681 20.1158 100.001 19.4518 100.001Z" fill="#A8A8A8"/>
<path fill-rule="evenodd" clip-rule="evenodd" d="M82.4744 100.001H78.6973V91.7891H83.6767V98.811C83.6769 99.4681 83.1385 100.001 82.4744 100.001Z" fill="#A8A8A8"/>
<path fill-rule="evenodd" clip-rule="evenodd" d="M0.347168 6.684C0.347168 2.99264 3.32336 0 6.9953 0H86.7758C90.4473 0 93.4239 2.99264 93.4239 6.684V88.4626C93.4239 92.1539 90.4473 95.1466 86.7758 95.1466H6.9953C3.32375 95.1466 0.347168 92.1539 0.347168 88.4626L0.347168 6.684Z" fill="#2E4F5A"/>
<path fill-rule="evenodd" clip-rule="evenodd" d="M83.4508 19.8438V13.3686C83.4508 11.5227 81.9625 10.0264 80.1266 10.0264H13.6431C11.8073 10.0264 10.3188 11.5227 10.3188 13.3686V80.2109C10.3188 82.0568 11.8071 83.5531 13.6431 83.5531H80.1266C81.9625 83.5531 83.4508 82.0568 83.4508 80.2109V73.7355V63.2918V30.2883V19.8438Z" fill="#2E4F5A"/>
<path fill-rule="evenodd" clip-rule="evenodd" d="M79.7818 10.3447H74.8164C76.6446 10.3447 78.1269 11.8324 78.1269 13.6677V20.1057V30.4902V63.3035V73.6871V80.1252C78.1269 81.9605 76.6448 83.4482 74.8164 83.4482H79.7818C81.6102 83.4482 83.0923 81.9605 83.0923 80.1252V73.6871V63.3035V30.4898V20.1053V13.6675C83.0921 11.8324 81.6102 10.3447 79.7818 10.3447Z" fill="#2A4752"/>
<path fill-rule="evenodd" clip-rule="evenodd" d="M17.5747 67.065V26.0376C17.5747 25.369 18.0858 24.8271 18.7163 24.8271H21.2607C21.8912 24.8271 22.4023 25.369 22.4023 26.0376V67.065C22.4023 67.7336 21.8912 68.2754 21.2607 68.2754H18.7163C18.0858 68.2754 17.5747 67.7336 17.5747 67.065Z" fill="#F4B641"/>
<path fill-rule="evenodd" clip-rule="evenodd" d="M17.5747 67.1342V63.4482H22.4023V67.1342C22.4023 67.7648 21.8912 68.2758 21.2607 68.2758H18.7163C18.0858 68.2758 17.5747 67.7648 17.5747 67.1342Z" fill="#FB8436"/>
<path fill-rule="evenodd" clip-rule="evenodd" d="M38.0925 56.5518H55.678C56.3448 56.5518 56.8853 57.0885 56.8853 57.7507V71.9046C56.8853 72.5668 56.3448 73.1035 55.678 73.1035H38.0925C37.4257 73.1035 36.8853 72.5668 36.8853 71.9046V57.7507C36.8853 57.0885 37.4257 56.5518 38.0925 56.5518Z" fill="#00A7CC"/>
<path fill-rule="evenodd" clip-rule="evenodd" d="M52.0576 56.5518H55.7196C56.3634 56.5518 56.8852 57.0885 56.8852 57.7507V71.9046C56.8852 72.5668 56.3634 73.1035 55.7196 73.1035H52.0576V56.5518Z" fill="#0095C2"/>
<rect x="43.6025" y="63.502" width="6.56346" height="5.09264" fill="#C1C1C1"/>
<path fill-rule="evenodd" clip-rule="evenodd" d="M43.6031 68.5938H37.0391V72.4569C37.0391 73.1361 37.5712 73.6866 38.2277 73.6866H43.6031V68.5938Z" fill="#C1C1C1"/>
<path fill-rule="evenodd" clip-rule="evenodd" d="M56.731 68.5938H50.167V73.6866H55.5424C56.1989 73.6866 56.731 73.1361 56.731 72.4569V68.5938Z" fill="#C1C1C1"/>
<rect x="43.6025" y="68.5947" width="6.56346" height="5.09284" fill="#A8A8A8"/>
<rect x="37.0391" y="63.502" width="6.56346" height="5.09264" fill="#A8A8A8"/>
<rect x="50.168" y="63.502" width="6.56346" height="5.09264" fill="#A8A8A8"/>
<path fill-rule="evenodd" clip-rule="evenodd" d="M86.7379 0H81.7129C85.4126 0 88.4121 2.99346 88.4121 6.68582V88.4866C88.4121 92.179 85.4126 95.1724 81.7129 95.1724H86.7379C90.4376 95.1724 93.437 92.179 93.437 88.4866V6.68582C93.437 2.99346 90.438 0 86.7379 0Z" fill="#2A4752"/>
<path fill-rule="evenodd" clip-rule="evenodd" d="M46.8853 46.8966C54.3126 46.8966 60.3336 40.8756 60.3336 33.4483C60.3336 26.021 54.3126 20 46.8853 20C39.458 20 33.437 26.021 33.437 33.4483C33.437 40.8756 39.458 46.8966 46.8853 46.8966Z" fill="#C1C1C1"/>
<path fill-rule="evenodd" clip-rule="evenodd" d="M46.8849 20.0791C46.3571 20.0791 45.8375 20.1135 45.3257 20.1737V26.7801C45.3257 27.6474 46.0238 28.3507 46.8849 28.3507C47.746 28.3507 48.4441 27.6474 48.4441 26.7801V20.1735C47.9325 20.1135 47.4129 20.0791 46.8849 20.0791Z" fill="#A8A8A8"/>
<path fill-rule="evenodd" clip-rule="evenodd" d="M55.124 22.9609L50.4871 27.6315C49.878 28.2448 49.878 29.2394 50.4871 29.8525C50.7915 30.1594 51.1907 30.3127 51.5896 30.3127C51.9886 30.3127 52.3878 30.1594 52.6922 29.8525L57.3291 25.182C56.6824 24.3578 55.9424 23.612 55.124 22.9609Z" fill="#A8A8A8"/>
<path fill-rule="evenodd" clip-rule="evenodd" d="M51.9785 33.4808C51.9785 34.3481 52.6767 35.0514 53.5377 35.0514H60.0962C60.156 34.5358 60.1902 34.0124 60.1902 33.4808C60.1902 32.9491 60.156 32.4257 60.0962 31.9102H53.5377C52.6767 31.9104 51.9785 32.6136 51.9785 33.4808Z" fill="#A8A8A8"/>
<path fill-rule="evenodd" clip-rule="evenodd" d="M36.4414 25.1829L41.0783 29.8535C41.3828 30.1602 41.7819 30.3137 42.1809 30.3137C42.5799 30.3137 42.979 30.1604 43.2835 29.8535C43.8925 29.2402 43.8925 28.2456 43.2835 27.6325L38.6465 22.9619C37.8279 23.6127 37.0879 24.3586 36.4414 25.1829Z" fill="#A8A8A8"/>
<path fill-rule="evenodd" clip-rule="evenodd" d="M40.2325 31.9111H33.674C33.6142 32.4267 33.5801 32.9501 33.5801 33.4817C33.5801 34.0134 33.6142 34.5368 33.674 35.0523H40.2325C41.0936 35.0523 41.7917 34.3491 41.7917 33.4817C41.7919 32.6144 41.0938 31.9111 40.2325 31.9111Z" fill="#A8A8A8"/>
<path fill-rule="evenodd" clip-rule="evenodd" d="M41.0783 37.1093L36.4414 41.78C37.0879 42.6044 37.8279 43.3498 38.6463 44.0011L43.2833 39.3303C43.8923 38.717 43.8923 37.7224 43.2833 37.1093C42.6746 36.4961 41.6872 36.4961 41.0783 37.1093Z" fill="#A8A8A8"/>
<path fill-rule="evenodd" clip-rule="evenodd" d="M46.8849 38.6123C46.0238 38.6123 45.3257 39.3155 45.3257 40.1829V46.7892C45.8375 46.8495 46.3571 46.8839 46.8849 46.8839C47.4127 46.8839 47.9323 46.8495 48.4441 46.7892V40.1829C48.4443 39.3155 47.7462 38.6123 46.8849 38.6123Z" fill="#A8A8A8"/>
<path fill-rule="evenodd" clip-rule="evenodd" d="M57.3289 41.7802L52.692 37.1094C52.0831 36.4961 51.0958 36.4961 50.4871 37.1094C49.878 37.7229 49.878 38.7173 50.4871 39.3304L55.124 44.0012C55.9424 43.3502 56.6824 42.6045 57.3289 41.7802Z" fill="#A8A8A8"/>
<path fill-rule="evenodd" clip-rule="evenodd" d="M46.8852 39.9999C50.5036 39.9999 53.4369 37.0666 53.4369 33.4482C53.4369 29.8298 50.5036 26.8965 46.8852 26.8965C43.2668 26.8965 40.3335 29.8298 40.3335 33.4482C40.3335 37.0666 43.2668 39.9999 46.8852 39.9999Z" fill="#EEEEEF"/>
<path fill-rule="evenodd" clip-rule="evenodd" d="M13.4208 84.8271H79.6599C82.3129 84.8271 84.4713 82.6491 84.4714 79.9722V13.1303C84.4714 10.4534 82.3133 8.27539 79.6601 8.27539H13.4208C10.7677 8.27539 8.60938 10.4532 8.60938 13.1303V79.9722C8.60938 82.6491 10.7677 84.8271 13.4208 84.8271ZM11.608 13.1303C11.608 12.1218 12.4213 11.3013 13.4208 11.3013H79.6601C80.6597 11.3013 81.4728 12.1218 81.4728 13.1303V79.9722C81.4728 80.9807 80.6597 81.8012 79.6601 81.8012H13.4208C12.4211 81.8012 11.608 80.9807 11.608 79.9722V13.1303Z" fill="#6F858D"/>
<path fill-rule="evenodd" clip-rule="evenodd" d="M81.0229 28.4896V21.1656C81.0229 20.5218 81.534 20 82.1646 20H84.7089C85.3395 20 85.8505 20.5218 85.8505 21.1656V28.4896C85.8505 29.1334 85.3395 29.6552 84.7089 29.6552H82.1646C81.534 29.6552 81.0229 29.1334 81.0229 28.4896Z" fill="#C1C1C1"/>
<path fill-rule="evenodd" clip-rule="evenodd" d="M81.0229 28.4891V24.8271H85.8505V28.4891C85.8505 29.1329 85.3395 29.6547 84.7089 29.6547H82.1644C81.534 29.6547 81.0229 29.1329 81.0229 28.4891Z" fill="#A8A8A8"/>
<path fill-rule="evenodd" clip-rule="evenodd" d="M81.0229 71.9378V64.6139C81.0229 63.97 81.534 63.4482 82.1646 63.4482H84.7089C85.3395 63.4482 85.8505 63.97 85.8505 64.6139V71.9378C85.8505 72.5816 85.3395 73.1034 84.7089 73.1034H82.1646C81.534 73.1034 81.0229 72.5816 81.0229 71.9378Z" fill="#C1C1C1"/>
<path fill-rule="evenodd" clip-rule="evenodd" d="M81.0229 71.9373V68.2754H85.8505V71.9373C85.8505 72.5812 85.3395 73.103 84.7089 73.103H82.1644C81.534 73.103 81.0229 72.581 81.0229 71.9373Z" fill="#A8A8A8"/>
</svg>
