<svg width="400" height="322" viewBox="0 0 400 322" fill="none" xmlns="http://www.w3.org/2000/svg">
<path opacity="0.1" fill-rule="evenodd" clip-rule="evenodd" d="M399.403 186.861C397.97 174.03 393.801 161.892 388.364 151.046C376.093 126.539 357.497 108.255 337.395 95.1579C337.201 95.029 336.991 94.9082 336.81 94.7834C339.03 92.1593 340.616 89.062 341.448 85.7298C347.632 60.4499 305.927 28.5853 248.326 14.5659C202.1 3.32952 159.677 6.98639 141.521 21.936C99.1702 19.278 54.9869 45.2788 25.6255 85.3271C15.1307 99.6605 6.25045 116.592 2.35525 135.734C-2.38357 158.915 0.450036 183.865 7.09811 206.237C12.2204 223.466 19.704 239.608 29.1131 253.434C29.7831 254.417 30.4626 255.389 31.1515 256.35C32.3382 258.007 33.5492 259.618 34.7843 261.183C42.5344 271.03 51.3581 279.391 61.0618 285.718C66.5749 289.324 72.494 292.271 78.6972 294.497C95.2467 300.41 113.007 300.655 129.363 294.497C132.104 293.467 134.779 292.269 137.371 290.909C138.808 290.16 140.229 289.354 141.634 288.493C144.342 286.833 147.002 284.981 149.642 283.056C153.303 280.381 156.908 277.562 160.585 274.928L160.9 274.699C165.219 271.606 169.591 268.774 174.148 266.737C177.184 265.342 180.397 264.37 183.698 263.849C188.584 263.156 193.562 263.542 198.282 264.981C199.178 265.238 200.074 265.532 200.962 265.855C203.849 266.919 206.646 268.213 209.326 269.725C220.967 276.169 232.108 286.443 243.539 294.497C245.153 295.649 246.812 296.757 248.459 297.8C263.043 307.035 279.084 311.537 294.955 315.903C312.95 320.857 331.994 325.665 349.404 317.953C359.495 313.486 368.234 305.017 375.237 294.497C378.305 289.861 380.997 284.987 383.286 279.922C384.424 277.417 385.488 274.867 386.479 272.27C392.235 257.168 395.581 240.575 397.89 223.942C399.601 211.698 400.764 199.161 399.403 186.861Z" fill="#4285F4"/>
<g opacity="0.1">
<path fill-rule="evenodd" clip-rule="evenodd" d="M125.906 213.869C126.03 214.226 126.158 214.571 126.306 214.908C128.948 212.835 131.507 210.696 133.983 208.49C135.464 207.829 136.688 206.702 137.469 205.281C138.183 204.607 138.892 203.917 139.593 203.231C139.29 202.891 138.964 202.57 138.619 202.273C136.247 200.191 133.314 199.316 130.634 200.203C127.953 201.089 126.122 203.54 125.453 206.621C124.955 209.034 125.112 211.536 125.906 213.869Z" fill="#3F3D56"/>
<path fill-rule="evenodd" clip-rule="evenodd" d="M121.506 200.544C122.256 202.884 123.616 204.981 125.445 206.621C127.817 208.694 130.746 209.573 133.431 208.682C133.615 208.618 133.791 208.55 133.976 208.478C135.456 207.817 136.68 206.69 137.462 205.269C137.999 204.332 138.387 203.317 138.611 202.26C139.554 197.354 137.885 192.309 134.204 188.935C131.828 186.853 128.899 185.979 126.218 186.865C123.538 187.752 121.707 190.203 121.037 193.283C120.543 195.702 120.705 198.209 121.506 200.544Z" fill="#3F3D56"/>
<path fill-rule="evenodd" clip-rule="evenodd" d="M128.936 195.407C133.52 193.855 135.66 187.703 133.715 181.666C131.769 175.63 126.476 171.996 121.892 173.548C117.308 175.101 115.168 181.253 117.114 187.29C119.059 193.326 124.352 196.96 128.936 195.407Z" fill="#3F3D56"/>
<path fill-rule="evenodd" clip-rule="evenodd" d="M124.538 182.084C129.122 180.531 131.261 174.379 129.316 168.343C127.371 162.306 122.078 158.672 117.494 160.225C112.909 161.777 110.77 167.93 112.715 173.966C114.66 180.002 119.953 183.636 124.538 182.084Z" fill="#3F3D56"/>
<path fill-rule="evenodd" clip-rule="evenodd" d="M120.138 168.76C124.722 167.207 126.862 161.055 124.917 155.019C122.971 148.983 117.678 145.348 113.094 146.901C108.51 148.454 106.37 154.606 108.315 160.642C110.261 166.678 115.554 170.313 120.138 168.76Z" fill="#3F3D56"/>
<path fill-rule="evenodd" clip-rule="evenodd" d="M117.656 56.3212C118.317 54.4961 118.852 52.6279 119.258 50.7296L96.2109 54.3717L119.911 46.7224C121.194 35.2217 117.693 23.6995 110.231 14.8615L83.9539 41.8328L106.096 10.6257C94.3589 0.182392 77.7805 -2.82865 63.1269 2.82148C48.4734 8.47161 38.196 21.8377 36.4894 37.4645C34.7829 53.0914 41.9326 68.3648 55.0205 77.051C53.9923 79.8921 53.2736 82.836 52.8768 85.8315L86.1337 91.1985L52.5202 91.0461C52.4216 105.246 59.4914 118.537 71.3163 126.381C63.8696 146.986 73.4933 169.861 93.4222 178.925C113.351 187.988 136.892 180.196 147.495 161.026C158.099 141.856 152.205 117.747 133.955 105.647C140.554 87.4088 133.823 67.0189 117.668 56.3092L117.656 56.3212Z" fill="#4285F4"/>
<path opacity="0.1" fill-rule="evenodd" clip-rule="evenodd" d="M54.6198 104.556C57.562 113.508 63.4366 121.204 71.2923 126.397C63.861 147.002 73.4925 169.865 93.4188 178.92C113.345 187.975 136.877 180.183 147.479 161.019C158.082 141.855 152.195 117.752 133.955 105.647C137.045 97.0909 53.1533 100.059 54.6198 104.556Z" fill="black"/>
</g>
<path fill-rule="evenodd" clip-rule="evenodd" d="M156.874 100.253C155.871 98.2289 155.497 95.9459 155.134 93.7068C153.008 80.4871 151.019 66.2156 156.793 54.235C157.703 52.3505 158.807 50.5177 160.417 49.2308C162.141 47.8563 164.279 47.2029 166.276 46.3104C172.074 43.7286 176.745 39.095 181.843 35.2502C186.941 31.4054 193.093 28.1981 199.338 29.1782C202.56 29.6842 205.539 31.2779 208.664 32.2779C217.49 35.1067 227.678 33.2621 235.606 38.1666C238.469 39.9396 240.804 42.4696 243.1 44.9717L253.339 56.1275C256.114 59.1476 258.94 62.2433 260.619 66.0283C262.298 69.8134 262.653 74.4789 260.515 78.0089C259.44 79.7899 257.74 81.3318 257.555 83.4235C257.354 85.6945 259.021 87.6468 259.629 89.8381C261.239 95.6272 255.332 100.596 249.945 102.882C233.665 109.775 215.755 108.982 198.521 108.699C185.688 108.48 164.275 115.146 156.874 100.253Z" fill="#3F3D56"/>
<path fill-rule="evenodd" clip-rule="evenodd" d="M185.931 129.111C184.791 131.827 182.342 133.745 179.92 135.433C177.499 137.12 174.916 138.727 172 138.865C177.138 145.457 184.167 150.305 191.037 155.052C194.236 157.258 197.481 159.46 201.131 160.706C204.481 161.847 208.045 162.131 211.549 162.608C216.01 163.219 220.451 164.162 224.932 163.976C232.918 163.644 240.554 159.626 245.851 153.652C251.147 147.679 254.181 139.892 255 131.948C252.161 131.904 249.541 130.329 247.25 128.614C244.448 126.521 241.82 124.101 240.011 121.11C238.052 117.873 237.172 114.117 236.28 110.438C226.826 110.155 217.373 109.876 207.916 110.058C204.472 110.123 201.021 110.256 197.663 111.11C194.463 111.92 187.78 114.008 185.829 116.885C184.706 118.545 185.829 120.252 186.235 122.041C186.754 124.393 186.884 126.849 185.931 129.111Z" fill="#BE6F72"/>
<path opacity="0.1" fill-rule="evenodd" clip-rule="evenodd" d="M185.931 129.111C184.791 131.827 182.342 133.745 179.92 135.433C177.499 137.12 174.916 138.727 172 138.865C177.138 145.457 184.167 150.305 191.037 155.052C194.236 157.258 197.481 159.46 201.131 160.706C204.481 161.847 208.045 162.131 211.549 162.608C216.01 163.219 220.451 164.162 224.932 163.976C232.918 163.644 240.554 159.626 245.851 153.652C251.147 147.679 254.181 139.892 255 131.948C252.161 131.904 249.541 130.329 247.25 128.614C244.448 126.521 241.82 124.101 240.011 121.11C238.052 117.873 237.172 114.117 236.28 110.438C226.826 110.155 217.373 109.876 207.916 110.058C204.472 110.123 201.021 110.256 197.663 111.11C194.463 111.92 187.78 114.008 185.829 116.885C184.706 118.545 185.829 120.252 186.235 122.041C186.754 124.393 186.884 126.849 185.931 129.111Z" fill="black"/>
<path fill-rule="evenodd" clip-rule="evenodd" d="M196.276 140.488C198.995 143.818 201.796 147.215 205.523 149.399C206.66 150.062 207.932 150.604 209.253 150.56C211.21 150.48 212.829 149.106 214.264 147.789C221.43 141.22 228.234 134.279 234.649 126.996C236.659 124.711 238.726 122.329 241.478 121C243.965 143.102 244.614 165.367 243.419 187.573C243.432 187.992 243.334 188.408 243.134 188.778C242.706 189.417 241.809 189.509 241.03 189.537C218.015 190.388 194.078 191.071 173 181.907C174.464 177.63 174.223 173.004 174.366 168.49C174.598 161.089 175.903 153.761 177.705 146.584C178.59 143.063 179.597 139.573 180.665 136.103C181.554 133.196 182.23 128.072 184.216 125.875C188.782 129.891 192.439 135.79 196.276 140.488Z" fill="#E3E8F4"/>
<path fill-rule="evenodd" clip-rule="evenodd" d="M206.881 152H209.714L217 164.078L209.31 183L200 164.481L206.881 152Z" fill="#3F3D56"/>
<path fill-rule="evenodd" clip-rule="evenodd" d="M207.048 171.051C204.426 167.214 202.618 162.878 201.738 158.312C201.456 156.85 201.266 155.359 200.75 153.962C199.985 151.89 198.542 150.153 197.241 148.364C192.415 141.727 189.307 133.995 188.195 125.858C187.696 122.167 187.361 117.938 184.388 115.704C182.518 114.303 180.028 114.089 177.691 114.129C168.653 114.355 159.997 117.828 153.299 123.916C152.185 125.023 151.008 126.064 149.773 127.034C148.508 127.901 147.158 128.637 145.744 129.231C142.174 130.846 138.443 132.187 134.555 132.595C133.555 132.637 132.565 132.801 131.605 133.084C130.445 133.488 129.49 134.34 128.511 135.104C125.383 137.518 121.79 139.257 117.958 140.209C112.551 152.796 108.368 165.877 105.468 179.27C104.739 182.602 104.086 185.959 103.091 189.222C101.717 193.746 99.694 198.06 98.3442 202.591C92.9773 220.625 98.6142 240.271 95 258.733L288.829 259C285.783 254.262 286.879 248.244 286.617 242.614C286.371 237.428 285.057 232.359 284.147 227.245C282.624 218.695 282.233 209.979 282.076 201.295C282.011 197.627 282.007 193.839 283.422 190.458C286.077 184.113 292.967 180.765 299.49 178.612C302.609 177.586 305.888 176.649 308.354 174.456C310.881 172.19 312.194 168.862 313 165.57C308.604 156.886 302.891 148.606 295.674 142.091C292.963 139.668 290.066 137.394 287.777 134.558C286.383 132.826 285.227 130.895 283.688 129.308C279.836 125.297 274.017 123.786 268.473 123.564C266.761 123.496 265.024 123.528 263.364 123.1C258.602 121.888 255.568 117.223 251.277 114.808C248.291 113.137 244.805 112.601 241.457 113.297C239.04 113.802 236.566 115.24 236.022 117.631C235.72 118.976 236.091 120.365 236.232 121.734C236.667 125.947 234.922 130.075 232.811 133.742C225.224 146.833 212.818 157.047 207.048 171.051Z" fill="#4285F4"/>
<path fill-rule="evenodd" clip-rule="evenodd" d="M249 89.5065C248.996 107.994 236.473 124.131 218.565 128.726C200.657 133.32 181.911 125.204 173.008 109.002C164.104 92.8006 167.303 72.6258 180.781 59.9725C194.26 47.3193 214.597 45.3998 230.206 55.3078C241.912 62.7387 249.003 75.6414 249 89.5065Z" fill="#BE6F72"/>
<path fill-rule="evenodd" clip-rule="evenodd" d="M387 272.804V254H30C30.6694 254.981 31.3481 255.951 32.0363 256.91C32.5564 258.138 33.2682 259.276 34.1453 260.283C34.6124 260.815 35.1251 261.306 35.6775 261.75C43.4197 271.578 52.2344 279.922 61.9281 286.237C67.4356 289.837 73.3487 292.778 79.5455 295H375.778L387 272.804Z" fill="#3F3D56"/>
<path fill-rule="evenodd" clip-rule="evenodd" d="M215.744 232.67C210.295 232.238 204.628 230.887 199.496 232.758C197.746 233.454 196.087 234.356 194.553 235.445C189.01 239.15 183.904 243.466 179.333 248.311C178.012 249.706 176.719 251.177 175.908 252.921C174.763 255.379 174.663 258.182 173.9 260.785C173.462 262.276 172.795 263.787 173.06 265.319C173.325 266.85 175.1 268.221 176.43 267.406C176.295 268.27 176.555 269.149 177.138 269.803C177.721 270.457 178.567 270.818 179.446 270.788C181.478 270.718 183.44 270.03 185.068 268.817C185.175 269.824 186.06 270.569 187.075 270.508C190.557 270.28 193.874 268.509 196.854 266.574C200.352 264.319 203.825 261.752 207.921 260.977C205.402 262.121 203.182 263.83 201.436 265.97C200.765 266.79 200.139 267.749 200.878 269.017C201.319 269.728 201.999 270.262 202.797 270.524C207.383 272.123 212.367 269.477 215.427 265.806C216.66 264.323 217.748 262.608 219.443 261.708C222.169 260.249 225.531 261.272 228.599 260.849C232.004 260.385 234.867 258.174 237.996 256.747C242.16 254.852 246.802 254.348 251.248 253.22C251.781 253.143 252.273 252.89 252.645 252.501C252.923 252.039 253.043 251.501 252.986 250.965C252.967 245.49 252.552 240.022 251.746 234.605C251.679 233.733 251.411 232.887 250.962 232.135C250.087 230.895 248.425 230.535 246.927 230.287C244.517 229.888 241.815 228.992 239.389 229C237.06 229 234.815 230.311 232.594 230.955C227.128 232.535 221.419 233.116 215.744 232.67Z" fill="#BE6F72"/>
<path fill-rule="evenodd" clip-rule="evenodd" d="M240.959 224.161C235.017 224.797 229.427 227.342 225 231.429C229.943 230.157 235.263 228.901 240.027 230.742C244.774 232.577 247.965 237.147 248.109 242.316C248.253 247.485 245.322 252.232 240.685 254.338C241.649 255.441 243.064 255.982 244.471 256.398C254.639 259.418 265.524 257.609 275.921 255.55C277.824 255.174 279.885 254.678 281.047 253.083C282.081 251.641 282.05 249.699 281.958 247.91C281.693 242.746 281.253 237.412 278.954 232.814C275.838 226.571 270.427 224.246 263.91 224.968C256.244 225.8 248.633 223.369 240.959 224.161Z" fill="#E3E8F4"/>
<path fill-rule="evenodd" clip-rule="evenodd" d="M306.706 158.38C310.047 161.55 312.458 165.552 314.67 169.586C322.166 183.245 327.91 197.789 331.767 212.876C332.145 214.359 332.52 215.881 333.407 217.131C334.697 218.943 336.885 219.944 338.292 221.655C339.98 223.737 340.307 226.67 339.75 229.289C339.194 231.909 337.868 234.3 336.526 236.618C332.855 242.959 328.522 249.504 321.78 252.401C318.958 253.606 315.875 254.105 312.824 254.502C301.365 256.006 289.785 256.378 278.253 255.615C280.268 253.285 280.461 249.845 279.748 246.852C279.034 243.859 277.547 241.114 276.524 238.217C275.718 235.955 275.149 233.544 273.735 231.6C272.692 230.265 271.407 229.138 269.946 228.277C266.627 226.176 262.894 224.812 259 224.275C261.89 222.025 265.634 221.278 269.156 220.257C272.679 219.236 276.362 217.669 278.208 214.511C279.317 212.619 279.623 210.373 279.772 208.187C280.222 201.61 279.451 195.006 277.499 188.708C276.201 184.517 274.363 180.137 275.484 175.902C276.056 173.765 277.342 171.884 278.603 170.084C281.062 166.548 283.609 162.928 287.196 160.541C290.291 158.48 293.971 157.512 297.654 157.255C300.415 157.074 304.611 156.407 306.706 158.38Z" fill="#4285F4"/>
<path fill-rule="evenodd" clip-rule="evenodd" d="M161.999 282.357C161.967 286.459 150.573 291 137.389 291C124.204 291 113.2 286.471 113.023 282.357C112.409 268.093 124.2 276.123 137.389 276.123C150.577 276.123 162.119 265.937 161.999 282.357Z" fill="#3F3D56"/>
<path opacity="0.2" fill-rule="evenodd" clip-rule="evenodd" d="M161.999 282.357C161.967 286.459 150.573 291 137.389 291C124.204 291 113.2 286.471 113.023 282.357C112.409 268.093 124.2 276.123 137.389 276.123C150.577 276.123 162.119 265.937 161.999 282.357Z" fill="black"/>
<path fill-rule="evenodd" clip-rule="evenodd" d="M162 275.703C162 280.119 151.253 285 138 285C124.747 285 114 280.132 114 275.703C114 271.274 124.743 269 138 269C151.257 269 162 271.291 162 275.703Z" fill="#3F3D56"/>
<path opacity="0.1" fill-rule="evenodd" clip-rule="evenodd" d="M162 275.703C162 280.119 151.253 285 138 285C124.747 285 114 280.132 114 275.703C114 271.274 124.743 269 138 269C151.257 269 162 271.291 162 275.703Z" fill="white"/>
<path fill-rule="evenodd" clip-rule="evenodd" d="M156.999 273.284C156.975 276.479 148.141 280 137.915 280C127.688 280 119.161 276.471 119.018 273.284C118.543 262.181 127.688 268.43 137.915 268.43C148.141 268.43 157.095 260.503 156.999 273.284Z" fill="#3F3D56"/>
<path opacity="0.2" fill-rule="evenodd" clip-rule="evenodd" d="M156.999 273.284C156.975 276.479 148.141 280 137.915 280C127.688 280 119.161 276.471 119.018 273.284C118.543 262.181 127.688 268.43 137.915 268.43C148.141 268.43 157.095 260.503 156.999 273.284Z" fill="black"/>
<path fill-rule="evenodd" clip-rule="evenodd" d="M156 267.449C156 271.041 147.72 275 137.502 275C127.284 275 119 271.057 119 267.449C119 263.841 127.284 262 137.502 262C147.72 262 156 263.853 156 267.449Z" fill="#3F3D56"/>
<path opacity="0.1" fill-rule="evenodd" clip-rule="evenodd" d="M156 267.449C156 271.041 147.72 275 137.502 275C127.284 275 119 271.057 119 267.449C119 263.841 127.284 262 137.502 262C147.72 262 156 263.853 156 267.449Z" fill="white"/>
<path fill-rule="evenodd" clip-rule="evenodd" d="M92.7888 291.992C92.7888 291.992 96.3689 288.174 96.9846 283.882C97.6004 279.591 79.4916 273 79.4916 273C79.4916 273 73.212 276.55 73 279.875C73 279.875 85.0209 292.37 92.7888 291.992Z" fill="#3F3D56"/>
<path opacity="0.2" fill-rule="evenodd" clip-rule="evenodd" d="M92.7888 291.992C92.7888 291.992 96.3689 288.174 96.9846 283.882C97.6004 279.591 79.4916 273 79.4916 273C79.4916 273 73.212 276.55 73 279.875C73 279.875 85.0209 292.37 92.7888 291.992Z" fill="black"/>
<path fill-rule="evenodd" clip-rule="evenodd" d="M92.3865 292.465C93.4935 290.623 89.936 286.462 84.4405 283.17C78.945 279.878 73.5927 278.701 72.4857 280.543C71.3787 282.384 74.9362 286.545 80.4317 289.838C85.9271 293.13 91.2795 294.306 92.3865 292.465Z" fill="#3F3D56"/>
<path opacity="0.1" fill-rule="evenodd" clip-rule="evenodd" d="M92.3865 292.465C93.4935 290.623 89.936 286.462 84.4405 283.17C78.945 279.878 73.5927 278.701 72.4857 280.543C71.3787 282.384 74.9362 286.545 80.4317 289.838C85.9271 293.13 91.2795 294.306 92.3865 292.465Z" fill="white"/>
<path fill-rule="evenodd" clip-rule="evenodd" d="M96.8306 283L107 265.579L96.6575 256.551L88.5937 255L86.0775 259.663L79 273.158L96.8306 283Z" fill="#3F3D56"/>
<path opacity="0.1" fill-rule="evenodd" clip-rule="evenodd" d="M96.8306 283L107 265.579L96.6575 256.551L88.5937 255L86.0775 259.663L79 273.158L96.8306 283Z" fill="white"/>
<path fill-rule="evenodd" clip-rule="evenodd" d="M107.645 267C107.645 267 114.463 259.706 112.713 255.764C110.962 251.821 101.718 243.92 95.8304 245.123C89.9432 246.326 89 255.064 89 255.064L107.645 267Z" fill="#3F3D56"/>
<path opacity="0.2" fill-rule="evenodd" clip-rule="evenodd" d="M107.645 267C107.645 267 114.463 259.706 112.713 255.764C110.962 251.821 101.718 243.92 95.8304 245.123C89.9432 246.326 89 255.064 89 255.064L107.645 267Z" fill="black"/>
<path fill-rule="evenodd" clip-rule="evenodd" d="M28.6101 234.606L81.4795 267C81.4795 267 86.5047 266.344 85.9585 259.566L33.5948 226.822C32.5289 226.155 31.2661 225.881 30.0222 226.048C28.5899 226.243 26.8946 226.769 26.3443 228.142C26.2037 228.492 26.1059 228.857 26.053 229.231C25.7507 231.378 26.7592 233.498 28.6101 234.606Z" fill="#3F3D56"/>
<path opacity="0.2" fill-rule="evenodd" clip-rule="evenodd" d="M28.6101 234.606L81.4795 267C81.4795 267 86.5047 266.344 85.9585 259.566L33.5948 226.822C32.5289 226.155 31.2661 225.881 30.0222 226.048C28.5899 226.243 26.8946 226.769 26.3443 228.142C26.2037 228.492 26.1059 228.857 26.053 229.231C25.7507 231.378 26.7592 233.498 28.6101 234.606Z" fill="black"/>
<path fill-rule="evenodd" clip-rule="evenodd" d="M96.7796 285C97.329 284.968 97.7945 284.573 97.929 284.025C98.1801 283.119 97.7211 282.249 97.2386 281.524C96.3769 280.231 95.3014 279.103 94.0609 278.19C91.9739 276.64 89.9496 274.892 87.5879 273.76C86.2206 273.135 84.7887 272.672 83.3196 272.379C82.2184 272.119 81.0914 271.992 79.9615 272C79.551 272.012 79.1902 272.283 79.0551 272.681C78.92 273.079 79.0387 273.522 79.3534 273.792C79.8757 274.148 80.4587 274.399 81.0717 274.533C84.1278 275.456 86.9563 277.054 89.6043 278.871C91.0306 279.812 92.3665 280.891 93.5941 282.092C94.4101 282.922 95.4536 285.032 96.7796 285Z" fill="#3F3D56"/>
<path opacity="0.2" fill-rule="evenodd" clip-rule="evenodd" d="M96.7796 285C97.329 284.968 97.7945 284.573 97.929 284.025C98.1801 283.119 97.7211 282.249 97.2386 281.524C96.3769 280.231 95.3014 279.103 94.0609 278.19C91.9739 276.64 89.9496 274.892 87.5879 273.76C86.2206 273.135 84.7887 272.672 83.3196 272.379C82.2184 272.119 81.0914 271.992 79.9615 272C79.551 272.012 79.1902 272.283 79.0551 272.681C78.92 273.079 79.0387 273.522 79.3534 273.792C79.8757 274.148 80.4587 274.399 81.0717 274.533C84.1278 275.456 86.9563 277.054 89.6043 278.871C91.0306 279.812 92.3665 280.891 93.5941 282.092C94.4101 282.922 95.4536 285.032 96.7796 285Z" fill="black"/>
<path fill-rule="evenodd" clip-rule="evenodd" d="M105.436 268C105.436 268 110.561 268.121 106.32 263.078C102.079 258.035 94.4917 253.031 89.0914 254.161C89.0914 254.161 86.8529 255.977 88.7876 256.29C90.6223 256.587 99.1805 258.246 103.114 262.914C103.544 263.42 104.025 263.884 104.549 264.299C105.472 265.034 106.715 266.427 105.436 268Z" fill="#3F3D56"/>
<path opacity="0.2" fill-rule="evenodd" clip-rule="evenodd" d="M105.436 268C105.436 268 110.561 268.121 106.32 263.078C102.079 258.035 94.4917 253.031 89.0914 254.161C89.0914 254.161 86.8529 255.977 88.7876 256.29C90.6223 256.587 99.1805 258.246 103.114 262.914C103.544 263.42 104.025 263.884 104.549 264.299C105.472 265.034 106.715 266.427 105.436 268Z" fill="black"/>
<path fill-rule="evenodd" clip-rule="evenodd" d="M113.778 257.257C114.885 255.415 111.327 251.254 105.832 247.962C100.336 244.67 94.9839 243.494 93.8769 245.335C92.7699 247.176 96.3274 251.337 101.823 254.63C107.318 257.922 112.671 259.098 113.778 257.257Z" fill="#3F3D56"/>
<path opacity="0.1" fill-rule="evenodd" clip-rule="evenodd" d="M113.778 257.257C114.885 255.415 111.327 251.254 105.832 247.962C100.336 244.67 94.9839 243.494 93.8769 245.335C92.7699 247.176 96.3274 251.337 101.823 254.63C107.318 257.922 112.671 259.098 113.778 257.257Z" fill="white"/>
<path fill-rule="evenodd" clip-rule="evenodd" d="M78.9776 256.74C78.8371 258.679 77.7697 260.42 76.1281 261.388C73.4502 262.856 69.6908 261.548 68.4296 258.711C67.7751 257.236 67.7632 255.579 67.6315 253.952C67.5886 253.421 67.5193 252.893 67.4239 252.37C67.0249 250.259 65.3247 248.016 63.2694 248.434C61.5733 248.775 60.6793 250.73 60.4758 252.493C60.4232 252.977 60.3966 253.464 60.396 253.952C60.396 254.46 60.4159 254.969 60.4439 255.477C60.4998 256.518 60.5876 257.564 60.5836 258.605C60.5836 260.654 60.1525 262.831 58.7118 264.237C56.9638 265.947 54.2819 266.025 51.8635 265.996C45.9609 265.934 39.3919 265.586 34.9501 261.856C34.4033 261.403 33.8959 260.902 33.4335 260.359C32.5655 259.333 31.8611 258.172 31.3463 256.92C30.9507 255.963 30.6472 254.969 30.4404 253.952C29.7779 250.775 29.9256 247.311 30.4683 244.089C30.8195 241.982 31.498 239.674 32.9985 238.329C33.3559 238.009 33.7598 237.747 34.1958 237.555C34.9142 237.243 35.7283 237.145 36.3549 236.657C36.9814 236.169 37.3885 235.284 38.051 234.751C39.38 233.681 41.3994 234.14 42.9558 233.779H43.0237L43.1075 233.755C44.7876 233.345 46.3401 232.402 47.9245 231.705C48.6069 231.406 49.2893 231.119 49.9758 230.865C51.6848 230.163 53.5299 229.883 55.3635 230.045C61.3498 230.746 68.5334 234.476 72.6321 238.953C73.6418 239.982 74.428 241.22 74.9388 242.585C75.2737 243.728 75.4589 244.912 75.4895 246.106C75.5973 247.791 75.6851 249.471 76.4992 250.91C76.9941 251.779 77.7204 252.489 78.2353 253.37C78.3539 253.568 78.458 253.775 78.5466 253.989C78.9124 254.854 79.0606 255.8 78.9776 256.74Z" fill="#BE6F72"/>
<path fill-rule="evenodd" clip-rule="evenodd" d="M66.2684 235.799C68.7131 237.088 71.1178 238.545 73.0383 240.553C74.9588 242.56 76.3752 245.193 76.4872 248C78.1657 245.929 79.6062 243.668 80.7804 241.263C81.7086 239.365 82.4728 237.121 81.6486 235.17C81.2548 234.345 80.7008 233.609 80.0202 233.008C76.4192 229.531 71.5779 227.609 66.6805 226.821C61.3871 225.969 50.8122 224.108 50 231.967C55.9296 231.681 60.971 233.016 66.2684 235.799Z" fill="#E3E8F4"/>
<path fill-rule="evenodd" clip-rule="evenodd" d="M132.326 136C128.374 137.714 123.748 136.502 119.571 137.54C116.487 138.306 113.835 140.247 111.332 142.212C106.343 146.126 101.427 150.503 98.7588 156.269C97.887 158.157 97.2653 160.163 96.2199 161.942C94.5286 164.844 91.8283 167.003 89.0149 168.831C81.826 173.483 73.4787 176.392 67.0809 182.09C64.3442 184.521 62.0394 187.406 59.8961 190.377C57.3773 193.862 54.9676 197.752 54.9192 202.055C54.9192 203.741 55.2501 205.451 54.9192 207.108C54.2087 210.816 50.4791 213.118 48.7959 216.497C47.1813 219.719 47.5648 223.698 45.7686 226.81C44.5899 228.836 42.4547 230.862 43.1287 233.099C48.0774 229.367 54.0271 227.831 60.0818 229.047C63.1131 229.651 65.9426 231.008 68.6551 232.495C71.7995 234.222 74.8995 236.183 77.172 238.979C79.4445 241.775 80.8048 245.495 79.9975 249C83.271 247.379 85.2085 243.919 86.5527 240.515C87.8968 237.111 88.922 233.476 91.1542 230.595C92.3046 229.108 93.7335 227.872 95.0937 226.579C102.646 219.395 108.091 210.318 113.435 201.358C118.946 192.124 124.455 182.885 129.96 173.641C131.486 171.076 133.02 168.495 134.122 165.723C137.823 156.403 135.426 145.519 132.326 136Z" fill="#4285F4"/>
<path fill-rule="evenodd" clip-rule="evenodd" d="M363 260C375.703 260 386 258.209 386 256C386 253.791 375.703 252 363 252C350.297 252 340 253.791 340 256C340 258.209 350.297 260 363 260Z" fill="#4285F4"/>
<path fill-rule="evenodd" clip-rule="evenodd" d="M362.5 257C363.881 257 365 255.433 365 253.5C365 251.567 363.881 250 362.5 250C361.119 250 360 251.567 360 253.5C360 255.433 361.119 257 362.5 257Z" fill="#3F3D56"/>
<path fill-rule="evenodd" clip-rule="evenodd" d="M362.5 252C363.881 252 365 250.433 365 248.5C365 246.567 363.881 245 362.5 245C361.119 245 360 246.567 360 248.5C360 250.433 361.119 252 362.5 252Z" fill="#3F3D56"/>
<path fill-rule="evenodd" clip-rule="evenodd" d="M362.5 249C363.881 249 365 247.433 365 245.5C365 243.567 363.881 242 362.5 242C361.119 242 360 243.567 360 245.5C360 247.433 361.119 249 362.5 249Z" fill="#3F3D56"/>
<path fill-rule="evenodd" clip-rule="evenodd" d="M362.5 244C363.881 244 365 242.433 365 240.5C365 238.567 363.881 237 362.5 237C361.119 237 360 238.567 360 240.5C360 242.433 361.119 244 362.5 244Z" fill="#3F3D56"/>
<path fill-rule="evenodd" clip-rule="evenodd" d="M362.5 241C363.881 241 365 239.433 365 237.5C365 235.567 363.881 234 362.5 234C361.119 234 360 235.567 360 237.5C360 239.433 361.119 241 362.5 241Z" fill="#3F3D56"/>
<path fill-rule="evenodd" clip-rule="evenodd" d="M362.5 236C363.881 236 365 234.433 365 232.5C365 230.567 363.881 229 362.5 229C361.119 229 360 230.567 360 232.5C360 234.433 361.119 236 362.5 236Z" fill="#3F3D56"/>
<path fill-rule="evenodd" clip-rule="evenodd" d="M362.5 231C363.881 231 365 229.433 365 227.5C365 225.567 363.881 224 362.5 224C361.119 224 360 225.567 360 227.5C360 229.433 361.119 231 362.5 231Z" fill="#3F3D56"/>
<path fill-rule="evenodd" clip-rule="evenodd" d="M372.327 199.626C372.683 199.164 373.007 198.678 373.298 198.171L366.444 197.021L373.856 197.077C375.293 193.889 375.38 190.239 374.096 186.983L364.149 192.245L373.322 185.368C370.981 181.238 366.574 178.786 361.9 179.015C357.227 179.244 353.071 182.115 351.129 186.455C349.187 190.795 349.786 195.878 352.681 199.626C352.127 200.347 351.65 201.126 351.258 201.95L360.156 206.666L350.66 203.417C349.306 207.496 350.063 211.996 352.673 215.382C348.645 220.606 349.231 228.11 354.019 232.618C358.807 237.127 366.189 237.127 370.977 232.618C375.766 228.11 376.351 220.606 372.323 215.382C375.887 210.758 375.887 204.25 372.323 199.626H372.327Z" fill="#4285F4"/>
<path opacity="0.1" fill-rule="evenodd" clip-rule="evenodd" d="M350 206.19C349.996 209.079 350.937 211.886 352.673 214.155C348.644 219.437 349.23 227.023 354.019 231.581C358.808 236.14 366.192 236.14 370.981 231.581C375.77 227.023 376.356 219.437 372.327 214.155C373.997 211.963 350 204.744 350 206.19Z" fill="black"/>
<path fill-rule="evenodd" clip-rule="evenodd" d="M188.111 71.9903C190.935 73.0555 193.691 74.5863 196.721 74.7875C200.566 75.04 204.197 73.1226 208.018 72.5939C215.018 71.6273 221.663 75.3556 228.239 77.8885C234.815 80.4214 243.288 81.4709 248.109 76.4169C252.204 72.1205 251.64 64.9755 248.347 60.0833C245.055 55.1911 239.677 52.027 234.359 49.3008C228.493 46.2944 222.377 43.5603 215.845 42.499C201.982 40.2542 187.897 45.8605 176.394 53.755C172.578 56.3747 168.805 59.4323 166.982 63.6183C165.949 65.9855 165.626 69.0155 166.526 71.4813C168.002 75.5371 168.971 75.0558 172.033 73.9984C177.883 71.9863 181.341 69.4574 188.111 71.9903Z" fill="#3F3D56"/>
</svg>
