<svg width="330" height="330" viewBox="0 0 330 330" fill="none" xmlns="http://www.w3.org/2000/svg">
<path opacity="0.1" d="M164.999 330C255.879 330 330 255.879 330 165.001C330 74.1224 255.879 0 164.999 0C74.1211 0 0 74.1224 0 165.001C0 255.879 74.1211 330 164.999 330Z" fill="#4285F4"/>
<path fill-rule="evenodd" clip-rule="evenodd" d="M269.239 170.029H229.572C228.919 179.236 226.319 187.913 222.182 195.651H247.192C249.088 190.306 254.193 186.465 260.182 186.465C267.778 186.465 273.961 192.647 273.961 200.244C273.961 207.842 267.778 214.023 260.182 214.023C254.193 214.023 249.088 210.183 247.192 204.837H216.216C212.502 209.613 208.13 213.852 203.237 217.419V232.125C203.237 234.661 201.181 236.718 198.644 236.718C196.107 236.718 194.051 234.661 194.051 232.125V223.008C186.724 226.664 178.607 228.962 170.029 229.571V243.732C170.029 246.269 167.973 248.325 165.436 248.325H147.064V256.249C152.411 258.146 156.25 263.252 156.25 269.239C156.25 276.837 150.069 283.018 142.471 283.018C134.875 283.018 128.692 276.837 128.692 269.239C128.692 263.25 132.533 258.146 137.878 256.249V243.732C137.878 241.195 139.934 239.139 142.471 239.139H160.843V229.572C148.7 228.711 137.476 224.464 128.116 217.771V225.015C128.116 227.55 126.06 229.608 123.523 229.608H102.971V239.431C108.318 241.328 112.157 246.432 112.157 252.421C112.157 260.017 105.976 266.2 98.3782 266.2C90.78 266.2 84.5991 260.017 84.5991 252.421C84.5991 246.432 88.4404 241.328 93.7852 239.431V225.015C93.7852 222.478 95.8413 220.422 98.3782 220.422H118.93V209.799C113.097 203.685 108.456 196.428 105.377 188.401H66.2271V207.28C71.5736 209.177 75.4131 214.281 75.4131 220.27C75.4131 227.866 69.2323 234.049 61.634 234.049C54.0376 234.049 47.855 227.866 47.855 220.27C47.855 214.281 51.6963 209.177 57.041 207.28V183.808C57.041 181.272 59.0971 179.215 61.634 179.215H102.625C101.891 175.863 101.416 172.417 101.227 168.893H77.7096C75.1727 168.893 73.1166 166.837 73.1166 164.3V121.603C67.77 119.709 63.9306 114.602 63.9306 108.615C63.9306 101.017 70.1114 94.8364 77.7096 94.8364C85.3078 94.8364 91.4887 101.017 91.4887 108.615C91.4887 114.602 87.6492 119.709 82.3026 121.603V159.707H101.4C102.232 150.424 105.072 141.389 109.75 133.287C111.018 131.091 113.828 130.337 116.024 131.605C118.221 132.874 118.973 135.682 117.705 137.88C112.875 146.247 110.32 155.776 110.32 165.437C110.32 195.828 135.045 220.551 165.436 220.551C195.827 220.551 220.553 195.828 220.553 165.437C220.553 135.047 195.827 110.322 165.436 110.322C156.326 110.322 147.274 112.609 139.256 116.937C139.114 117.014 138.969 117.084 138.82 117.145C138.805 117.152 138.79 117.157 138.774 117.162L138.774 117.162C138.766 117.165 138.757 117.168 138.748 117.172C138.634 117.216 138.517 117.261 138.397 117.297C138.349 117.312 138.302 117.324 138.254 117.335C138.233 117.34 138.212 117.346 138.19 117.351C138.162 117.358 138.133 117.365 138.104 117.373C138.057 117.385 138.01 117.397 137.963 117.407C137.848 117.43 137.733 117.446 137.618 117.46C137.586 117.464 137.552 117.471 137.519 117.473C137.209 117.505 136.9 117.505 136.595 117.473C136.555 117.47 136.515 117.463 136.475 117.456C136.454 117.453 136.433 117.449 136.411 117.446C136.326 117.435 136.242 117.425 136.158 117.408C136.079 117.392 136.002 117.372 135.925 117.351L135.871 117.337C135.852 117.332 135.832 117.327 135.813 117.323L135.813 117.322C135.785 117.316 135.756 117.309 135.729 117.301C135.651 117.277 135.575 117.249 135.499 117.221L135.447 117.202L135.425 117.194L135.406 117.187L135.383 117.179C135.358 117.17 135.333 117.162 135.309 117.152C135.225 117.118 135.146 117.078 135.067 117.039L135.056 117.034L135.034 117.024L135.002 117.009L135.002 117.009C134.967 116.993 134.933 116.978 134.9 116.96C134.879 116.949 134.859 116.938 134.839 116.926C134.826 116.919 134.814 116.911 134.802 116.904L134.764 116.88L134.763 116.88L134.763 116.88L134.732 116.861L134.712 116.849C134.694 116.839 134.677 116.829 134.66 116.819C134.61 116.789 134.56 116.76 134.511 116.727C134.503 116.722 134.496 116.717 134.489 116.712L134.473 116.701C134.455 116.688 134.438 116.675 134.42 116.662L134.42 116.662C134.405 116.651 134.391 116.64 134.376 116.63L134.34 116.604C134.275 116.557 134.21 116.511 134.148 116.459C134.142 116.455 134.137 116.45 134.131 116.445C134.123 116.438 134.115 116.43 134.107 116.423L134.101 116.417L134.098 116.415C134.083 116.401 134.068 116.388 134.053 116.375C133.972 116.305 133.893 116.235 133.818 116.16C133.798 116.141 133.779 116.12 133.76 116.099C133.751 116.089 133.741 116.078 133.732 116.068C133.658 115.993 133.587 115.916 133.518 115.835C133.482 115.791 133.448 115.744 133.415 115.698L133.38 115.65C133.365 115.63 133.349 115.609 133.333 115.589L133.333 115.589C133.305 115.553 133.278 115.518 133.253 115.482C133.081 115.227 132.935 114.956 132.815 114.669C132.808 114.651 132.802 114.633 132.796 114.615L132.781 114.574C132.738 114.464 132.697 114.357 132.663 114.245C132.646 114.193 132.634 114.141 132.621 114.088C132.615 114.064 132.609 114.041 132.603 114.018C132.599 114.001 132.595 113.985 132.591 113.968L132.583 113.938C132.573 113.897 132.562 113.856 132.553 113.813C132.528 113.691 132.512 113.567 132.498 113.445C132.496 113.433 132.493 113.42 132.491 113.407L132.488 113.388L132.485 113.368C132.469 113.205 132.462 113.042 132.462 112.878V76.4645H126.652C124.758 81.8092 119.651 85.6505 113.664 85.6505C106.066 85.6505 99.8853 79.4679 99.8853 71.8715C99.8853 64.2734 106.066 58.0926 113.664 58.0926C119.651 58.0926 124.758 61.932 126.652 67.2785H137.055C139.592 67.2785 141.648 69.3346 141.648 71.8715V105.705C147.775 103.271 154.264 101.782 160.843 101.306V87.1414C160.843 84.6045 162.899 82.5484 165.436 82.5484H183.808V74.6237C178.462 72.7273 174.622 67.6212 174.622 61.6342C174.622 54.036 180.803 47.8552 188.401 47.8552C196 47.8552 202.18 54.036 202.18 61.6342C202.18 67.623 198.339 72.7273 192.994 74.6237V87.1414C192.994 89.6783 190.938 91.7344 188.401 91.7344H170.029V101.301C182.174 102.162 193.396 106.409 202.756 113.103V107.81C202.756 105.275 204.812 103.217 207.349 103.217H237.087V96.0349C231.741 94.1385 227.901 89.0342 227.901 83.0454C227.901 75.449 234.082 69.2664 241.68 69.2664C249.279 69.2664 255.46 75.449 255.46 83.0454C255.46 89.0342 251.62 94.1385 246.273 96.0349V107.81C246.273 110.347 244.217 112.403 241.68 112.403H211.942V121.074C221.972 131.584 228.483 145.476 229.572 160.843H264.646V141.963C259.299 140.068 255.46 134.962 255.46 128.975C255.46 121.377 261.64 115.196 269.239 115.196C276.837 115.196 283.018 121.377 283.018 128.975C283.018 134.962 279.176 140.068 273.832 141.963V165.436C273.832 167.973 271.775 170.029 269.239 170.029ZM273.832 128.975C273.832 126.442 271.77 124.382 269.238 124.382C266.705 124.382 264.645 126.442 264.645 128.975C264.645 131.507 266.705 133.568 269.238 133.568C271.77 133.568 273.832 131.507 273.832 128.975ZM241.68 78.4524C244.214 78.4524 246.273 80.5139 246.273 83.0454C246.273 85.5787 244.214 87.6384 241.68 87.6384C239.149 87.6384 237.087 85.5787 237.087 83.0454C237.087 80.5139 239.149 78.4524 241.68 78.4524ZM192.995 61.6342C192.995 59.1009 190.935 57.0412 188.402 57.0412C185.87 57.0412 183.809 59.1009 183.809 61.6342C183.809 64.1675 185.87 66.2272 188.402 66.2272C190.935 66.2272 192.995 64.1675 192.995 61.6342ZM113.664 76.4645C111.133 76.4645 109.071 74.403 109.071 71.8715C109.071 69.3382 111.133 67.2785 113.664 67.2785C116.196 67.2785 118.256 69.3382 118.257 71.8679V71.8715V71.8733C118.256 74.4048 116.196 76.4645 113.664 76.4645ZM82.3028 108.613C82.3028 106.082 80.2431 104.02 77.7097 104.02C75.1764 104.02 73.1167 106.082 73.1167 108.613C73.1167 111.147 75.1764 113.206 77.7097 113.206C80.2431 113.206 82.3028 111.147 82.3028 108.613ZM61.634 224.861C59.1024 224.861 57.0409 222.801 57.0409 220.268C57.0409 217.737 59.0988 215.679 61.6304 215.675H61.6357H61.6393C64.1709 215.679 66.2288 217.737 66.2288 220.268C66.227 222.801 64.1673 224.861 61.634 224.861ZM93.7851 252.419C93.7851 254.952 95.8466 257.012 98.3781 257.012C100.911 257.012 102.971 254.952 102.971 252.419C102.971 249.887 100.911 247.826 98.3781 247.826C95.8466 247.826 93.7851 249.887 93.7851 252.419ZM142.471 273.83C139.94 273.83 137.878 271.771 137.878 269.237C137.878 266.704 139.94 264.644 142.471 264.644C145.005 264.644 147.064 266.704 147.064 269.237C147.064 271.771 145.005 273.83 142.471 273.83ZM264.774 200.244C264.774 197.712 262.713 195.651 260.181 195.651C257.648 195.651 255.588 197.71 255.588 200.242V200.244V200.247C255.588 202.777 257.648 204.837 260.181 204.837C262.713 204.837 264.774 202.777 264.774 200.244Z" fill="#C9C6CA"/>
<path fill-rule="evenodd" clip-rule="evenodd" d="M218.538 234.272V248.717C223.895 250.618 227.743 255.732 227.743 261.733C227.743 269.345 221.548 275.538 213.935 275.538C206.319 275.538 200.125 269.345 200.125 261.733C200.125 255.732 203.973 250.618 209.331 248.717V238.875H199.648C197.106 238.875 195.045 236.813 195.045 234.272C195.045 231.73 197.106 229.67 199.648 229.67H213.935C216.476 229.67 218.538 231.73 218.538 234.272ZM209.332 261.733C209.332 264.27 211.396 266.336 213.935 266.336C216.472 266.336 218.538 264.27 218.538 261.733C218.538 259.195 216.472 257.131 213.935 257.131C211.396 257.131 209.332 259.195 209.332 261.733Z" fill="#C4C4C4"/>
<path fill-rule="evenodd" clip-rule="evenodd" d="M129.077 72.223C129.077 80.4858 122.378 87.1878 114.112 87.1878C105.846 87.1878 99.147 80.4858 99.147 72.223C99.147 63.9572 105.846 57.2581 114.112 57.2581C122.378 57.2581 129.077 63.9572 129.077 72.223Z" fill="#ECF3FE"/>
<path fill-rule="evenodd" clip-rule="evenodd" d="M93.0416 109.039C93.0416 117.305 86.3425 124.004 78.0767 124.004C69.8109 124.004 63.1118 117.305 63.1118 109.039C63.1118 100.776 69.8109 94.0742 78.0767 94.0742C86.3425 94.0742 93.0416 100.776 93.0416 109.039Z" fill="#ECF3FE"/>
<path fill-rule="evenodd" clip-rule="evenodd" d="M76.9298 220.919C76.9298 229.185 70.2307 235.884 61.9649 235.884C53.7021 235.884 47 229.185 47 220.919C47 212.653 53.7021 205.954 61.9649 205.954C70.2307 205.954 76.9298 212.653 76.9298 220.919Z" fill="#ECF3FE"/>
<path fill-rule="evenodd" clip-rule="evenodd" d="M113.756 253.135C113.756 261.401 107.057 268.1 98.7916 268.1C90.5287 268.1 83.8267 261.401 83.8267 253.135C83.8267 244.869 90.5287 238.17 98.7916 238.17C107.057 238.17 113.756 244.869 113.756 253.135Z" fill="#ECF3FE"/>
<path fill-rule="evenodd" clip-rule="evenodd" d="M157.948 269.987C157.948 278.253 151.249 284.952 142.983 284.952C134.721 284.952 128.019 278.253 128.019 269.987C128.019 261.721 134.721 255.022 142.983 255.022C151.249 255.022 157.948 261.721 157.948 269.987Z" fill="#ECF3FE"/>
<path fill-rule="evenodd" clip-rule="evenodd" d="M229.633 261.512C229.633 269.776 222.931 276.475 214.668 276.475C206.402 276.475 199.703 269.776 199.703 261.512C199.703 253.245 206.402 246.546 214.668 246.546C222.931 246.546 229.633 253.245 229.633 261.512Z" fill="#ECF3FE"/>
<path fill-rule="evenodd" clip-rule="evenodd" d="M275.923 200.854C275.923 209.12 269.221 215.819 260.958 215.819C252.692 215.819 245.993 209.12 245.993 200.854C245.993 192.591 252.692 185.889 260.958 185.889C269.221 185.889 275.923 192.591 275.923 200.854Z" fill="#ECF3FE"/>
<path fill-rule="evenodd" clip-rule="evenodd" d="M285 129.442C285 137.705 278.301 144.407 270.035 144.407C261.769 144.407 255.07 137.705 255.07 129.442C255.07 121.176 261.769 114.477 270.035 114.477C278.301 114.477 285 121.176 285 129.442Z" fill="#ECF3FE"/>
<path fill-rule="evenodd" clip-rule="evenodd" d="M257.38 83.4195C257.38 91.6853 250.681 98.3844 242.415 98.3844C234.152 98.3844 227.45 91.6853 227.45 83.4195C227.45 75.1537 234.152 68.4546 242.415 68.4546C250.681 68.4546 257.38 75.1537 257.38 83.4195Z" fill="#ECF3FE"/>
<path fill-rule="evenodd" clip-rule="evenodd" d="M203.982 61.9649C203.982 70.2307 197.282 76.9298 189.017 76.9298C180.751 76.9298 174.052 70.2307 174.052 61.9649C174.052 53.7021 180.751 47 189.017 47C197.282 47 203.982 53.7021 203.982 61.9649Z" fill="#ECF3FE"/>
<path fill-rule="evenodd" clip-rule="evenodd" d="M129.077 72.2227C129.077 78.1247 124.292 82.9119 118.388 82.9119C112.484 82.9119 107.699 78.1247 107.699 72.2227C107.699 66.3185 112.484 61.5334 118.388 61.5334C124.292 61.5334 129.077 66.3185 129.077 72.2227Z" fill="#4285F4"/>
<path fill-rule="evenodd" clip-rule="evenodd" d="M88.0469 114.128C88.0469 120.032 83.2618 124.817 77.3577 124.817C71.4535 124.817 66.6685 120.032 66.6685 114.128C66.6685 108.226 71.4535 103.439 77.3577 103.439C83.2618 103.439 88.0469 108.226 88.0469 114.128Z" fill="#4285F4"/>
<path fill-rule="evenodd" clip-rule="evenodd" d="M72.6543 215.034C72.6543 220.938 67.8692 225.723 61.9651 225.723C56.0631 225.723 51.2759 220.938 51.2759 215.034C51.2759 209.13 56.0631 204.345 61.9651 204.345C67.8692 204.345 72.6543 209.13 72.6543 215.034Z" fill="#4285F4"/>
<path fill-rule="evenodd" clip-rule="evenodd" d="M109.425 246.674C109.425 252.578 104.64 257.364 98.7361 257.364C92.8341 257.364 88.0469 252.578 88.0469 246.674C88.0469 240.77 92.8341 235.985 98.7361 235.985C104.64 235.985 109.425 240.77 109.425 246.674Z" fill="#4285F4"/>
<path fill-rule="evenodd" clip-rule="evenodd" d="M153.037 264.632C153.037 270.536 148.252 275.322 142.348 275.322C136.446 275.322 131.659 270.536 131.659 264.632C131.659 258.728 136.446 253.943 142.348 253.943C148.252 253.943 153.037 258.728 153.037 264.632Z" fill="#4285F4"/>
<path fill-rule="evenodd" clip-rule="evenodd" d="M224.869 256.937C224.869 262.84 220.081 267.625 214.179 267.625C208.275 267.625 203.49 262.84 203.49 256.937C203.49 251.032 208.275 246.247 214.179 246.247C220.081 246.247 224.869 251.032 224.869 256.937Z" fill="#4285F4"/>
<path fill-rule="evenodd" clip-rule="evenodd" d="M265.06 200.497C265.06 206.401 260.273 211.186 254.371 211.186C248.467 211.186 243.682 206.401 243.682 200.497C243.682 194.595 248.467 189.808 254.371 189.808C260.273 189.808 265.06 194.595 265.06 200.497Z" fill="#4285F4"/>
<path fill-rule="evenodd" clip-rule="evenodd" d="M280.453 135.507C280.453 141.409 275.668 146.196 269.763 146.196C263.859 146.196 259.074 141.409 259.074 135.507C259.074 129.602 263.859 124.817 269.763 124.817C275.668 124.817 280.453 129.602 280.453 135.507Z" fill="#4285F4"/>
<path fill-rule="evenodd" clip-rule="evenodd" d="M252.233 88.4741C252.233 94.3782 247.448 99.1633 241.544 99.1633C235.642 99.1633 230.854 94.3782 230.854 88.4741C230.854 82.57 235.642 77.7849 241.544 77.7849C247.448 77.7849 252.233 82.57 252.233 88.4741Z" fill="#4285F4"/>
<path fill-rule="evenodd" clip-rule="evenodd" d="M199.215 66.2405C199.215 72.1446 194.43 76.9297 188.526 76.9297C182.622 76.9297 177.836 72.1446 177.836 66.2405C177.836 60.3384 182.622 55.5513 188.526 55.5513C194.43 55.5513 199.215 60.3384 199.215 66.2405Z" fill="#4285F4"/>
<path d="M165.436 231.71C200.996 231.71 229.999 202.707 229.999 167.147C229.999 131.587 200.996 102.584 165.436 102.584C129.876 102.584 100.874 131.587 100.874 167.147C100.874 202.707 129.876 231.71 165.436 231.71Z" fill="#E9C52F"/>
<path d="M165.436 222.303C196.286 222.303 221.448 197.526 221.448 167.147C221.448 136.768 196.286 111.99 165.436 111.99C134.586 111.99 109.425 136.768 109.425 167.147C109.425 197.526 134.586 222.303 165.436 222.303Z" fill="#FFD832"/>
<path opacity="0.5" fill-rule="evenodd" clip-rule="evenodd" d="M190.199 184.218C189.431 184.218 188.641 184.5 187.826 185.064C183.607 188.161 179.197 189.71 174.595 189.71C170.471 189.71 166.72 188.548 163.341 186.225C159.962 183.901 157.456 180.838 155.827 177.036H175.89C176.896 177.036 177.722 176.755 178.37 176.192C179.017 175.627 179.34 174.854 179.34 173.867C179.34 173.07 179.017 172.389 178.37 171.826C177.722 171.263 176.896 170.981 175.89 170.981H154.172C154.076 169.761 154.029 168.823 154.029 168.164C154.029 167.319 154.125 166.052 154.316 164.362H180.922C181.93 164.362 182.756 164.081 183.404 163.517C184.051 162.954 184.374 162.203 184.374 161.264C184.374 160.419 184.051 159.715 183.404 159.152C182.757 158.589 181.93 158.306 180.922 158.306H156.33C158.056 154.785 160.547 151.959 163.808 149.822C167.068 147.687 170.663 146.619 174.595 146.619C177.567 146.619 179.988 146.982 181.858 147.71C183.727 148.438 185.644 149.623 187.61 151.265C188.376 151.876 189.216 152.181 190.127 152.181C191.037 152.181 191.84 151.876 192.536 151.265C193.23 150.656 193.579 149.881 193.579 148.942C193.579 148.332 193.481 147.804 193.291 147.358C193.099 146.912 192.716 146.478 192.141 146.055C189.408 143.897 186.711 142.348 184.051 141.408C181.39 140.469 178.237 140 174.595 140C170.616 140 166.876 140.774 163.377 142.323C159.878 143.872 156.845 146.02 154.28 148.766C151.716 151.512 149.787 154.693 148.492 158.306H142.452C141.445 158.306 140.618 158.589 139.971 159.152C139.323 159.715 139 160.42 139 161.264C139 162.203 139.324 162.954 139.971 163.517C140.618 164.081 141.445 164.362 142.452 164.362H147.054C146.91 165.63 146.839 166.897 146.839 168.164C146.839 168.823 146.885 169.761 146.982 170.981H142.452C141.445 170.981 140.618 171.263 139.971 171.826C139.323 172.389 139 173.07 139 173.868C139 174.854 139.324 175.628 139.971 176.192C140.618 176.755 141.445 177.037 142.452 177.037H148.205C149.355 180.838 151.224 184.196 153.813 187.106C156.402 190.016 159.482 192.292 163.054 193.935C166.625 195.579 170.471 196.399 174.595 196.399C181.163 196.399 187.035 194.357 192.213 190.273C192.979 189.523 193.363 188.655 193.363 187.668C193.363 186.637 193.063 185.802 192.464 185.169C191.864 184.535 191.109 184.218 190.199 184.218Z" fill="#C2A52B"/>
<path fill-rule="evenodd" clip-rule="evenodd" d="M181.199 184.218C180.431 184.218 179.641 184.5 178.826 185.064C174.607 188.161 170.197 189.71 165.595 189.71C161.471 189.71 157.72 188.548 154.341 186.225C150.962 183.901 148.456 180.838 146.827 177.036H166.89C167.896 177.036 168.722 176.755 169.37 176.192C170.017 175.627 170.34 174.854 170.34 173.867C170.34 173.07 170.017 172.389 169.37 171.826C168.722 171.263 167.896 170.981 166.89 170.981H145.172C145.076 169.761 145.029 168.823 145.029 168.164C145.029 167.319 145.125 166.052 145.316 164.362H171.922C172.93 164.362 173.756 164.081 174.404 163.517C175.051 162.954 175.374 162.203 175.374 161.264C175.374 160.419 175.051 159.715 174.404 159.152C173.757 158.589 172.93 158.306 171.922 158.306H147.33C149.056 154.785 151.547 151.959 154.808 149.822C158.068 147.687 161.663 146.619 165.595 146.619C168.567 146.619 170.988 146.982 172.858 147.71C174.727 148.438 176.644 149.623 178.61 151.265C179.376 151.876 180.216 152.181 181.127 152.181C182.037 152.181 182.84 151.876 183.536 151.265C184.23 150.656 184.579 149.881 184.579 148.942C184.579 148.332 184.481 147.804 184.291 147.358C184.099 146.912 183.716 146.478 183.141 146.055C180.408 143.897 177.711 142.348 175.051 141.408C172.39 140.469 169.237 140 165.595 140C161.616 140 157.876 140.774 154.377 142.323C150.878 143.872 147.845 146.02 145.28 148.766C142.716 151.512 140.787 154.693 139.492 158.306H133.452C132.445 158.306 131.618 158.589 130.971 159.152C130.323 159.715 130 160.42 130 161.264C130 162.203 130.324 162.954 130.971 163.517C131.618 164.081 132.445 164.362 133.452 164.362H138.054C137.91 165.63 137.839 166.897 137.839 168.164C137.839 168.823 137.885 169.761 137.982 170.981H133.452C132.445 170.981 131.618 171.263 130.971 171.826C130.323 172.389 130 173.07 130 173.868C130 174.854 130.324 175.628 130.971 176.192C131.618 176.755 132.445 177.037 133.452 177.037H139.205C140.355 180.838 142.224 184.196 144.813 187.106C147.402 190.016 150.482 192.292 154.054 193.935C157.625 195.579 161.471 196.399 165.595 196.399C172.163 196.399 178.035 194.357 183.213 190.273C183.979 189.523 184.363 188.655 184.363 187.668C184.363 186.637 184.063 185.802 183.464 185.169C182.864 184.535 182.109 184.218 181.199 184.218Z" fill="#C2A52B"/>
</svg>
