<svg width="330" height="330" viewBox="0 0 330 330" fill="none" xmlns="http://www.w3.org/2000/svg">
<path opacity="0.1" fill-rule="evenodd" clip-rule="evenodd" d="M165 330C256.127 330 330 256.127 330 165C330 73.873 256.127 0 165 0C73.873 0 0 73.873 0 165C0 256.127 73.873 330 165 330Z" fill="#4285F4"/>
<rect x="215.397" y="132.534" width="8.93244" height="8.98609" fill="#3F3D56"/>
<rect x="242.64" y="132.534" width="8.93244" height="8.98609" fill="#3F3D56"/>
<rect x="269.438" y="132.534" width="8.93244" height="8.98609" fill="#3F3D56"/>
<rect x="51.4888" y="188.247" width="8.93244" height="8.98609" fill="#3F3D56"/>
<rect x="78.2852" y="188.247" width="8.93244" height="8.98609" fill="#3F3D56"/>
<rect x="105.529" y="188.247" width="8.93244" height="8.98609" fill="#3F3D56"/>
<path fill-rule="evenodd" clip-rule="evenodd" d="M105.083 58.3986L98.8301 52.1088L106.869 43.5722L98.8301 35.035L105.083 28.7452L119.821 43.5722L105.083 58.3986Z" fill="#3F3D56"/>
<rect x="85.4316" y="39.0791" width="27.6903" height="8.98609" fill="#3F3D56"/>
<rect x="135" y="268" width="59" height="36" fill="#4FCDC4"/>
<path fill-rule="evenodd" clip-rule="evenodd" d="M135.57 308.513H194.219C196.885 308.513 198.662 306.729 198.662 304.055V267.947C198.662 265.272 196.885 263.489 194.219 263.489H135.57C132.904 263.489 131.127 265.272 131.127 267.947V304.055C131.127 306.729 132.904 308.513 135.57 308.513ZM189.777 299.597H140.014V272.405H189.777V299.597Z" fill="#4FCDC4"/>
<rect x="135" y="207" width="59" height="37" fill="#CCF4EF"/>
<path fill-rule="evenodd" clip-rule="evenodd" d="M135.57 248.012H194.219C196.885 248.012 198.662 246.229 198.662 243.554V207.446C198.662 204.772 196.885 202.989 194.219 202.989H135.57C132.904 202.989 131.127 204.772 131.127 207.446V243.554C131.127 246.229 132.904 248.012 135.57 248.012ZM189.777 239.097H140.014V211.904H189.777V239.097Z" fill="#CCF4EF"/>
<rect x="135" y="147" width="59" height="36" fill="#4FCDC4"/>
<path fill-rule="evenodd" clip-rule="evenodd" d="M135.57 187.512H194.219C196.885 187.512 198.662 185.729 198.662 183.054V146.946C198.662 144.271 196.885 142.488 194.219 142.488H135.57C132.904 142.488 131.127 144.271 131.127 146.946V183.054C131.127 185.729 132.904 187.512 135.57 187.512ZM189.777 178.596H140.014V151.404H189.777V178.596Z" fill="#4FCDC4"/>
<rect x="135" y="86" width="59" height="37" fill="#CCF4EF"/>
<path fill-rule="evenodd" clip-rule="evenodd" d="M135.57 127.011H194.219C196.885 127.011 198.662 124.783 198.662 122.554V86.4456C198.662 83.771 196.885 81.9877 194.219 81.9877H135.57C132.904 81.9877 131.127 83.771 131.127 86.4456V122.554C131.127 125.228 132.904 127.011 135.57 127.011ZM189.777 118.096H140.014V90.9039H189.777V118.096Z" fill="#CCF4EF"/>
<rect x="135" y="26" width="59" height="36" fill="#4FCDC4"/>
<path fill-rule="evenodd" clip-rule="evenodd" d="M134.984 66.6745H194.035C196.719 66.6745 198.509 64.4372 198.509 62.2004V25.9613C198.509 23.277 196.719 21.4873 194.035 21.4873H134.984C132.3 21.4873 130.511 23.277 130.511 25.9613V62.2004C130.511 64.8847 132.3 66.6745 134.984 66.6745ZM189.562 57.7264H139.458V30.4353H189.562V57.7264Z" fill="#4FCDC4"/>
<path fill-rule="evenodd" clip-rule="evenodd" d="M213.72 298.426L207.457 292.163L215.509 284.109L207.457 275.609L213.72 269.346L228.035 284.109L213.72 298.426Z" fill="#3F3D56"/>
<rect x="198.663" y="278.966" width="22.5118" height="9.84891" fill="#3F3D56"/>
<path fill-rule="evenodd" clip-rule="evenodd" d="M108.143 296.637L101.433 290.373L109.932 281.873L101.433 273.372L108.143 267.108L122.458 281.873L108.143 296.637Z" fill="#3F3D56"/>
<path fill-rule="evenodd" clip-rule="evenodd" d="M112.511 286.001H56.2317C38.4822 286.001 24.1958 271.472 24.1958 253.42C24.1958 235.369 38.9153 221.279 56.6648 221.279H131.127V230.085H56.6648C43.6771 230.085 33.2874 240.652 33.2874 253.86C33.2874 267.068 43.6776 277.635 56.6648 277.635H112.944V286H112.511V286.001Z" fill="#3F3D56"/>
<path fill-rule="evenodd" clip-rule="evenodd" d="M108.143 175.839L101.433 169.576L109.932 161.523L101.433 153.022L108.143 146.759L122.458 161.523L108.143 175.839Z" fill="#3F3D56"/>
<path fill-rule="evenodd" clip-rule="evenodd" d="M112.511 166.407H56.2317C38.4822 166.407 24.1958 151.662 24.1958 133.343C24.1958 115.024 38.9153 100.279 56.6648 100.279H131.127V109.214H56.6648C43.6771 109.214 33.2874 119.938 33.2874 133.342C33.2874 146.746 43.6776 157.47 56.6648 157.47H112.944V166.406H112.511V166.407Z" fill="#3F3D56"/>
<path fill-rule="evenodd" clip-rule="evenodd" d="M220.877 238.475L206.562 223.711L220.877 209.394L227.587 215.657L219.087 223.711L227.587 232.211L220.877 238.475Z" fill="#3F3D56"/>
<path fill-rule="evenodd" clip-rule="evenodd" d="M272.444 228.314H216.679V219.302H272.444C285.313 219.302 295.607 208.487 295.607 194.97V192.717C295.607 179.199 285.312 168.384 272.444 168.384H198.663V159.372H272.444C290.031 159.372 304.187 174.242 304.187 192.717V194.97C304.187 213.444 290.031 228.314 272.444 228.314Z" fill="#3F3D56"/>
<path fill-rule="evenodd" clip-rule="evenodd" d="M220.877 118.125L206.562 103.361L220.877 88.597L227.587 94.8607L219.087 103.361L227.587 111.862L220.877 118.125Z" fill="#3F3D56"/>
<path fill-rule="evenodd" clip-rule="evenodd" d="M272.444 107.313H216.679V98.4852H272.444C285.313 98.4852 295.607 87.8912 295.607 74.6494V72.4427C295.607 59.2003 285.312 48.6069 272.444 48.6069H198.663V39.7781H272.444C290.031 39.7781 304.187 54.3446 304.187 72.4421V74.6489C304.187 92.7469 290.031 107.313 272.444 107.313Z" fill="#3F3D56"/>
<rect x="244" y="268" width="59" height="36" fill="#4285F4"/>
<path fill-rule="evenodd" clip-rule="evenodd" d="M243.908 308.513H302.557C305.223 308.513 307 306.729 307 304.055V267.947C307 265.272 305.223 263.489 302.557 263.489H243.908C241.242 263.489 239.465 265.272 239.465 267.947V304.055C239.465 306.729 241.242 308.513 243.908 308.513ZM298.115 299.597H248.352V272.405H298.115V299.597Z" fill="#4285F4"/>
<rect x="26" y="26" width="59" height="36" fill="#4285F4"/>
<path fill-rule="evenodd" clip-rule="evenodd" d="M25.825 66.5109H84.4741C87.1399 66.5109 88.9172 64.2817 88.9172 62.0531V25.9451C88.9172 23.2705 87.1399 21.4873 84.4741 21.4873H25.825C23.1592 21.4873 21.3818 23.2705 21.3818 25.9451V62.0531C21.3818 64.7277 23.1592 66.5109 25.825 66.5109ZM80.0318 57.5953H30.2686V30.403H80.0318V57.5953Z" fill="#4285F4"/>
</svg>
