<svg width="330" height="330" viewBox="0 0 330 330" fill="none" xmlns="http://www.w3.org/2000/svg">
<path opacity="0.1" d="M164.999 330C255.879 330 330 255.879 330 165.001C330 74.1224 255.879 0 164.999 0C74.1211 0 0 74.1224 0 165.001C0 255.879 74.1211 330 164.999 330Z" fill="#4285F4"/>
<path d="M74.6464 194.276L3.95068 160.789L74.6464 38L145.344 160.789L74.6464 194.276Z" fill="#A3E4FF"/>
<path d="M74.6465 38V194.276L145.344 160.789L74.6465 38Z" fill="#73C3FF"/>
<path d="M74.6467 305L1.49219 177.157L74.6467 211.958L147.803 177.157L74.6467 305Z" fill="#4285F4"/>
<path d="M74.6464 129.29L3.95068 160.789L74.6464 194.276L145.344 160.789L74.6464 129.29Z" fill="#3CDFD3"/>
<path d="M145.344 160.789L74.6465 129.29V194.276L145.344 160.789Z" fill="#4FCDC4"/>
<path d="M147.803 177.157L74.6465 211.958V305L147.803 177.157Z" fill="#3B78DC"/>
<path d="M165.785 256.949H155.004V263.727H167.738V269H148.148V240.562H167.777V245.855H155.004V251.852H165.785V256.949ZM178.336 269H171.5V240.562H178.336V269ZM190.457 259.352V269H183.602V240.562H194.949C197.124 240.562 199.044 240.966 200.711 241.773C202.391 242.568 203.686 243.707 204.598 245.191C205.522 246.663 205.984 248.336 205.984 250.211C205.984 252.984 204.988 255.204 202.996 256.871C201.017 258.525 198.296 259.352 194.832 259.352H190.457ZM190.457 254.059H194.949C196.277 254.059 197.286 253.727 197.977 253.062C198.68 252.398 199.031 251.461 199.031 250.25C199.031 248.922 198.673 247.861 197.957 247.066C197.241 246.272 196.264 245.868 195.027 245.855H190.457V254.059ZM222.715 259.293H210.977V254.195H222.715V259.293ZM242.844 269H236.242V247.984L229.758 249.879V244.879L242.238 240.562H242.844V269ZM269.301 257.887H272.191V262.965H269.301V269H262.719V262.965H251.723L251.332 258.941L262.719 240.621V240.562H269.301V257.887ZM257.602 257.887H262.719V249.137L262.309 249.801L257.602 257.887ZM295.328 257.379C295.328 261.22 294.462 264.182 292.73 266.266C291.012 268.349 288.583 269.391 285.445 269.391C282.281 269.391 279.833 268.342 278.102 266.246C276.37 264.15 275.504 261.194 275.504 257.379V252.184C275.504 248.342 276.363 245.38 278.082 243.297C279.814 241.214 282.255 240.172 285.406 240.172C288.557 240.172 290.999 241.22 292.73 243.316C294.462 245.413 295.328 248.375 295.328 252.203V257.379ZM288.746 251.344C288.746 249.299 288.479 247.776 287.945 246.773C287.411 245.758 286.565 245.25 285.406 245.25C284.273 245.25 283.447 245.719 282.926 246.656C282.418 247.594 282.145 249.013 282.105 250.914V258.18C282.105 260.302 282.372 261.858 282.906 262.848C283.44 263.824 284.286 264.312 285.445 264.312C286.565 264.312 287.392 263.837 287.926 262.887C288.46 261.923 288.733 260.419 288.746 258.375V251.344ZM318.992 257.379C318.992 261.22 318.126 264.182 316.395 266.266C314.676 268.349 312.247 269.391 309.109 269.391C305.945 269.391 303.497 268.342 301.766 266.246C300.034 264.15 299.168 261.194 299.168 257.379V252.184C299.168 248.342 300.027 245.38 301.746 243.297C303.478 241.214 305.919 240.172 309.07 240.172C312.221 240.172 314.663 241.22 316.395 243.316C318.126 245.413 318.992 248.375 318.992 252.203V257.379ZM312.41 251.344C312.41 249.299 312.143 247.776 311.609 246.773C311.076 245.758 310.229 245.25 309.07 245.25C307.938 245.25 307.111 245.719 306.59 246.656C306.082 247.594 305.809 249.013 305.77 250.914V258.18C305.77 260.302 306.036 261.858 306.57 262.848C307.104 263.824 307.951 264.312 309.109 264.312C310.229 264.312 311.056 263.837 311.59 262.887C312.124 261.923 312.397 260.419 312.41 258.375V251.344Z" fill="#575A89"/>
<path fill-rule="evenodd" clip-rule="evenodd" d="M277.998 126.77H135.043L162.531 171.995L135.097 217.129H277.998L290.913 203.981V139.918L277.998 126.77Z" fill="#FFD832"/>
<path fill-rule="evenodd" clip-rule="evenodd" d="M220.349 198L199 171.153L209.457 162.657L221.244 177.457L247.329 150L257 159.443L220.349 198Z" fill="#FFCE00"/>
<path fill-rule="evenodd" clip-rule="evenodd" d="M214.35 198L193 171.153L203.458 162.657L215.245 177.457L241.33 150L251 159.443L214.35 198Z" fill="#4CBFB7"/>
<path fill-rule="evenodd" clip-rule="evenodd" d="M280.278 123.381H146.338V131.271H277.076L287.699 142.11V202.917L277.076 213.755H146.392V221.648H280.278L295.431 206.186V138.843L280.278 123.381Z" fill="#E9C52F"/>
</svg>
