<svg width="488" height="400" viewBox="0 0 488 400" fill="none" xmlns="http://www.w3.org/2000/svg">
<path fill-rule="evenodd" clip-rule="evenodd" d="M111.813 80.5684L113.892 251.998L203.728 295.734L201.649 124.305L111.813 80.5684Z" fill="#F2F2F2"/>
<path fill-rule="evenodd" clip-rule="evenodd" d="M84.0986 67.2988L17.0562 204.967L108.023 249.289L105.947 77.9441L84.0986 67.2988Z" fill="#F2F2F2"/>
<path fill-rule="evenodd" clip-rule="evenodd" d="M488 260.619L307.014 172.512L309.089 343.629L420.99 398.104L488 260.619Z" fill="#F2F2F2"/>
<path fill-rule="evenodd" clip-rule="evenodd" d="M209.414 124.171L211.493 295.6L301.328 339.337L299.249 167.908L209.414 124.171Z" fill="#F2F2F2"/>
<path fill-rule="evenodd" clip-rule="evenodd" d="M400.758 132.278L412.021 131.841L412.582 146.328L401.32 146.765L400.758 132.278Z" fill="#4285F4"/>
<path fill-rule="evenodd" clip-rule="evenodd" d="M361.589 182.776C361.589 182.776 345.612 175.335 345.867 181.762C346.123 188.188 361.973 192.417 361.973 192.417L361.589 182.776Z" fill="#FFB9B9"/>
<path fill-rule="evenodd" clip-rule="evenodd" d="M369.484 237.068C369.484 237.068 362.15 255.12 359.44 268.147C356.73 281.173 352.603 299.1 357.912 311.814C363.22 324.528 378.313 361.894 378.468 365.926C378.624 369.958 377.176 374.052 380.383 373.927C383.59 373.802 401.044 368.276 401.753 365.826C402.462 363.375 395.798 357.175 395.798 357.175L379.344 305.326L396.511 271.547L408.894 321.939L411.319 384.834C411.319 384.834 423.223 381.139 424.951 384.302C424.951 384.302 430.284 376.826 430.961 373.57C431.639 370.313 428.443 308.256 428.443 308.256C428.443 308.256 439.369 237.573 430.549 237.917C421.728 238.261 387.18 216.997 369.484 237.068Z" fill="#2F2E41"/>
<path fill-rule="evenodd" clip-rule="evenodd" d="M380.944 370.441C380.944 370.441 372.883 388.379 372.12 389.21C371.356 390.041 366.103 398.257 370.075 398.102C374.047 397.947 383.426 393.575 390.329 386.897C397.232 380.219 406.334 368.649 405.508 367.88C404.683 367.111 399.03 364.929 399.03 364.929L380.944 370.441Z" fill="#2F2E41"/>
<path fill-rule="evenodd" clip-rule="evenodd" d="M413.095 380.611C413.095 380.611 412.608 388.719 411.141 392.013C409.674 395.306 409.859 400.152 413.835 399.996C417.811 399.839 428.086 397.817 428.086 397.817C428.086 397.817 428.696 392.939 427.87 392.163C427.044 391.386 423.524 382.627 425.022 380.141C426.52 377.656 413.095 380.611 413.095 380.611Z" fill="#2F2E41"/>
<path fill-rule="evenodd" clip-rule="evenodd" d="M419.287 118.483C419.287 118.483 427.977 131.759 431.365 134.832C434.752 137.905 425.222 144.67 425.222 144.67L408.164 146.919C408.164 146.919 408.378 131.704 407.5 130.137C406.621 128.569 419.287 118.483 419.287 118.483Z" fill="#FFB9B9"/>
<path fill-rule="evenodd" clip-rule="evenodd" d="M404.344 136.371C404.344 136.371 407.781 142.661 410.971 142.537C414.161 142.412 430.661 135.345 431.366 132.908C432.07 130.471 436.831 150.362 436.831 150.362L396.457 221.801L386.609 214.957L391.381 173.013L395.3 150.375L404.344 136.371Z" fill="#4285F4"/>
<path fill-rule="evenodd" clip-rule="evenodd" d="M433.455 199.679C431.84 203.077 430.83 206.621 430.97 210.249C430.976 210.41 430.983 210.571 430.997 210.731C431.38 218.177 434.108 226.787 435.087 233.049C435.797 237.541 435.595 240.82 432.98 241.591C426.642 243.449 433.905 244.777 409.38 252.984C384.856 261.191 380.576 254.107 380.514 252.498C380.452 250.889 383.987 238.667 383.156 237.894C382.325 237.121 371.527 248.015 368.264 246.531C365.002 245.047 367.892 236.878 367.892 236.878C367.892 236.878 375.241 219.673 375.086 215.65C374.931 211.628 386.219 192.659 386.219 192.659L393.897 142.41C393.897 142.41 396.849 135.849 400.819 134.889C404.788 133.929 408.082 136.217 408.082 136.217L401.439 150.978L394.431 177.031L395.603 186.653C395.603 186.653 403.753 169.417 409.106 162.763C414.458 156.109 425.871 140.357 425.871 140.357C425.871 140.357 428.535 131.319 426.524 128.618C424.512 125.909 434.913 125.503 439.348 136.609C441.699 142.496 445.515 151.273 447.906 159.446C450.036 166.686 451.042 173.455 448.932 177.323C445.706 183.234 437.592 191.002 433.455 199.679Z" fill="#575A89"/>
<path opacity="0.1" fill-rule="evenodd" clip-rule="evenodd" d="M448.93 177.421C445.698 183.39 437.569 191.236 433.425 200C432.343 196.047 431.022 191.957 431.022 191.957C431.022 191.957 425.958 164.491 440.939 157.393C443.421 157.15 445.904 157.853 447.902 159.365C450.036 166.677 451.044 173.513 448.93 177.421Z" fill="black"/>
<path fill-rule="evenodd" clip-rule="evenodd" d="M389.167 176.304L376.552 180.008L359.037 180.692L357.235 196.017L386.02 198.105C386.02 198.105 393.21 177.752 389.167 176.304Z" fill="#575A89"/>
<path fill-rule="evenodd" clip-rule="evenodd" d="M410.051 227.488C410.051 227.488 392.717 230.387 396.673 235.646C400.629 240.904 415.985 235.376 415.985 235.376L410.051 227.488Z" fill="#FFB9B9"/>
<path opacity="0.1" fill-rule="evenodd" clip-rule="evenodd" d="M430.799 211.374C431.186 218.733 433.946 227.243 434.936 233.433C429.471 238.514 424.273 242.996 422.314 243.07C418.267 243.225 411.761 242.676 409.364 243.564C406.967 244.451 405.562 229.376 405.562 229.376C405.562 229.376 406.992 224.544 413.373 221.912C417.68 220.131 425.936 215.302 430.799 211.374Z" fill="black"/>
<path fill-rule="evenodd" clip-rule="evenodd" d="M440.894 152.661C440.894 152.661 454.599 150.513 453.859 173.193C453.118 195.873 455.303 210.351 449.791 214.609C444.279 218.867 426.374 238.166 422.325 238.323C418.275 238.479 411.765 237.922 409.366 238.824C406.968 239.726 405.562 224.409 405.562 224.409C405.562 224.409 406.993 219.5 413.378 216.826C419.763 214.152 434.805 204.672 434.679 201.441C434.554 198.209 430.875 187.026 430.875 187.026C430.875 187.026 425.757 159.718 440.894 152.661Z" fill="#575A89"/>
<path fill-rule="evenodd" clip-rule="evenodd" d="M406.982 137.441C416.664 137.441 424.512 129.59 424.512 119.906C424.512 110.221 416.664 102.37 406.982 102.37C397.301 102.37 389.452 110.221 389.452 119.906C389.452 129.59 397.301 137.441 406.982 137.441Z" fill="#FFB9B9"/>
<path fill-rule="evenodd" clip-rule="evenodd" d="M395.115 94.613C394.686 94.9852 394.173 95.2449 393.622 95.3688C393.045 95.4725 392.493 95.0871 392.387 94.506C391.98 95.356 391.522 96.2619 390.693 96.698C389.863 97.1342 388.58 96.7684 388.461 95.8326C388.34 96.5432 388.028 97.2068 387.559 97.7514C387.045 98.2464 386.111 98.3714 385.662 97.8154C386.025 99.818 385.801 101.878 385.915 103.91C386.029 105.943 386.567 108.098 388.089 109.434C390.309 111.384 393.648 110.903 396.569 110.533C397.01 110.44 397.469 110.465 397.898 110.607C398.991 111.077 398.941 112.612 398.956 113.811C399.14 118.155 402.408 121.73 406.685 122.267C407.845 122.447 409.027 122.156 409.974 121.457C410.803 120.748 411.227 119.592 412.177 119.06C413.722 118.193 415.597 119.457 416.727 120.829C417.857 122.201 418.971 123.888 420.722 124.139C423.037 124.471 424.8 122.091 425.665 119.9C428.077 113.694 427.901 106.769 425.178 100.695C420.344 90.0652 403.83 88.3838 395.115 94.613Z" fill="#2F2E41"/>
<path fill-rule="evenodd" clip-rule="evenodd" d="M301.802 109.953C321.95 109.953 338.283 93.6142 338.283 73.4597C338.283 53.3052 321.95 36.9668 301.802 36.9668C281.654 36.9668 265.32 53.3052 265.32 73.4597C265.32 93.6142 281.654 109.953 301.802 109.953Z" fill="#4285F4"/>
<path fill-rule="evenodd" clip-rule="evenodd" d="M262.088 34.8663C270.462 43.504 283.324 44.5501 283.324 44.5501C283.324 44.5501 282.611 31.5919 274.238 22.9543C265.865 14.3167 253.002 13.2705 253.002 13.2705C253.002 13.2705 253.715 26.2287 262.088 34.8663Z" fill="#3F3D56"/>
<path fill-rule="evenodd" clip-rule="evenodd" d="M264.674 30.3111C276.187 33.3914 283.324 43.9659 283.324 43.9659C283.324 43.9659 271.794 49.5462 260.281 46.4659C248.768 43.3857 241.631 32.8112 241.631 32.8112C241.631 32.8112 253.161 27.2308 264.674 30.3111Z" fill="#4285F4"/>
<path fill-rule="evenodd" clip-rule="evenodd" d="M275.744 21.8555C275.821 33.8958 284.412 43.6019 284.412 43.6019C284.412 43.6019 292.877 33.7868 292.799 21.7464C292.722 9.7061 284.132 0 284.132 0C284.132 0 275.667 9.81514 275.744 21.8555Z" fill="#3F3D56"/>
<path fill-rule="evenodd" clip-rule="evenodd" d="M280.806 20.7799C287.119 30.988 284.806 43.6016 284.806 43.6016C284.806 43.6016 272.257 39.6646 265.944 29.4564C259.631 19.2483 261.944 6.63477 261.944 6.63477C261.944 6.63477 274.493 10.5718 280.806 20.7799Z" fill="#4285F4"/>
<path fill-rule="evenodd" clip-rule="evenodd" d="M298.486 89.0993C308.952 89.0993 317.437 80.6118 317.437 70.1419C317.437 59.6721 308.952 51.1846 298.486 51.1846C288.019 51.1846 279.534 59.6721 279.534 70.1419C279.534 80.6118 288.019 89.0993 298.486 89.0993Z" fill="#F2F2F2"/>
<path fill-rule="evenodd" clip-rule="evenodd" d="M289.483 82.4649C292.885 82.4649 295.643 79.7064 295.643 76.3037C295.643 72.901 292.885 70.1426 289.483 70.1426C286.082 70.1426 283.324 72.901 283.324 76.3037C283.324 79.7064 286.082 82.4649 289.483 82.4649Z" fill="#3F3D56"/>
<path fill-rule="evenodd" clip-rule="evenodd" d="M105.654 397.157C125.803 397.157 142.136 380.818 142.136 360.664C142.136 340.509 125.803 324.171 105.654 324.171C85.5062 324.171 69.1729 340.509 69.1729 360.664C69.1729 380.818 85.5062 397.157 105.654 397.157Z" fill="#4285F4"/>
<path fill-rule="evenodd" clip-rule="evenodd" d="M90.0039 307.417C93.0904 318.934 103.662 326.067 103.662 326.067C103.662 326.067 109.23 314.527 106.144 303.01C103.057 291.493 92.4851 284.36 92.4851 284.36C92.4851 284.36 86.9174 295.9 90.0039 307.417Z" fill="#3F3D56"/>
<path fill-rule="evenodd" clip-rule="evenodd" d="M94.5432 304.815C103.178 313.19 104.233 326.066 104.233 326.066C104.233 326.066 91.2875 325.362 82.6525 316.986C74.0176 308.61 72.9629 295.734 72.9629 295.734C72.9629 295.734 85.9082 296.439 94.5432 304.815Z" fill="#4285F4"/>
<path fill-rule="evenodd" clip-rule="evenodd" d="M107.993 303.043C102.085 313.513 104.906 326.066 104.906 326.066C104.906 326.066 117.307 321.644 123.215 311.174C129.123 300.704 126.301 288.151 126.301 288.151C126.301 288.151 113.901 292.573 107.993 303.043Z" fill="#3F3D56"/>
<path fill-rule="evenodd" clip-rule="evenodd" d="M112.748 304.936C113.14 316.976 104.943 327.014 104.943 327.014C104.943 327.014 96.1107 317.531 95.7187 305.49C95.3267 293.45 103.523 283.412 103.523 283.412C103.523 283.412 112.356 292.895 112.748 304.936Z" fill="#4285F4"/>
<path fill-rule="evenodd" clip-rule="evenodd" d="M104.233 375.355C114.7 375.355 123.185 366.868 123.185 356.398C123.185 345.928 114.7 337.44 104.233 337.44C93.7666 337.44 85.2817 345.928 85.2817 356.398C85.2817 366.868 93.7666 375.355 104.233 375.355Z" fill="#F2F2F2"/>
<path fill-rule="evenodd" clip-rule="evenodd" d="M110.392 353.555C113.794 353.555 116.551 350.796 116.551 347.394C116.551 343.991 113.794 341.232 110.392 341.232C106.99 341.232 104.233 343.991 104.233 347.394C104.233 350.796 106.99 353.555 110.392 353.555Z" fill="#3F3D56"/>
<rect x="4.73779" y="396.209" width="190.462" height="0.947867" fill="#2F2E41"/>
<rect x="285.22" y="398.104" width="190.462" height="0.947867" fill="#2F2E41"/>
<path fill-rule="evenodd" clip-rule="evenodd" d="M48.3104 397.156L47.4046 396.69C59.1678 374.03 52.8776 344.602 45.5299 323.906C40.5405 309.995 34.1768 296.612 26.5322 283.955L27.3937 283.412C35.0779 296.134 41.4749 309.585 46.4904 323.567C53.9058 344.452 60.2403 374.174 48.3104 397.156Z" fill="#2F2E41"/>
<path fill-rule="evenodd" clip-rule="evenodd" d="M50.6893 319.766L57.2641 283.769L58.2608 283.951L51.686 319.948L50.6893 319.766Z" fill="#2F2E41"/>
<path fill-rule="evenodd" clip-rule="evenodd" d="M12.8045 315.129L13.5467 314.439L47.4988 350.941L46.7566 351.632L12.8045 315.129Z" fill="#2F2E41"/>
<path fill-rule="evenodd" clip-rule="evenodd" d="M57.363 378.369L74.5844 354.535L75.4059 355.129L58.1845 378.963L57.363 378.369Z" fill="#2F2E41"/>
<path fill-rule="evenodd" clip-rule="evenodd" d="M60.1706 273.933C63.049 273.933 65.3823 271.599 65.3823 268.72C65.3823 265.841 63.049 263.507 60.1706 263.507C57.2923 263.507 54.959 265.841 54.959 268.72C54.959 271.599 57.2923 273.933 60.1706 273.933Z" fill="#4285F4"/>
<path fill-rule="evenodd" clip-rule="evenodd" d="M5.21165 313.744C8.08997 313.744 10.4233 311.41 10.4233 308.531C10.4233 305.651 8.08997 303.317 5.21165 303.317C2.33334 303.317 0 305.651 0 308.531C0 311.41 2.33334 313.744 5.21165 313.744Z" fill="#3F3D56"/>
<path fill-rule="evenodd" clip-rule="evenodd" d="M27.0056 318.483C29.8839 318.483 32.2172 316.149 32.2172 313.27C32.2172 310.391 29.8839 308.057 27.0056 308.057C24.1273 308.057 21.7939 310.391 21.7939 313.27C21.7939 316.149 24.1273 318.483 27.0056 318.483Z" fill="#3F3D56"/>
<path fill-rule="evenodd" clip-rule="evenodd" d="M17.53 338.388C20.4083 338.388 22.7417 336.054 22.7417 333.175C22.7417 330.296 20.4083 327.962 17.53 327.962C14.6517 327.962 12.3184 330.296 12.3184 333.175C12.3184 336.054 14.6517 338.388 17.53 338.388Z" fill="#4285F4"/>
<path fill-rule="evenodd" clip-rule="evenodd" d="M81.0173 350.711C83.8956 350.711 86.229 348.377 86.229 345.497C86.229 342.618 83.8956 340.284 81.0173 340.284C78.139 340.284 75.8057 342.618 75.8057 345.497C75.8057 348.377 78.139 350.711 81.0173 350.711Z" fill="#3F3D56"/>
<path fill-rule="evenodd" clip-rule="evenodd" d="M63.9612 356.398C66.8395 356.398 69.1728 354.064 69.1728 351.185C69.1728 348.306 66.8395 345.972 63.9612 345.972C61.0828 345.972 58.7495 348.306 58.7495 351.185C58.7495 354.064 61.0828 356.398 63.9612 356.398Z" fill="#3F3D56"/>
<path fill-rule="evenodd" clip-rule="evenodd" d="M75.3323 372.512C78.2106 372.512 80.5439 370.177 80.5439 367.298C80.5439 364.419 78.2106 362.085 75.3323 362.085C72.4539 362.085 70.1206 364.419 70.1206 367.298C70.1206 370.177 72.4539 372.512 75.3323 372.512Z" fill="#3F3D56"/>
<path fill-rule="evenodd" clip-rule="evenodd" d="M22.2678 280.569C25.1461 280.569 27.4795 278.235 27.4795 275.356C27.4795 272.477 25.1461 270.143 22.2678 270.143C19.3895 270.143 17.0562 272.477 17.0562 275.356C17.0562 278.235 19.3895 280.569 22.2678 280.569Z" fill="#3F3D56"/>
<rect x="103.286" y="90.9951" width="244.474" height="146.919" fill="#3F3D56"/>
<path fill-rule="evenodd" clip-rule="evenodd" d="M113.235 98.5782C114.543 98.5782 115.604 97.5173 115.604 96.2085C115.604 94.8998 114.543 93.8389 113.235 93.8389C111.927 93.8389 110.866 94.8998 110.866 96.2085C110.866 97.5173 111.927 98.5782 113.235 98.5782Z" fill="#4285F4"/>
<path fill-rule="evenodd" clip-rule="evenodd" d="M122.711 98.5782C124.019 98.5782 125.08 97.5173 125.08 96.2085C125.08 94.8998 124.019 93.8389 122.711 93.8389C121.402 93.8389 120.342 94.8998 120.342 96.2085C120.342 97.5173 121.402 98.5782 122.711 98.5782Z" fill="#4285F4"/>
<path fill-rule="evenodd" clip-rule="evenodd" d="M131.239 98.5782C132.547 98.5782 133.608 97.5173 133.608 96.2085C133.608 94.8998 132.547 93.8389 131.239 93.8389C129.931 93.8389 128.87 94.8998 128.87 96.2085C128.87 97.5173 129.931 98.5782 131.239 98.5782Z" fill="#4285F4"/>
<rect x="103.286" y="102.37" width="244.474" height="0.947867" fill="#2F2E41"/>
<path fill-rule="evenodd" clip-rule="evenodd" d="M246.369 131.754V177.634H179.848L167.559 192.417L168.962 177.634H162.982V131.754H246.369Z" fill="#4285F4"/>
<rect opacity="0.1" x="216.046" y="147.867" width="30.3223" height="30.3318" fill="black"/>
<path fill-rule="evenodd" clip-rule="evenodd" d="M222.68 154.502H306.066V200.382H300.086L301.49 215.165L289.202 200.382H222.68V154.502Z" fill="#4285F4"/>
<path opacity="0.1" fill-rule="evenodd" clip-rule="evenodd" d="M168.194 200C178.399 200 186.672 199.152 186.672 198.105C186.672 197.058 178.399 196.209 168.194 196.209C157.989 196.209 149.716 197.058 149.716 198.105C149.716 199.152 157.989 200 168.194 200Z" fill="black"/>
<path opacity="0.1" fill-rule="evenodd" clip-rule="evenodd" d="M301.328 223.697C312.841 223.697 322.175 222.848 322.175 221.801C322.175 220.754 312.841 219.905 301.328 219.905C289.815 219.905 280.481 220.754 280.481 221.801C280.481 222.848 289.815 223.697 301.328 223.697Z" fill="black"/>
</svg>
