<svg width="130" height="101" viewBox="0 0 130 101" fill="none" xmlns="http://www.w3.org/2000/svg">
<path fill-rule="evenodd" clip-rule="evenodd" d="M22.0237 25.5957C1.29828 25.5957 3.59633 50.6209 3.69095 68.7558C3.69448 69.4408 4.05579 70.0581 4.64671 70.4118C6.94325 71.7864 13.2505 75.0005 22.0237 75.0005C30.7968 75.0005 37.1041 71.7864 39.4006 70.4118C39.9913 70.0581 40.3529 69.4408 40.3564 68.7558C40.451 50.6209 42.7491 25.5957 22.0237 25.5957Z" fill="#694B4B"/>
<path fill-rule="evenodd" clip-rule="evenodd" d="M20.7743 25.5957C1.4006 26.6698 3.59728 50.9994 3.69009 68.7493C3.69364 69.4349 4.0568 70.0531 4.65073 70.407C6.95899 71.7831 13.2985 75.0005 22.1164 75.0005L27.3808 38.5588" fill="#5A4146"/>
<path fill-rule="evenodd" clip-rule="evenodd" d="M22.085 25.5957C10.3395 25.5957 9.52393 39.7345 9.52393 39.7345C16.2939 38.5968 20.4539 41.4408 27.3054 38.5968L22.085 75.0005C30.8293 75.0005 37.1155 71.7864 39.4044 70.4118C39.9932 70.0581 40.3535 69.4408 40.357 68.7558C40.4513 50.6209 42.7418 25.5957 22.085 25.5957Z" fill="#694B4B"/>
<path fill-rule="evenodd" clip-rule="evenodd" d="M40.3579 69.1177C40.4394 53.5387 42.1385 32.888 29.4308 27.3809C29.2092 28.5205 28.8076 31.7021 29.8511 33.7671C32.4774 38.9665 35.104 38.9665 37.73 42.8657C40.3564 57.1633 32.712 72.3386 30.173 74.4047C34.6715 73.3457 37.8963 71.6699 39.3994 70.7732C39.9917 70.4198 40.3543 69.8024 40.3579 69.1177Z" fill="#785550"/>
<path fill-rule="evenodd" clip-rule="evenodd" d="M42.219 72.9933L30.5026 68.1049C29.5242 67.6967 28.8866 66.7393 28.8866 65.6774V62.5H15.7565V65.6774C15.7565 66.7393 15.1189 67.6967 14.1405 68.1049L2.42413 72.9933C0.956141 73.6059 0 75.0422 0 76.6346V81.8942C0 83.3464 1.17576 84.5238 2.62604 84.5238H42.0168C43.4671 84.5238 44.6429 83.3464 44.6429 81.8942V76.6346C44.6431 75.0422 43.687 73.6059 42.219 72.9933Z" fill="#E6AF78"/>
<path fill-rule="evenodd" clip-rule="evenodd" d="M42.219 73.1249L30.8908 68.4521L22.3214 72.1135L13.7521 68.4524L2.42413 73.1251C0.956141 73.7305 0 75.1504 0 76.7246V81.924C0 83.3597 1.17576 84.5236 2.62604 84.5236H42.0168C43.4671 84.5236 44.6429 83.3597 44.6429 81.924V76.7246C44.6431 75.1504 43.687 73.7305 42.219 73.1249Z" fill="#EFF2FA"/>
<path fill-rule="evenodd" clip-rule="evenodd" d="M28.5715 62.5H15.3694V65.6768C15.3694 66.7384 14.7284 67.6957 13.7446 68.1038L11.9048 68.8673C25.9845 72.442 28.5715 62.5 28.5715 62.5Z" fill="#D29B6E"/>
<path fill-rule="evenodd" clip-rule="evenodd" d="M6.37964 77.9724L1.12591 73.8408C0.421963 74.5525 0 75.515 0 76.5501V81.7265C0 83.1558 1.17206 84.3145 2.61779 84.3145H7.85361V81.0041C7.85336 79.8246 7.31134 78.7093 6.37964 77.9724Z" fill="#E4EAF6"/>
<path fill-rule="evenodd" clip-rule="evenodd" d="M44.503 81.7269V76.5505C44.503 75.5234 44.0881 74.5676 43.394 73.8574L38.1231 77.9728C37.1917 78.7094 36.6494 79.8248 36.6494 81.0042V84.3144H41.8852C43.331 84.3149 44.503 83.1562 44.503 81.7269Z" fill="#E4EAF6"/>
<path fill-rule="evenodd" clip-rule="evenodd" d="M22.4476 81.7267H22.0549C21.4405 81.7267 20.9424 81.2342 20.9424 80.6268V71.9629H23.5602V80.6265C23.5602 81.2342 23.062 81.7267 22.4476 81.7267Z" fill="#E4EAF6"/>
<path fill-rule="evenodd" clip-rule="evenodd" d="M22.2514 71.9601L14.76 66.4054C14.279 66.0488 13.594 66.1648 13.2605 66.6593L11.7803 68.8543L16.3732 75.2114C16.7223 75.6947 17.4103 75.7892 17.8794 75.4182L22.2514 71.9601Z" fill="#E4EAF6"/>
<path fill-rule="evenodd" clip-rule="evenodd" d="M22.2515 71.9601L29.7429 66.4054C30.2239 66.0488 30.9089 66.1648 31.2423 66.6593L32.7226 68.8543L28.1297 75.2114C27.7806 75.6947 27.0926 75.7892 26.6234 75.4182L22.2515 71.9601Z" fill="#E4EAF6"/>
<path fill-rule="evenodd" clip-rule="evenodd" d="M28.698 37.5C22.2256 43.9855 9.52393 38.7968 9.52393 49.1738L10.3276 56.8176C10.4828 58.5275 11.472 60.0497 12.9694 60.8836L20.3397 64.9865C21.5125 65.6394 22.9385 65.6394 24.1114 64.9865L31.4817 60.8836C32.9795 60.0497 33.9685 58.5273 34.1234 56.8176L35.0513 47.7393C35.1174 47.0939 35.1314 46.4448 35.1097 45.7974C34.6258 42.4956 29.9923 40.094 28.698 37.5Z" fill="#F0C087"/>
<path fill-rule="evenodd" clip-rule="evenodd" d="M9.52393 49.1813L10.3426 56.8296C10.5006 58.5405 11.5084 60.0636 13.0336 60.8979L20.5414 65.0033C21.3705 65.4567 22.3213 65.574 23.2264 65.3982C23.2264 65.3982 19.4412 64.269 17.1882 58.2664C16.4981 56.4277 15.54 46.6934 16.3642 45.5036C17.9934 43.1522 27.0778 42.9079 29.762 38.5454C29.6294 38.3836 29.5069 38.2213 29.3951 38.059C29.3862 38.046 29.3753 38.0327 29.3662 38.0195C29.2495 37.8469 29.1438 37.6738 29.0554 37.5C22.4626 43.9901 9.52393 38.7983 9.52393 49.1813Z" fill="#E6AF78"/>
<path fill-rule="evenodd" clip-rule="evenodd" d="M31.7361 82.1426H28.3829C27.1721 82.1426 26.1904 83.0487 26.1904 84.1664V84.5235H33.9285V84.1664C33.9285 83.0485 32.9469 82.1426 31.7361 82.1426Z" fill="#E4EAF6"/>
<path fill-rule="evenodd" clip-rule="evenodd" d="M111.309 66.7455V59.5234H92.8569V66.7455L102.083 74.9996L111.309 66.7455Z" fill="#E6AF78"/>
<path fill-rule="evenodd" clip-rule="evenodd" d="M125.989 70.6912L113.241 67.7572C113.049 67.7129 112.871 67.6377 112.706 67.5466L102.381 73.4384L92.4579 67.2617C92.2009 67.4983 91.8823 67.674 91.5203 67.7574L78.7723 70.6915C76.9106 71.1199 75.5952 72.7447 75.5952 74.6155V82.508C75.5952 83.621 76.5177 84.5236 77.6557 84.5236H127.106C128.244 84.5236 129.167 83.6213 129.167 82.508V74.6155C129.166 72.7444 127.85 71.1196 125.989 70.6912Z" fill="#EFF2FA"/>
<path fill-rule="evenodd" clip-rule="evenodd" d="M92.8569 60.1191V67.4907C104.48 71.5676 111.309 61.3639 111.309 61.3639V60.1191H92.8569Z" fill="#D29B6E"/>
<path fill-rule="evenodd" clip-rule="evenodd" d="M88.6904 36.3096L89.5884 55.8723C89.6724 57.7 90.5769 59.3946 92.0545 60.4922L96.3142 63.6566C97.3842 64.4515 98.6857 64.881 100.023 64.881H104.144C105.481 64.881 106.783 64.4512 107.852 63.6566L112.112 60.4922C113.59 59.3946 114.494 57.6997 114.578 55.8723L115.476 36.3096H88.6904Z" fill="#F0C087"/>
<path fill-rule="evenodd" clip-rule="evenodd" d="M98.9708 40.3911C103.083 40.3911 109.251 39.3709 110.714 36.3096H88.6904L89.5862 55.8723C89.67 57.7 90.5726 59.3946 92.0471 60.4922L96.2978 63.6566C97.3655 64.4515 98.6643 64.881 99.9986 64.881H102.055C99.9986 64.881 95.8865 60.7994 95.8865 55.6972C95.8865 53.2019 95.8865 46.5136 95.8865 43.4522C95.8865 42.432 96.9146 40.3911 98.9708 40.3911Z" fill="#E6AF78"/>
<path fill-rule="evenodd" clip-rule="evenodd" d="M121.398 77.9338L128.255 72.0234C128.83 72.7217 129.167 73.5999 129.167 74.5405V82.4926C129.167 83.614 128.219 84.5234 127.05 84.5234H119.643V81.7106C119.643 80.2698 120.281 78.8968 121.398 77.9338Z" fill="#E4EAF6"/>
<path fill-rule="evenodd" clip-rule="evenodd" d="M104.762 83.9286H99.4048L100.075 75H104.092L104.762 83.9286Z" fill="#5B5D6E"/>
<path fill-rule="evenodd" clip-rule="evenodd" d="M104.762 73.2139H99.4048V73.7869C99.4048 75.1143 100.567 76.1901 102 76.1901H102.166C103.6 76.1901 104.761 75.1141 104.761 73.7869V73.2139H104.762Z" fill="#515262"/>
<path fill-rule="evenodd" clip-rule="evenodd" d="M92.8479 64.647L102.116 72.9232C102.116 72.9232 99.5206 74.2231 96.3174 76.8436C95.6567 77.3842 94.6571 77.1651 94.3027 76.3917L89.9482 66.887L91.3259 64.837C91.669 64.3263 92.3885 64.2366 92.8479 64.647Z" fill="#E4EAF6"/>
<path fill-rule="evenodd" clip-rule="evenodd" d="M111.385 64.647L102.116 72.9232C102.116 72.9232 104.712 74.2231 107.915 76.8436C108.576 77.3842 109.575 77.1651 109.93 76.3917L114.284 66.887L112.907 64.837C112.564 64.3263 111.844 64.2366 111.385 64.647Z" fill="#E4EAF6"/>
<path fill-rule="evenodd" clip-rule="evenodd" d="M108.333 29.2105L109.293 36.0277C113.672 36.9084 114.303 43.8189 114.394 45.7928C114.411 46.1509 114.524 46.4972 114.717 46.7984L116.388 49.4046C116.388 49.4046 115.816 45.0956 118.435 42.2018C118.435 42.2018 119.334 25.0946 108.333 29.2105Z" fill="#785550"/>
<path fill-rule="evenodd" clip-rule="evenodd" d="M117.794 49.108L116.659 53.8134C116.524 54.3709 116.041 54.762 115.486 54.762C114.877 54.762 114.363 54.2918 114.287 53.6651L113.707 48.8524C113.552 47.5654 114.52 46.4287 115.771 46.4287H115.775C117.129 46.4285 118.122 47.747 117.794 49.108Z" fill="#F0C087"/>
<path fill-rule="evenodd" clip-rule="evenodd" d="M89.8907 27.6295L91.4156 28.6568C84.5213 33.6771 85.8097 42.2877 85.8097 42.2877C87.8717 44.3213 87.8717 49.4048 87.8717 49.4048L89.9337 47.3712C89.9337 47.3712 89.1379 41.4969 93.0267 39.2373C96.6349 37.1403 99.7922 38.2207 103.014 38.2207C111.648 38.2207 114.064 35.0115 113.645 31.1037C113.429 29.0813 110.294 24.8693 102.305 25.0031C99.0809 25.0571 93.0267 26.0199 89.8907 27.6295Z" fill="#694B4B"/>
<path fill-rule="evenodd" clip-rule="evenodd" d="M89.2581 37.2812C89.2581 37.2812 88.1724 33.006 91.3658 28.5713C84.5317 33.6123 85.8089 42.2583 85.8089 42.2583C87.8529 44.3002 87.8529 49.4046 87.8529 49.4046L89.8968 47.3627C89.8968 47.3627 89.108 41.4642 92.9625 39.1953C96.5392 37.0897 99.6689 38.1746 102.862 38.1746C104.254 38.1746 105.467 38.0813 106.548 37.9218C99.9565 38.1427 96.0711 33.1552 89.2581 37.2812Z" fill="#5A4146"/>
<path fill-rule="evenodd" clip-rule="evenodd" d="M86.9679 49.108L88.1031 53.8134C88.2377 54.3709 88.721 54.762 89.2756 54.762C89.8851 54.762 90.399 54.2918 90.4748 53.6651L91.0551 48.8524C91.2103 47.5654 90.242 46.4287 88.9905 46.4287H88.9863C87.6331 46.4285 86.6396 47.747 86.9679 49.108Z" fill="#E6AF78"/>
<path fill-rule="evenodd" clip-rule="evenodd" d="M114.551 82.7383H109.26C108.091 82.7383 107.143 83.5377 107.143 84.524H116.667C116.667 83.5377 115.72 82.7383 114.551 82.7383Z" fill="#E4EAF6"/>
<path fill-rule="evenodd" clip-rule="evenodd" d="M64.5835 0C29.4839 0 33.3759 42.8144 33.5362 73.8402C33.5423 75.0119 34.154 76.0685 35.1547 76.6734C39.0441 79.0252 49.7257 84.5238 64.5835 84.5238C79.4413 84.5238 90.1228 79.0252 94.0123 76.6734C95.0127 76.0683 95.6247 75.0119 95.6308 73.8402C95.7911 42.8142 99.6831 0 64.5835 0Z" fill="#694B4B"/>
<path fill-rule="evenodd" clip-rule="evenodd" d="M62.5785 0.595703C29.6432 2.42041 33.3774 43.7515 33.5357 73.9049C33.5418 75.0695 34.159 76.1198 35.1686 76.721C39.0928 79.0587 49.8698 84.5243 64.8604 84.5243L73.8097 22.6174" fill="#5A4146"/>
<path fill-rule="evenodd" clip-rule="evenodd" d="M64.3557 0C44.253 0 42.8569 24.1894 42.8569 24.1894C54.4439 22.2432 61.5636 27.1087 73.2903 22.2432L64.3557 84.5238C79.3216 84.5238 90.0809 79.0252 93.9987 76.6734C95.0063 76.0683 95.6229 75.0119 95.6289 73.8403C95.7905 42.8141 99.7107 0 64.3557 0Z" fill="#694B4B"/>
<path fill-rule="evenodd" clip-rule="evenodd" d="M95.6342 73.7031C95.7716 47.0807 98.633 11.7919 77.2306 2.38086C76.8574 4.32853 76.1815 9.76545 77.9384 13.2945C82.3619 22.1791 86.7852 22.1791 91.2084 28.8426C95.6317 53.2754 82.7565 79.208 78.4804 82.738C86.0569 80.9283 91.4882 78.0647 94.0197 76.5322C95.0178 75.9279 95.6282 74.873 95.6342 73.7031Z" fill="#785550"/>
<path fill-rule="evenodd" clip-rule="evenodd" d="M98.2765 80.6795L78.4368 72.4878C76.7797 71.8038 75.7003 70.1992 75.7003 68.4201V63.0957H53.4664V68.4201C53.4664 70.199 52.387 71.8036 50.73 72.4878L30.8903 80.6795C28.4049 81.7057 26.7856 84.1124 26.7856 86.7808V95.5938C26.7856 98.0273 28.7766 100 31.2323 100H97.9342C100.39 100 102.381 98.0275 102.381 95.5938V86.7808C102.381 84.1121 100.762 81.7057 98.2765 80.6795Z" fill="#E6AF78"/>
<path fill-rule="evenodd" clip-rule="evenodd" d="M98.2765 80.58L79.0941 72.6191L64.5834 78.8567L50.0727 72.6191L30.8903 80.58C28.4049 81.6114 26.7856 84.0305 26.7856 86.7126V95.5709C26.7856 98.0168 28.7766 100 31.2323 100H97.9342C100.39 100 102.381 98.017 102.381 95.5709V86.7126C102.381 84.0302 100.762 81.6114 98.2765 80.58Z" fill="#B4E1FA"/>
<path fill-rule="evenodd" clip-rule="evenodd" d="M75.5953 63.0957H53.4349V68.3904C53.4349 70.1594 52.3591 71.755 50.7075 72.4354L47.6191 73.7079C71.2528 79.6655 75.5953 63.0957 75.5953 63.0957Z" fill="#D29B6E"/>
<path fill-rule="evenodd" clip-rule="evenodd" d="M37.6296 88.9623L28.7363 81.8535C27.5448 83.0781 26.8306 84.7339 26.8306 86.5147V95.421C26.8306 97.8802 28.8146 99.874 31.2618 99.874H40.1245V94.1783C40.124 92.1491 39.2063 90.23 37.6296 88.9623Z" fill="#A0D2F0"/>
<path fill-rule="evenodd" clip-rule="evenodd" d="M102.163 95.4206V86.5143C102.163 84.7471 101.461 83.1026 100.286 81.8809L91.3638 88.9619C89.7871 90.2296 88.8691 92.1487 88.8691 94.1779V99.8736H97.7319C100.179 99.8739 102.163 97.88 102.163 95.4206Z" fill="#A0D2F0"/>
<path fill-rule="evenodd" clip-rule="evenodd" d="M64.4964 95.4206C63.2728 95.4206 62.2808 94.4237 62.2808 93.1941V78.6211H66.712V93.1943C66.712 94.4239 65.72 95.4206 64.4964 95.4206Z" fill="#A0D2F0"/>
<path fill-rule="evenodd" clip-rule="evenodd" d="M64.4964 78.6165L51.815 69.0586C51.0011 68.445 49.841 68.6447 49.2767 69.4954L46.771 73.2726L54.5458 84.2105C55.1367 85.0421 56.3015 85.2044 57.0954 84.5661L64.4964 78.6165Z" fill="#A0D2F0"/>
<path fill-rule="evenodd" clip-rule="evenodd" d="M64.4966 78.6165L77.178 69.0586C77.992 68.445 79.152 68.6447 79.7163 69.4954L82.222 73.2726L74.4473 84.2105C73.8563 85.0421 72.6915 85.2044 71.8976 84.5661L64.4966 78.6165Z" fill="#A0D2F0"/>
<path fill-rule="evenodd" clip-rule="evenodd" d="M75.8534 20.2383C64.7153 31.2775 42.8569 22.4461 42.8569 40.1089L44.2404 53.1196C44.507 56.0299 46.2096 58.6211 48.7869 60.04L61.4702 67.0238C63.4887 68.1352 65.9427 68.1352 67.9612 67.0238L80.6445 60.04C83.2218 58.6206 84.9242 56.0296 85.191 53.1196L86.7879 37.6673C86.9015 36.5692 86.9257 35.4643 86.8881 34.3619C86.0541 28.7418 78.0809 24.6539 75.8534 20.2383Z" fill="#F0C087"/>
<path fill-rule="evenodd" clip-rule="evenodd" d="M42.8569 40.121L44.2298 53.1397C44.4944 56.0517 46.1839 58.6445 48.7415 60.0643L61.3276 67.0523C62.7175 67.8239 64.3114 68.024 65.8285 67.7247C65.8285 67.7247 59.4827 65.803 55.7062 55.5855C54.5493 52.4553 52.9429 35.8868 54.3246 33.8617C57.0555 29.8589 72.2853 29.4432 76.7855 22.0177C76.563 21.742 76.3578 21.4661 76.1704 21.1893C76.1551 21.1671 76.137 21.1445 76.122 21.1222C75.9266 20.8288 75.7492 20.5343 75.6011 20.2383C64.5479 31.2842 42.8569 22.4474 42.8569 40.121Z" fill="#E6AF78"/>
<path fill-rule="evenodd" clip-rule="evenodd" d="M82.3415 95.833H73.6112C72.4059 95.833 71.4287 96.7658 71.4287 97.9163V99.9997H84.5239V97.9163C84.5239 96.7658 83.5467 95.833 82.3415 95.833Z" fill="#A0D2F0"/>
</svg>
