<svg width="187" height="28" viewBox="0 0 187 28" fill="none" xmlns="http://www.w3.org/2000/svg">
<rect y="1" width="40" height="25" fill="white"/>
<path d="M16.7492 20H13.673V7.20312H16.7492V20ZM32.8807 13.8652C32.8807 15.1133 32.6492 16.2178 32.1863 17.1787C31.7234 18.1396 31.0643 18.8809 30.2088 19.4023C29.3592 19.918 28.3895 20.1758 27.2996 20.1758C26.2098 20.1758 25.243 19.9268 24.3992 19.4287C23.5555 18.9248 22.8963 18.207 22.4217 17.2754C21.9529 16.3438 21.7068 15.2744 21.6834 14.0674V13.3467C21.6834 12.0928 21.9119 10.9883 22.3689 10.0332C22.8318 9.07227 23.491 8.33105 24.3465 7.80957C25.2078 7.28809 26.1863 7.02734 27.282 7.02734C28.366 7.02734 29.3328 7.28516 30.1824 7.80078C31.032 8.31641 31.6912 9.05176 32.16 10.0068C32.6346 10.9561 32.8748 12.0459 32.8807 13.2764V13.8652ZM29.743 13.3291C29.743 12.0576 29.5291 11.0938 29.1014 10.4375C28.6795 9.77539 28.073 9.44434 27.282 9.44434C25.7352 9.44434 24.9178 10.6045 24.8299 12.9248L24.8211 13.8652C24.8211 15.1191 25.0291 16.083 25.4451 16.7568C25.8611 17.4307 26.4793 17.7676 27.2996 17.7676C28.0789 17.7676 28.6795 17.4365 29.1014 16.7744C29.5232 16.1123 29.7371 15.1602 29.743 13.918V13.3291Z" fill="#12479E"/>
<path d="M58.0898 17.4648C58.0898 16.8633 57.875 16.3945 57.4453 16.0586C57.0234 15.7227 56.2773 15.375 55.207 15.0156C54.1367 14.6562 53.2617 14.3086 52.582 13.9727C50.3711 12.8867 49.2656 11.3945 49.2656 9.49609C49.2656 8.55078 49.5391 7.71875 50.0859 7C50.6406 6.27344 51.4219 5.71094 52.4297 5.3125C53.4375 4.90625 54.5703 4.70312 55.8281 4.70312C57.0547 4.70312 58.1523 4.92188 59.1211 5.35938C60.0977 5.79687 60.8555 6.42188 61.3945 7.23438C61.9336 8.03906 62.2031 8.96094 62.2031 10H58.1016C58.1016 9.30469 57.8867 8.76562 57.457 8.38281C57.0352 8 56.4609 7.80859 55.7344 7.80859C55 7.80859 54.418 7.97266 53.9883 8.30078C53.5664 8.62109 53.3555 9.03125 53.3555 9.53125C53.3555 9.96875 53.5898 10.3672 54.0586 10.7266C54.5273 11.0781 55.3516 11.4453 56.5312 11.8281C57.7109 12.2031 58.6797 12.6094 59.4375 13.0469C61.2812 14.1094 62.2031 15.5742 62.2031 17.4414C62.2031 18.9336 61.6406 20.1055 60.5156 20.957C59.3906 21.8086 57.8477 22.2344 55.8867 22.2344C54.5039 22.2344 53.25 21.9883 52.125 21.4961C51.0078 20.9961 50.1641 20.3164 49.5938 19.457C49.0312 18.5898 48.75 17.5938 48.75 16.4688H52.875C52.875 17.3828 53.1094 18.0586 53.5781 18.4961C54.0547 18.9258 54.8242 19.1406 55.8867 19.1406C56.5664 19.1406 57.1016 18.9961 57.4922 18.707C57.8906 18.4102 58.0898 17.9961 58.0898 17.4648ZM75.4345 14.7695H68.9658V18.8359H76.6064V22H64.8525V4.9375H76.6298V8.11328H68.9658V11.7109H75.4345V14.7695ZM92.6269 16.2227C92.5722 17.4102 92.2519 18.4609 91.6659 19.375C91.08 20.2812 90.2558 20.9844 89.1933 21.4844C88.1386 21.9844 86.9316 22.2344 85.5722 22.2344C83.33 22.2344 81.5644 21.5039 80.2753 20.043C78.9862 18.582 78.3417 16.5195 78.3417 13.8555V13.0117C78.3417 11.3398 78.6308 9.87891 79.2089 8.62891C79.7948 7.37109 80.6347 6.40234 81.7284 5.72266C82.8222 5.03516 84.0878 4.69141 85.5253 4.69141C87.5956 4.69141 89.2597 5.23828 90.5175 6.33203C91.7753 7.41797 92.4902 8.91797 92.662 10.832H88.5605C88.5292 9.79297 88.2675 9.04688 87.7753 8.59375C87.2831 8.14062 86.5331 7.91406 85.5253 7.91406C84.5019 7.91406 83.7519 8.29688 83.2753 9.0625C82.7987 9.82812 82.5487 11.0508 82.5253 12.7305V13.9375C82.5253 15.7578 82.7519 17.0586 83.205 17.8398C83.6659 18.6211 84.455 19.0117 85.5722 19.0117C86.5175 19.0117 87.2402 18.7891 87.7402 18.3438C88.2402 17.8984 88.5058 17.1914 88.537 16.2227H92.6269ZM108.495 4.9375V16.1055C108.495 17.3711 108.225 18.4688 107.686 19.3984C107.147 20.3203 106.374 21.0234 105.366 21.5078C104.358 21.9922 103.167 22.2344 101.792 22.2344C99.7137 22.2344 98.077 21.6953 96.8817 20.6172C95.6864 19.5391 95.077 18.0625 95.0536 16.1875V4.9375H99.1903V16.2695C99.2372 18.1367 100.104 19.0703 101.792 19.0703C102.643 19.0703 103.288 18.8359 103.725 18.3672C104.163 17.8984 104.382 17.1367 104.382 16.082V4.9375H108.495ZM117.953 15.9766H115.726V22H111.613V4.9375H118.328C120.351 4.9375 121.933 5.38672 123.074 6.28516C124.215 7.18359 124.785 8.45312 124.785 10.0938C124.785 11.2812 124.543 12.2656 124.058 13.0469C123.582 13.8281 122.832 14.4609 121.808 14.9453L125.371 21.8242V22H120.965L117.953 15.9766ZM115.726 12.8008H118.328C119.109 12.8008 119.695 12.5977 120.086 12.1914C120.484 11.7773 120.683 11.2031 120.683 10.4688C120.683 9.73438 120.484 9.16016 120.086 8.74609C119.687 8.32422 119.101 8.11328 118.328 8.11328H115.726V12.8008ZM132.192 22H128.091V4.9375H132.192V22ZM148.635 8.11328H143.513V22H139.4V8.11328H134.373V4.9375H148.635V8.11328ZM155.303 22H151.202V4.9375H155.303V22ZM169.285 14.7695H162.816V18.8359H170.457V22H158.703V4.9375H170.48V8.11328H162.816V11.7109H169.285V14.7695ZM181.473 17.4648C181.473 16.8633 181.258 16.3945 180.829 16.0586C180.407 15.7227 179.661 15.375 178.59 15.0156C177.52 14.6562 176.645 14.3086 175.965 13.9727C173.755 12.8867 172.649 11.3945 172.649 9.49609C172.649 8.55078 172.923 7.71875 173.469 7C174.024 6.27344 174.805 5.71094 175.813 5.3125C176.821 4.90625 177.954 4.70312 179.212 4.70312C180.438 4.70312 181.536 4.92188 182.505 5.35938C183.481 5.79687 184.239 6.42188 184.778 7.23438C185.317 8.03906 185.587 8.96094 185.587 10H181.485C181.485 9.30469 181.27 8.76562 180.84 8.38281C180.419 8 179.844 7.80859 179.118 7.80859C178.383 7.80859 177.801 7.97266 177.372 8.30078C176.95 8.62109 176.739 9.03125 176.739 9.53125C176.739 9.96875 176.973 10.3672 177.442 10.7266C177.911 11.0781 178.735 11.4453 179.915 11.8281C181.094 12.2031 182.063 12.6094 182.821 13.0469C184.665 14.1094 185.587 15.5742 185.587 17.4414C185.587 18.9336 185.024 20.1055 183.899 20.957C182.774 21.8086 181.231 22.2344 179.27 22.2344C177.887 22.2344 176.633 21.9883 175.508 21.4961C174.391 20.9961 173.548 20.3164 172.977 19.457C172.415 18.5898 172.133 17.5938 172.133 16.4688H176.258C176.258 17.3828 176.493 18.0586 176.962 18.4961C177.438 18.9258 178.208 19.1406 179.27 19.1406C179.95 19.1406 180.485 18.9961 180.876 18.707C181.274 18.4102 181.473 17.9961 181.473 17.4648Z" fill="white"/>
</svg>
