<svg width="84" height="100" viewBox="0 0 84 100" fill="none" xmlns="http://www.w3.org/2000/svg">
<path fill-rule="evenodd" clip-rule="evenodd" d="M61.3203 8.61523C60.3787 8.61523 59.6152 9.38377 59.6152 10.3316V29.2101H63.0251V10.3316C63.0253 9.38357 62.2618 8.61523 61.3203 8.61523Z" fill="#AFB9D2"/>
<path fill-rule="evenodd" clip-rule="evenodd" d="M68.1401 15.4805C67.1985 15.4805 66.4351 16.249 66.4351 17.1968V36.0754H69.8449V17.1968C69.8449 16.249 69.0816 15.4805 68.1401 15.4805Z" fill="#AFB9D2"/>
<path fill-rule="evenodd" clip-rule="evenodd" d="M55.8813 25.7666H78.0986C79.0424 25.7666 79.8077 26.5384 79.8077 27.4903V98.1592H55.8813V25.7666Z" fill="#C7CFE2"/>
<rect x="55.9346" y="91.0771" width="24.3302" height="6.91999" fill="#AFB9D2"/>
<rect x="54.1968" y="84.1572" width="26.0681" height="3.45999" fill="#AFB9D2"/>
<rect x="73.2461" y="84.7695" width="3.4076" height="3.42041" fill="#8F96AC"/>
<rect x="59.6152" y="84.7695" width="3.4076" height="3.42041" fill="#8F96AC"/>
<rect x="66.4307" y="84.7695" width="3.4076" height="3.42041" fill="#8F96AC"/>
<rect x="54.0405" y="77.3008" width="25.7669" height="3.68098" fill="#AFB9D2"/>
<rect x="73.2461" y="77.3496" width="3.4076" height="3.61043" fill="#8F96AC"/>
<rect x="59.6152" y="77.3496" width="3.4076" height="3.61043" fill="#8F96AC"/>
<rect x="66.4307" y="77.3496" width="3.4076" height="3.61043" fill="#8F96AC"/>
<rect x="54.0405" y="70.5518" width="25.7669" height="3.68098" fill="#AFB9D2"/>
<rect x="73.2461" y="70.7324" width="3.4076" height="3.42041" fill="#8F96AC"/>
<rect x="59.6152" y="70.7324" width="3.4076" height="3.42041" fill="#8F96AC"/>
<rect x="66.4307" y="70.7324" width="3.4076" height="3.42041" fill="#8F96AC"/>
<rect x="54.0405" y="63.8037" width="25.7669" height="3.68098" fill="#AFB9D2"/>
<rect x="73.2461" y="63.9238" width="3.4076" height="3.42041" fill="#8F96AC"/>
<rect x="59.6152" y="63.9238" width="3.4076" height="3.42041" fill="#8F96AC"/>
<rect x="66.4307" y="63.9238" width="3.4076" height="3.42041" fill="#8F96AC"/>
<rect x="54.0405" y="57.0557" width="25.7669" height="3.68098" fill="#AFB9D2"/>
<rect x="73.2461" y="57.1191" width="3.4076" height="3.61043" fill="#8F96AC"/>
<rect x="59.6152" y="57.1191" width="3.4076" height="3.61043" fill="#8F96AC"/>
<rect x="66.4307" y="57.1191" width="3.4076" height="3.61043" fill="#8F96AC"/>
<rect x="54.0405" y="49.6934" width="25.7669" height="3.68098" fill="#AFB9D2"/>
<rect x="73.2461" y="49.6934" width="3.4076" height="3.61043" fill="#8F96AC"/>
<rect x="59.6152" y="49.6934" width="3.4076" height="3.61043" fill="#8F96AC"/>
<rect x="66.4307" y="49.6934" width="3.4076" height="3.61043" fill="#8F96AC"/>
<rect x="54.0405" y="42.9443" width="25.7669" height="3.68098" fill="#AFB9D2"/>
<rect x="73.2461" y="43.0781" width="3.4076" height="3.42041" fill="#8F96AC"/>
<rect x="59.6152" y="43.0781" width="3.4076" height="3.42041" fill="#8F96AC"/>
<rect x="66.4307" y="43.0781" width="3.4076" height="3.42041" fill="#8F96AC"/>
<rect x="54.0405" y="36.1963" width="25.7669" height="3.68098" fill="#AFB9D2"/>
<rect x="73.2461" y="36.2695" width="3.4076" height="3.42041" fill="#8F96AC"/>
<rect x="59.6152" y="36.2695" width="3.4076" height="3.42041" fill="#8F96AC"/>
<rect x="66.4307" y="36.2695" width="3.4076" height="3.42041" fill="#8F96AC"/>
<rect x="54.0405" y="29.4482" width="25.7669" height="3.68098" fill="#AFB9D2"/>
<rect x="73.2461" y="29.4619" width="3.4076" height="3.61043" fill="#8F96AC"/>
<rect x="59.6152" y="29.4619" width="3.4076" height="3.61043" fill="#8F96AC"/>
<rect x="66.4307" y="29.4619" width="3.4076" height="3.61043" fill="#8F96AC"/>
<path fill-rule="evenodd" clip-rule="evenodd" d="M55.8814 98.1595H4.34766V1.72218C4.34766 0.771157 5.11688 0 6.06553 0H54.1635C55.1122 0 55.8814 0.771157 55.8814 1.72218V98.1595Z" fill="#AFB9D2"/>
<path fill-rule="evenodd" clip-rule="evenodd" d="M9.25553 80.9815C8.23917 80.9815 7.41504 80.2097 7.41504 79.2578V10.3126C7.41504 9.36071 8.23917 8.58887 9.25553 8.58887C10.2719 8.58887 11.096 9.36071 11.096 10.3126V79.2578C11.0958 80.2097 10.2719 80.9815 9.25553 80.9815Z" fill="#8F96AC"/>
<rect x="4.34766" y="84.6621" width="51.5337" height="13.4969" fill="#9FA7BF"/>
<path fill-rule="evenodd" clip-rule="evenodd" d="M11.096 96.3194V89.4483C11.096 88.4997 10.2719 87.7305 9.25553 87.7305C8.23917 87.7305 7.41504 88.4997 7.41504 89.4483V96.3194H11.096Z" fill="#707487"/>
<path fill-rule="evenodd" clip-rule="evenodd" d="M16.0041 80.9815C14.9877 80.9815 14.1636 80.2097 14.1636 79.2578V10.3126C14.1636 9.36071 14.9877 8.58887 16.0041 8.58887C17.0204 8.58887 17.8446 9.36071 17.8446 10.3126V79.2578C17.8446 80.2097 17.0204 80.9815 16.0041 80.9815Z" fill="#8F96AC"/>
<path fill-rule="evenodd" clip-rule="evenodd" d="M17.8446 96.3194V89.4483C17.8446 88.4997 17.0204 87.7305 16.0041 87.7305C14.9877 87.7305 14.1636 88.4997 14.1636 89.4483V96.3194H17.8446Z" fill="#707487"/>
<path fill-rule="evenodd" clip-rule="evenodd" d="M23.3659 80.9815C22.3495 80.9815 21.5254 80.2097 21.5254 79.2578V10.3126C21.5254 9.36071 22.3495 8.58887 23.3659 8.58887C24.3822 8.58887 25.2064 9.36071 25.2064 10.3126V79.2578C25.2062 80.2097 24.3822 80.9815 23.3659 80.9815Z" fill="#8F96AC"/>
<path fill-rule="evenodd" clip-rule="evenodd" d="M25.2064 96.3194V89.4483C25.2064 88.4997 24.3822 87.7305 23.3659 87.7305C22.3495 87.7305 21.5254 88.4997 21.5254 89.4483V96.3194H25.2064Z" fill="#707487"/>
<path fill-rule="evenodd" clip-rule="evenodd" d="M30.1144 80.9815C29.0981 80.9815 28.2739 80.2097 28.2739 79.2578V10.3126C28.2739 9.36071 29.0981 8.58887 30.1144 8.58887C31.1308 8.58887 31.9549 9.36071 31.9549 10.3126V79.2578C31.9547 80.2097 31.1308 80.9815 30.1144 80.9815Z" fill="#8F96AC"/>
<path fill-rule="evenodd" clip-rule="evenodd" d="M31.9549 96.3194V89.4483C31.9549 88.4997 31.1308 87.7305 30.1144 87.7305C29.0981 87.7305 28.2739 88.4997 28.2739 89.4483V96.3194H31.9549Z" fill="#707487"/>
<path fill-rule="evenodd" clip-rule="evenodd" d="M36.863 80.9815C35.8466 80.9815 35.0225 80.2097 35.0225 79.2578V10.3126C35.0225 9.36071 35.8466 8.58887 36.863 8.58887C37.8793 8.58887 38.7034 9.36071 38.7034 10.3126V79.2578C38.7034 80.2097 37.8793 80.9815 36.863 80.9815Z" fill="#8F96AC"/>
<path fill-rule="evenodd" clip-rule="evenodd" d="M38.7034 96.3194V89.4483C38.7034 88.4997 37.8793 87.7305 36.863 87.7305C35.8466 87.7305 35.0225 88.4997 35.0225 89.4483V96.3194H38.7034Z" fill="#707487"/>
<path fill-rule="evenodd" clip-rule="evenodd" d="M43.6115 80.9815C42.5951 80.9815 41.771 80.2097 41.771 79.2578V10.3126C41.771 9.36071 42.5951 8.58887 43.6115 8.58887C44.6278 8.58887 45.452 9.36071 45.452 10.3126V79.2578C45.4518 80.2097 44.6278 80.9815 43.6115 80.9815Z" fill="#8F96AC"/>
<path fill-rule="evenodd" clip-rule="evenodd" d="M45.452 96.3194V89.4483C45.452 88.4997 44.6278 87.7305 43.6114 87.7305C42.595 87.7305 41.771 88.4995 41.771 89.4481V96.3192H45.452V96.3194Z" fill="#707487"/>
<path fill-rule="evenodd" clip-rule="evenodd" d="M50.9733 80.9815C49.9569 80.9815 49.1328 80.2097 49.1328 79.2578V10.3126C49.1328 9.36071 49.9569 8.58887 50.9733 8.58887C51.9897 8.58887 52.8138 9.36071 52.8138 10.3126V79.2578C52.8138 80.2097 51.9897 80.9815 50.9733 80.9815Z" fill="#8F96AC"/>
<path fill-rule="evenodd" clip-rule="evenodd" d="M52.1938 96.8046V89.9165C52.1938 88.9655 51.4241 88.1943 50.4748 88.1943C49.5256 88.1943 48.7559 88.9655 48.7559 89.9165V96.8046H52.1938Z" fill="#707487"/>
<rect x="7.50244" y="74.418" width="3.43776" height="3.44405" fill="#707487"/>
<rect x="14.3779" y="74.418" width="3.43776" height="3.44405" fill="#707487"/>
<rect x="21.2534" y="74.418" width="3.43776" height="3.44405" fill="#707487"/>
<rect x="28.1289" y="74.418" width="3.43776" height="3.44405" fill="#707487"/>
<rect x="35.0049" y="74.418" width="3.43776" height="3.44405" fill="#707487"/>
<rect x="41.8804" y="74.418" width="3.43776" height="3.44405" fill="#707487"/>
<rect x="48.7559" y="74.418" width="3.43776" height="3.44405" fill="#707487"/>
<rect x="7.50244" y="64.0859" width="3.43776" height="3.44405" fill="#707487"/>
<rect x="14.3779" y="64.0859" width="3.43776" height="3.44405" fill="#707487"/>
<rect x="21.2534" y="64.0859" width="3.43776" height="3.44405" fill="#707487"/>
<rect x="28.1289" y="64.0859" width="3.43776" height="3.44405" fill="#707487"/>
<rect x="35.0049" y="64.0859" width="3.43776" height="3.44405" fill="#707487"/>
<rect x="41.8804" y="64.0859" width="3.43776" height="3.44405" fill="#707487"/>
<rect x="48.7559" y="64.0859" width="3.43776" height="3.44405" fill="#707487"/>
<rect x="7.50244" y="53.7529" width="3.43776" height="3.44405" fill="#707487"/>
<rect x="14.3779" y="53.7529" width="3.43776" height="3.44405" fill="#707487"/>
<rect x="21.2534" y="53.7529" width="3.43776" height="3.44405" fill="#707487"/>
<rect x="28.1289" y="53.7529" width="3.43776" height="3.44405" fill="#707487"/>
<rect x="35.0049" y="53.7529" width="3.43776" height="3.44405" fill="#707487"/>
<rect x="41.8804" y="53.7529" width="3.43776" height="3.44405" fill="#707487"/>
<rect x="48.7559" y="53.7529" width="3.43776" height="3.44405" fill="#707487"/>
<rect x="7.50244" y="43.4209" width="3.43776" height="3.44405" fill="#707487"/>
<rect x="14.3779" y="43.4209" width="3.43776" height="3.44405" fill="#707487"/>
<rect x="21.2534" y="43.4209" width="3.43776" height="3.44405" fill="#707487"/>
<rect x="28.1289" y="43.4209" width="3.43776" height="3.44405" fill="#707487"/>
<rect x="35.0049" y="43.4209" width="3.43776" height="3.44405" fill="#707487"/>
<rect x="41.8804" y="43.4209" width="3.43776" height="3.44405" fill="#707487"/>
<rect x="48.7559" y="43.4209" width="3.43776" height="3.44405" fill="#707487"/>
<rect x="7.50244" y="33.0889" width="3.43776" height="3.44405" fill="#707487"/>
<rect x="14.3779" y="33.0889" width="3.43776" height="3.44405" fill="#707487"/>
<rect x="21.2534" y="33.0889" width="3.43776" height="3.44405" fill="#707487"/>
<rect x="28.1289" y="33.0889" width="3.43776" height="3.44405" fill="#707487"/>
<rect x="35.0049" y="33.0889" width="3.43776" height="3.44405" fill="#707487"/>
<rect x="41.8804" y="33.0889" width="3.43776" height="3.44405" fill="#707487"/>
<rect x="48.7559" y="33.0889" width="3.43776" height="3.44405" fill="#707487"/>
<rect x="7.50244" y="22.7568" width="3.43776" height="3.44405" fill="#707487"/>
<rect x="14.3779" y="22.7568" width="3.43776" height="3.44405" fill="#707487"/>
<rect x="21.2534" y="22.7568" width="3.43776" height="3.44405" fill="#707487"/>
<rect x="28.1289" y="22.7568" width="3.43776" height="3.44405" fill="#707487"/>
<rect x="35.0049" y="22.7568" width="3.43776" height="3.44405" fill="#707487"/>
<rect x="41.8804" y="22.7568" width="3.43776" height="3.44405" fill="#707487"/>
<rect x="48.7559" y="22.7568" width="3.43776" height="3.44405" fill="#707487"/>
<rect x="7.50244" y="12.4238" width="3.43776" height="3.44405" fill="#707487"/>
<rect x="14.3779" y="12.4238" width="3.43776" height="3.44405" fill="#707487"/>
<rect x="21.2534" y="12.4238" width="3.43776" height="3.44405" fill="#707487"/>
<rect x="28.1289" y="12.4238" width="3.43776" height="3.44405" fill="#707487"/>
<rect x="35.0049" y="12.4238" width="3.43776" height="3.44405" fill="#707487"/>
<rect x="41.8804" y="12.4238" width="3.43776" height="3.44405" fill="#707487"/>
<rect x="48.7559" y="12.4238" width="3.43776" height="3.44405" fill="#707487"/>
<path fill-rule="evenodd" clip-rule="evenodd" d="M55.8723 5.17246H4.14209V1.72422C4.14209 0.77207 4.91425 0 5.86651 0H54.1479C55.1001 0 55.8723 0.77207 55.8723 1.72422V5.17246Z" fill="#8F96AC"/>
<path fill-rule="evenodd" clip-rule="evenodd" d="M81.7371 100H2.41778C1.46552 100 0.693359 99.2281 0.693359 98.276C0.693359 97.3238 1.46552 96.5518 2.41778 96.5518H81.7373C82.6896 96.5518 83.4617 97.3238 83.4617 98.276C83.4615 99.2281 82.6896 100 81.7371 100Z" fill="#8F96AC"/>
</svg>
