<svg width="87" height="102" viewBox="0 0 87 102" fill="none" xmlns="http://www.w3.org/2000/svg">
<path d="M52.8 26.4C60.0789 26.4 66 20.4789 66 13.2C66 5.92109 60.0789 0 52.8 0C47.5143 0 42.9569 3.12974 40.8509 7.62749L37.3162 6.32285C37.3581 6.05215 37.4 5.78145 37.4 5.5C37.4 2.46748 34.9325 0 31.9 0C28.8675 0 26.4 2.46748 26.4 5.5C26.4 8.53252 28.8675 11 31.9 11C33.8701 11 35.5883 9.94941 36.5594 8.38857L40.0882 9.69106C39.7783 10.8109 39.6 11.9834 39.6 13.2C39.6 14.6411 39.8396 16.0247 40.2687 17.3239L28.1709 22.4512C25.9558 18.2633 21.559 15.4 16.5 15.4C14.8607 15.4 13.2967 15.7147 11.847 16.2626L8.8043 9.86831C10.1299 8.86284 11 7.2875 11 5.5C11 2.46748 8.53252 0 5.5 0C2.46748 0 0 2.46748 0 5.5C0 8.53252 2.46748 11 5.5 11C5.95762 11 6.39644 10.9275 6.82236 10.8206L9.86133 17.2084C5.94419 19.5008 3.3 23.7424 3.3 28.6C3.3 33.1627 5.62783 37.19 9.15664 39.5613L7.14463 43.1782C6.62095 43.0133 6.07632 42.9 5.5 42.9C2.46748 42.9 0 45.3675 0 48.4C0 51.4325 2.46748 53.9 5.5 53.9C8.53252 53.9 11 51.4325 11 48.4C11 46.7344 10.24 45.2574 9.06748 44.2487L11.0838 40.6243C12.7381 41.373 14.5686 41.8 16.5 41.8C19.5186 41.8 22.2949 40.7704 24.5212 39.0586L28.8508 43.8217C26.6551 46.1801 25.3 49.3308 25.3 52.8C25.3 53.473 25.3671 54.1288 25.4638 54.7744L20.3699 55.9834C19.4933 54.1089 17.6021 52.8 15.4 52.8C12.3675 52.8 9.9 55.2675 9.9 58.3C9.9 61.3325 12.3675 63.8 15.4 63.8C18.4325 63.8 20.9 61.3325 20.9 58.3C20.9 58.2393 20.8833 58.1824 20.8823 58.1217L25.9666 56.9164C27.7003 62.1838 32.6589 66 38.5 66C45.7789 66 51.7 60.0789 51.7 52.8C51.7 50.5431 51.1291 48.4177 50.1257 46.5588L56.5872 42.3575C57.5862 43.3694 58.9698 44 60.5 44C63.5325 44 66 41.5325 66 38.5C66 35.4675 63.5325 33 60.5 33C57.4675 33 55 35.4675 55 38.5C55 39.2106 55.1461 39.8857 55.3926 40.5099L48.9162 44.7203C47.6201 43.0542 45.9374 41.7087 44 40.8155L49.3689 25.9316C50.4646 26.2271 51.6119 26.4 52.8 26.4V26.4ZM31.9 8.8C30.0808 8.8 28.6 7.31919 28.6 5.5C28.6 3.68081 30.0808 2.2 31.9 2.2C33.7192 2.2 35.2 3.68081 35.2 5.5C35.2 7.31919 33.7192 8.8 31.9 8.8ZM2.2 5.5C2.2 3.68081 3.68081 2.2 5.5 2.2C7.31919 2.2 8.8 3.68081 8.8 5.5C8.8 7.31919 7.31919 8.8 5.5 8.8C3.68081 8.8 2.2 7.31919 2.2 5.5ZM5.5 51.7C3.68081 51.7 2.2 50.2192 2.2 48.4C2.2 46.5808 3.68081 45.1 5.5 45.1C7.31919 45.1 8.8 46.5808 8.8 48.4C8.8 50.2192 7.31919 51.7 5.5 51.7ZM15.4 61.6C13.5808 61.6 12.1 60.1192 12.1 58.3C12.1 56.4808 13.5808 55 15.4 55C17.2192 55 18.7 56.4808 18.7 58.3C18.7 60.1192 17.2192 61.6 15.4 61.6ZM60.5 35.2C62.3192 35.2 63.8 36.6808 63.8 38.5C63.8 40.3192 62.3192 41.8 60.5 41.8C58.6808 41.8 57.2 40.3192 57.2 38.5C57.2 36.6808 58.6808 35.2 60.5 35.2ZM46.3219 22.0704C46.8128 19.5261 49.0558 17.6 51.7 17.6H53.9C56.5442 17.6 58.7872 19.5261 59.2781 22.0704C57.4584 23.4024 55.2234 24.2 52.8 24.2C50.3766 24.2 48.1417 23.4024 46.3219 22.0704ZM52.8 15.4C50.9808 15.4 49.5 13.9192 49.5 12.1C49.5 10.2808 50.9808 8.8 52.8 8.8C54.6192 8.8 56.1 10.2808 56.1 12.1C56.1 13.9192 54.6192 15.4 52.8 15.4ZM52.8 2.2C58.8656 2.2 63.8 7.13442 63.8 13.2C63.8 15.95 62.7779 18.4626 61.1026 20.393C60.3319 18.3632 58.7249 16.7433 56.7225 15.9436C57.6963 14.951 58.3 13.5958 58.3 12.1C58.3 9.06748 55.8325 6.6 52.8 6.6C49.7675 6.6 47.3 9.06748 47.3 12.1C47.3 13.5958 47.9037 14.951 48.8775 15.9436C46.8751 16.7433 45.2681 18.3632 44.4974 20.393C42.8221 18.4626 41.8 15.95 41.8 13.2C41.8 7.13442 46.7344 2.2 52.8 2.2V2.2ZM5.5 28.6C5.5 22.5344 10.4344 17.6 16.5 17.6C22.5656 17.6 27.5 22.5344 27.5 28.6C27.5 31.3586 26.4714 33.8776 24.7876 35.8107C24.0195 33.7734 22.4093 32.1455 20.4016 31.3436C21.3743 30.351 21.978 28.9959 21.978 27.5C21.978 24.4675 19.5105 22 16.478 22C13.4455 22 10.978 24.4675 10.978 27.5C10.978 28.9959 11.5817 30.351 12.5555 31.3436C10.559 32.1396 8.95415 33.7536 8.18071 35.7752C6.51514 33.847 5.5 31.3425 5.5 28.6V28.6ZM13.178 27.5C13.178 25.6808 14.6588 24.2 16.478 24.2C18.2972 24.2 19.778 25.6808 19.778 27.5C19.778 29.3192 18.2972 30.8 16.478 30.8C14.6588 30.8 13.178 29.3192 13.178 27.5ZM10.0037 37.4559C10.4994 34.9186 12.7392 33 15.378 33H17.578C20.227 33 22.4743 34.9325 22.9582 37.4849C21.1422 38.8088 18.9143 39.6 16.5 39.6C14.068 39.6 11.8261 38.797 10.0037 37.4559ZM32.0037 61.6559C32.4994 59.1186 34.7392 57.2 37.378 57.2H39.578C42.227 57.2 44.4743 59.1325 44.9582 61.6849C43.1422 63.0088 40.9143 63.8 38.5 63.8C36.068 63.8 33.8261 62.997 32.0037 61.6559ZM38.478 55C36.6588 55 35.178 53.5192 35.178 51.7C35.178 49.8808 36.6588 48.4 38.478 48.4C40.2972 48.4 41.778 49.8808 41.778 51.7C41.778 53.5192 40.2972 55 38.478 55ZM49.5 52.8C49.5 55.5586 48.4714 58.0776 46.7876 60.0107C46.0195 57.9734 44.4093 56.3455 42.4016 55.5436C43.3743 54.551 43.978 53.1959 43.978 51.7C43.978 48.6675 41.5105 46.2 38.478 46.2C35.4455 46.2 32.978 48.6675 32.978 51.7C32.978 53.1959 33.5817 54.551 34.5555 55.5436C32.559 56.3396 30.9542 57.9536 30.1807 59.9752C28.5151 58.047 27.5 55.5425 27.5 52.8C27.5 46.7344 32.4344 41.8 38.5 41.8C44.5656 41.8 49.5 46.7344 49.5 52.8ZM41.9311 40.0684C40.8354 39.773 39.6881 39.6 38.5 39.6C35.4814 39.6 32.7051 40.6296 30.4788 42.3414L26.1492 37.5783C28.3449 35.2199 29.7 32.0692 29.7 28.6C29.7 27.1589 29.4604 25.7753 29.0313 24.4761L41.1292 19.3488C42.4843 21.9108 44.659 23.9669 47.3011 25.1845L41.9311 40.0684Z" fill="#173653"/>
<rect width="39.4985" height="60" transform="translate(47 42)" fill="#F7F8F9"/>
<path fill-rule="evenodd" clip-rule="evenodd" d="M86.4967 53.7366C86.4962 53.7238 86.4958 53.711 86.4949 53.6981C86.4912 53.6473 86.4862 53.5974 86.4761 53.548C86.4761 53.548 86.4761 53.548 86.4761 53.5475C86.466 53.4981 86.4518 53.4491 86.4358 53.4015C86.4317 53.3896 86.4276 53.3777 86.423 53.3658C86.4061 53.3205 86.3868 53.2761 86.3649 53.233C86.3635 53.2308 86.3626 53.2285 86.3612 53.2262C86.3374 53.1813 86.3099 53.1387 86.2802 53.0971C86.2729 53.0866 86.2651 53.0765 86.2573 53.066C86.2257 53.0248 86.1927 52.9849 86.1557 52.9479L75.5511 42.3433C75.5141 42.3062 75.4742 42.2733 75.433 42.2417C75.4225 42.2339 75.412 42.2257 75.4014 42.2184C75.3598 42.1886 75.3177 42.1611 75.2733 42.1378C75.2701 42.136 75.2669 42.135 75.2641 42.1332C75.222 42.1112 75.1781 42.0925 75.1337 42.0755C75.1213 42.071 75.1094 42.0668 75.0966 42.0627C75.049 42.0467 75.0009 42.0325 74.951 42.0224C74.9505 42.0224 74.9501 42.0224 74.9501 42.0224C74.9011 42.0128 74.8512 42.0073 74.8009 42.0037C74.788 42.0032 74.7752 42.0023 74.7624 42.0018C74.7491 42.0014 74.7359 42 74.7226 42H48.1719C47.5246 42 47 42.5246 47 43.1719V93.3308C47 93.9781 47.5246 94.5027 48.1719 94.5027H65.815V100.828C65.815 101.254 66.0466 101.647 66.4197 101.853C66.7932 102.06 67.2487 102.048 67.6099 101.821L72.073 99.0208L76.5362 101.821C76.7262 101.94 76.9427 102 77.1593 102C77.3543 102 77.5497 101.951 77.7264 101.854C78.0995 101.647 78.3311 101.255 78.3311 100.828V94.5027H85.3267C85.9739 94.5027 86.4985 93.9781 86.4985 93.3308V53.7764C86.4985 53.7631 86.4972 53.7499 86.4967 53.7366V53.7366ZM75.8945 46.0013L82.4977 52.6045H75.8945V46.0013ZM65.2368 78.1958C65.1544 77.9719 65.0203 77.6062 65.0171 77.4565C65.1086 77.343 65.4263 77.142 65.6209 77.0193C66.0384 76.7557 66.5117 76.4563 66.855 75.9884C67.2015 75.5156 67.3425 74.9695 67.467 74.4879C67.5215 74.2773 67.6094 73.9372 67.6845 73.8086C67.7257 73.7999 67.8122 73.7875 67.9747 73.7875C68.1052 73.7875 68.2512 73.7948 68.4059 73.8026C68.5835 73.8113 68.7666 73.8205 68.958 73.8205C69.38 73.8205 69.7206 73.7729 70.0296 73.6699C70.5693 73.4904 71.001 73.143 71.3818 72.8363C71.5924 72.6669 71.9449 72.3831 72.0676 72.3657C72.2017 72.3831 72.5537 72.6669 72.7643 72.8363C73.1451 73.143 73.5773 73.4904 74.117 73.6699C74.4259 73.7729 74.7661 73.8205 75.1886 73.8205C75.3795 73.8205 75.563 73.8113 75.7402 73.8026C75.8949 73.7948 76.0409 73.7875 76.1719 73.7875C76.3344 73.7875 76.4204 73.7994 76.4621 73.8086C76.5372 73.9372 76.625 74.2773 76.6791 74.4879C76.8036 74.9695 76.945 75.5156 77.2915 75.9884C77.6344 76.4563 78.1077 76.7552 78.5257 77.0193C78.7198 77.1425 79.0375 77.343 79.129 77.4565C79.1258 77.6062 78.9917 77.9719 78.9097 78.1958C78.7353 78.6705 78.538 79.2088 78.538 79.8053C78.538 80.4017 78.7353 80.9401 78.9093 81.4152C78.9917 81.6391 79.1258 82.0048 79.129 82.1545C79.0375 82.268 78.7198 82.4685 78.5257 82.5917C78.1077 82.8553 77.6344 83.1547 77.2915 83.6226C76.945 84.0954 76.8036 84.6415 76.6791 85.1231C76.625 85.3332 76.5367 85.6738 76.4621 85.8024C76.4204 85.8111 76.3344 85.8235 76.1719 85.8235C76.0409 85.8235 75.8949 85.8162 75.7402 85.8084C75.563 85.7997 75.3795 85.7905 75.1886 85.7905C74.7661 85.7905 74.4259 85.8381 74.117 85.9411C73.5773 86.1206 73.1451 86.4685 72.7643 86.7747C72.5569 86.9423 72.2108 87.2201 72.073 87.2448C71.9353 87.2201 71.5897 86.9423 71.3823 86.7747C71.001 86.4685 70.5693 86.1206 70.0296 85.9411C69.7206 85.8381 69.38 85.7905 68.958 85.7905C68.7671 85.7905 68.5835 85.7997 68.4059 85.8084C68.2516 85.8162 68.1056 85.8235 67.9747 85.8235C67.8122 85.8235 67.7261 85.8111 67.6845 85.8024C67.6094 85.6738 67.5215 85.3337 67.467 85.1231C67.343 84.6415 67.2015 84.0954 66.855 83.6226C66.5121 83.1547 66.0388 82.8553 65.6209 82.5917C65.4268 82.469 65.1091 82.268 65.0175 82.1545C65.0208 82.0053 65.1549 81.6391 65.2368 81.4152C65.4112 80.9405 65.6085 80.4022 65.6085 79.8057C65.6085 79.2088 65.4108 78.6705 65.2368 78.1958V78.1958ZM75.9874 98.7095L72.6961 96.6445C72.3152 96.406 71.8309 96.406 71.45 96.6445L68.1587 98.7095V88.1636C68.2832 88.1599 68.4055 88.1553 68.524 88.1494C68.6792 88.1411 68.8257 88.1338 68.958 88.1338C69.1658 88.1338 69.2546 88.153 69.2889 88.1645C69.4286 88.2112 69.6968 88.4272 69.9124 88.6007C70.4594 89.0411 71.1401 89.589 72.073 89.589C73.006 89.589 73.6867 89.0411 74.2337 88.6007C74.4493 88.4272 74.7175 88.2112 74.8567 88.1649C74.8915 88.1535 74.9803 88.1343 75.1881 88.1343C75.3204 88.1343 75.4669 88.1416 75.6221 88.1494C75.7406 88.1553 75.8629 88.1604 75.9869 88.1636V98.7095H75.9874ZM78.3311 92.1589V87.2192C78.6795 86.7459 78.8251 86.1856 78.9482 85.7095C79.0127 85.4596 79.1011 85.1176 79.1816 85.0082C79.2618 84.8983 79.5598 84.7102 79.7772 84.5729C80.354 84.2085 81.0718 83.7548 81.3569 82.897C81.6389 82.0506 81.3455 81.2509 81.1097 80.6082C81.0026 80.3166 80.8813 79.9856 80.8813 79.8053C80.8813 79.6249 81.0026 79.2944 81.1097 79.0028C81.3455 78.3601 81.6389 77.5599 81.3569 76.7135C81.0718 75.8561 80.354 75.4025 79.7772 75.0381C79.5598 74.9008 79.2618 74.7122 79.1816 74.6033C79.1011 74.4934 79.0127 74.1514 78.9482 73.9015C78.7797 73.2492 78.5701 72.4371 77.8523 71.9107C77.281 71.4923 76.6195 71.4438 76.1714 71.4438C75.9819 71.4438 75.7988 71.4529 75.6221 71.4621C75.4669 71.4699 75.3204 71.4772 75.1886 71.4772C74.9803 71.4772 74.8915 71.458 74.8572 71.4465C74.718 71.4003 74.4498 71.1842 74.2341 71.0103C73.6867 70.5704 73.006 70.0224 72.073 70.0224C71.1406 70.0224 70.4594 70.5704 69.9124 71.0103C69.6968 71.1838 69.4286 71.4003 69.2894 71.4465C69.2551 71.458 69.1658 71.4772 68.958 71.4772C68.8261 71.4772 68.6792 71.4699 68.524 71.4616C68.3473 71.4529 68.1647 71.4438 67.9747 71.4438C67.527 71.4438 66.8655 71.4923 66.2947 71.9107C65.5765 72.4371 65.3664 73.2492 65.1979 73.9015C65.1334 74.1514 65.045 74.4934 64.9649 74.6028C64.8843 74.7122 64.5863 74.9008 64.3689 75.0381C63.7921 75.4025 63.0748 75.8561 62.7892 76.7135C62.5072 77.5604 62.8006 78.3601 63.0364 79.0028C63.1435 79.2944 63.2648 79.6249 63.2648 79.8053C63.2648 79.9856 63.1435 80.3166 63.0364 80.6082C62.8006 81.2509 62.5072 82.0506 62.7892 82.8975C63.0748 83.7548 63.7926 84.2085 64.3689 84.5729C64.5868 84.7102 64.8843 84.8988 64.9649 85.0082C65.045 85.1176 65.1334 85.4596 65.1979 85.7095C65.321 86.1856 65.4671 86.7463 65.8154 87.2192V92.1589H49.3437V44.3437H73.5507V53.7764C73.5507 54.4237 74.0753 54.9483 74.7226 54.9483H84.1548V92.1589H78.3311Z" fill="#173653"/>
<path fill-rule="evenodd" clip-rule="evenodd" d="M53.8981 54.9482H68.996C69.6429 54.9482 70.1679 54.4236 70.1679 53.7764C70.1679 53.1291 69.6429 52.6045 68.996 52.6045H53.8981C53.2508 52.6045 52.7262 53.1291 52.7262 53.7764C52.7262 54.4236 53.2513 54.9482 53.8981 54.9482Z" fill="#173653"/>
<path fill-rule="evenodd" clip-rule="evenodd" d="M79.7315 58.5195H53.8981C53.2508 58.5195 52.7262 59.0441 52.7262 59.6914C52.7262 60.3387 53.2508 60.8633 53.8981 60.8633H79.7315C80.3788 60.8633 80.9034 60.3387 80.9034 59.6914C80.9034 59.0441 80.3788 58.5195 79.7315 58.5195Z" fill="#173653"/>
<path fill-rule="evenodd" clip-rule="evenodd" d="M75.044 64.4355H53.8981C53.2508 64.4355 52.7262 64.9606 52.7262 65.6074C52.7262 66.2547 53.2508 66.7793 53.8981 66.7793H75.044C75.6913 66.7793 76.2159 66.2547 76.2159 65.6074C76.2159 64.9606 75.6913 64.4355 75.044 64.4355Z" fill="#173653"/>
<path fill-rule="evenodd" clip-rule="evenodd" d="M79.7316 64.4355C79.0861 64.4355 78.5597 64.962 78.5597 65.6074C78.5597 66.2529 79.0861 66.7793 79.7316 66.7793C80.3775 66.7793 80.9034 66.2529 80.9034 65.6074C80.9034 64.962 80.3775 64.4355 79.7316 64.4355Z" fill="#173653"/>
</svg>
