<svg width="531" height="370" viewBox="0 0 531 370" fill="none" xmlns="http://www.w3.org/2000/svg">
<path opacity="0.1" fill-rule="evenodd" clip-rule="evenodd" d="M530 264.056C529.169 270.42 527.797 276.701 525.898 282.831C524.077 288.725 521.744 294.448 518.925 299.936C518.925 338.081 488.36 369 450.65 369H102.422C79.9082 369.001 58.2889 360.189 42.1928 344.452C42.3408 344.41 42.4934 344.368 42.6552 344.336C74.7743 335.82 108.664 332.88 136.525 312.654C98.5608 306.357 60.8187 298.543 23.2987 289.21C20.9866 288.628 18.3601 287.754 15.6643 286.839C15.5394 284.916 15.47 282.979 15.47 281.028C15.299 280.718 15.1325 280.408 14.966 280.103C14.2323 278.738 13.5264 277.351 12.8482 275.942C5.94437 261.611 2 245.009 2 227.294C2 199.357 11.817 174.128 27.5482 156.334C133.38 165.086 239.846 161.378 345.997 157.643C314.96 151.478 283.926 145.305 252.895 139.123C202.286 129.06 151.676 118.991 101.067 108.915C133.366 63.295 190.368 33 255.3 33C300.995 33 342.76 48.0019 374.759 72.7908C386.523 64.9731 400.067 60.5119 414.48 60.5119C444.491 60.5119 470.723 79.8039 484.97 108.592C492.175 123.154 496.309 140.14 496.309 158.281C496.309 161.517 496.175 164.753 495.911 167.938C495.911 168.128 495.883 168.313 495.865 168.507C505.76 176.736 514.061 187.508 520.1 200.031C520.174 200.184 520.248 200.337 520.317 200.494C521.374 202.704 522.358 204.963 523.267 207.271H523.179C519.295 208.131 515.416 209.008 511.541 209.902C469.772 219.549 428.391 231.239 387.397 244.972C375.646 248.911 363.931 253.013 352.254 257.279C342.395 260.885 329.716 269.054 319.496 269.761C389.367 265.073 459.797 271.906 529.343 264.121L530 264.056Z" fill="#4285F4"/>
<path opacity="0.1" fill-rule="evenodd" clip-rule="evenodd" d="M530 247.797C530 214.541 516.1 185.164 494.857 167.502C495.15 164.143 495.304 160.735 495.32 157.28C495.32 103.279 458.679 59.5091 413.474 59.5091C399.056 59.5091 385.512 63.9661 373.749 71.7842C341.751 46.9936 299.982 32 254.287 32C179.96 32 115.981 71.7149 87.6084 128.689C86.0316 128.583 84.4455 128.522 82.8456 128.522C37.6502 128.522 1 172.297 1 226.293C1 246.146 5.95698 264.612 14.4652 280.031C14.4652 328.613 53.3951 368 101.397 368H449.653C487.357 368 517.922 337.079 517.922 298.931C525.579 284.053 530 266.544 530 247.797Z" fill="#4285F4"/>
<path fill-rule="evenodd" clip-rule="evenodd" d="M184.285 251.082C184.427 252.956 184.955 255.182 186.732 255.829C187.591 256.071 188.503 256.056 189.353 255.787C191.592 255.306 193.625 254.149 195.176 252.474C196.661 250.758 197.401 248.336 196.779 246.166C196.18 244.094 194.502 242.543 193.318 240.744C191.932 238.64 191.489 236.254 190.527 234C182.895 234.726 183.856 245.454 184.285 251.082Z" fill="#FBBEBE"/>
<path fill-rule="evenodd" clip-rule="evenodd" d="M178.23 162C177.237 165.227 180.759 168.744 181.895 171.915C183.03 175.087 184.558 178.134 185.168 181.458C185.592 183.739 185.569 186.067 185.731 188.372C186.04 192.728 187.005 197.006 188.039 201.242C189.498 207.364 191.061 213.458 192.729 219.524C193.559 222.283 194.211 225.091 194.682 227.932C195.117 231.005 195.106 234.124 194.65 237.193C191.719 236.316 188.563 236.606 185.842 238C183.939 234.665 182.796 230.952 182.495 227.126C182.379 224.857 182.399 222.583 182.555 220.317C182.85 213.905 180.067 207.484 179.974 201.063C180.003 198.838 179.827 196.616 179.448 194.425C179.148 192.917 179.176 190.096 178.848 188.598C178.322 186.21 180.57 185.108 180.445 182.661L179.762 169.293C179.624 166.969 177.269 164.102 178.23 162Z" fill="#3F3D56"/>
<path opacity="0.1" fill-rule="evenodd" clip-rule="evenodd" d="M178.23 162C177.237 165.227 180.759 168.744 181.895 171.915C183.03 175.087 184.558 178.134 185.168 181.458C185.592 183.739 185.569 186.067 185.731 188.372C186.04 192.728 187.005 197.006 188.039 201.242C189.498 207.364 191.061 213.458 192.729 219.524C193.559 222.283 194.211 225.091 194.682 227.932C195.117 231.005 195.106 234.124 194.65 237.193C191.719 236.316 188.563 236.606 185.842 238C183.939 234.665 182.796 230.952 182.495 227.126C182.379 224.857 182.399 222.583 182.555 220.317C182.85 213.905 180.067 207.484 179.974 201.063C180.003 198.838 179.827 196.616 179.448 194.425C179.148 192.917 179.176 190.096 178.848 188.598C178.322 186.21 180.57 185.108 180.445 182.661L179.762 169.293C179.624 166.969 177.269 164.102 178.23 162Z" fill="black"/>
<path fill-rule="evenodd" clip-rule="evenodd" d="M143.031 150.601C143.216 151.396 143.59 152.137 144.123 152.761C148.929 159.371 154.404 165.482 160.465 171C161.085 170.37 161.604 169.651 162.003 168.867C164.755 163.91 166.13 158.325 165.99 152.677C163.247 151.807 160.133 150.591 159.255 147.888C158.557 145.756 159.492 143.212 158.268 141.313C156.526 138.633 149.131 138.292 146.757 140.237C145.201 141.509 145.756 142.697 145.262 144.418C144.716 146.308 142.728 148.59 143.031 150.601Z" fill="#FBBEBE"/>
<path opacity="0.1" fill-rule="evenodd" clip-rule="evenodd" d="M143.031 150.601C143.216 151.396 143.59 152.137 144.123 152.761C148.929 159.371 154.404 165.482 160.465 171C161.085 170.37 161.604 169.651 162.003 168.867C164.755 163.91 166.13 158.325 165.99 152.677C163.247 151.807 160.133 150.591 159.255 147.888C158.557 145.756 159.492 143.212 158.268 141.313C156.526 138.633 149.131 138.292 146.757 140.237C145.201 141.509 145.756 142.697 145.262 144.418C144.716 146.308 142.728 148.59 143.031 150.601Z" fill="black"/>
<path fill-rule="evenodd" clip-rule="evenodd" d="M146.322 365.402C147.07 365.95 147.927 366.32 148.831 366.485C157.537 368.692 166.53 369.454 175.47 368.741C176.665 368.642 178.258 367.988 177.965 366.791C177.69 365.675 176.134 365.75 175.081 365.416C174.087 365.105 173.341 364.281 172.599 363.532C169.853 360.706 166.529 358.568 163.251 356.429C162.455 355.839 161.564 355.396 160.619 355.12C159.488 354.856 158.307 355.078 157.163 355.304C154.279 355.864 148.78 355.775 146.496 357.965C144.669 359.707 144.404 363.673 146.322 365.402Z" fill="#3F3D56"/>
<path fill-rule="evenodd" clip-rule="evenodd" d="M180.487 363.53C180.487 364.27 180.569 365.101 181.107 365.573C181.537 365.886 182.056 366.035 182.578 365.993C186.357 365.964 189.816 363.764 191.584 360.266L204.34 358.705C206.754 358.409 209.214 358.099 211.433 357.053C214.052 355.812 216.143 353.631 218.17 351.497C218.527 351.18 218.799 350.77 218.958 350.309C219.168 349.469 218.557 348.586 217.788 348.252C216.993 347.975 216.142 347.925 215.323 348.108C209.096 349.011 202.846 351.927 196.75 350.304C195.261 349.908 193.78 349.235 192.245 349.349C191.418 349.46 190.609 349.686 189.84 350.022C187.858 350.786 181.931 351.87 180.619 353.626C179.307 355.383 180.487 361.43 180.487 363.53Z" fill="#3F3D56"/>
<path fill-rule="evenodd" clip-rule="evenodd" d="M147.64 218.91C145.801 221.773 141.924 222.398 139.216 224.452C135.054 227.609 134.351 233.492 134.111 238.699C133.951 242.302 133.849 245.96 134.649 249.48C135.21 251.929 136.195 254.264 136.949 256.668C138.558 261.893 139.009 267.398 139.248 272.858C139.878 286.645 139.317 300.519 141.087 314.218C141.598 318.139 142.292 322.031 142.678 325.965C143.947 338.98 141.795 352.399 145.286 365C149.051 360.92 154.324 358.56 159.876 358.47C161.026 358.47 162.226 358.539 163.284 358.074C164.341 357.61 165.178 356.379 164.737 355.317C164.472 354.854 164.164 354.417 163.817 354.012C162.295 351.714 164.879 348.465 163.776 345.933C163.348 344.959 162.424 344.237 162.153 343.212C161.863 342.1 162.424 340.96 162.58 339.821C162.893 337.523 161.573 335.381 160.888 333.18C159.853 329.848 160.267 326.287 160.626 322.798C161.812 311.401 162.332 299.945 162.185 288.488C162.088 280.735 161.702 272.817 163.937 265.39C168.118 269.33 171.699 273.861 174.568 278.837C176.353 281.874 177.893 285.119 178.486 288.593C178.918 291.144 178.836 293.75 178.748 296.332C178.307 309.552 177.864 322.772 177.419 335.992C177.153 343.989 176.923 352.22 179.696 359.72C186.745 355.97 193.951 352.367 201 348.594C200.885 345.997 197.39 345.046 196.103 342.789C195.641 341.845 195.39 340.812 195.367 339.761C194.475 329.016 196.668 318.281 198.696 307.693C199.469 303.658 200.223 299.591 200.218 295.487C200.218 288.97 198.31 282.619 196.337 276.41C194.25 269.834 192.065 263.285 189.899 256.736C188.52 252.531 187.094 248.322 185.338 244.25C183.682 240.399 181.714 236.681 180.303 232.761C178.036 226.428 177.258 219.677 176.5 213C166.917 214.88 157.209 216.998 147.64 218.91Z" fill="#2F2E41"/>
<path fill-rule="evenodd" clip-rule="evenodd" d="M152 148C159.732 148 166 141.732 166 134C166 126.268 159.732 120 152 120C144.268 120 138 126.268 138 134C138 141.732 144.268 148 152 148Z" fill="#FBBEBE"/>
<path fill-rule="evenodd" clip-rule="evenodd" d="M156.878 166.758L155.898 159.423C155.902 157.769 155.005 156.245 153.558 155.45L144.145 148.551C143.683 148.198 143.045 147.827 142.509 148.087C142.175 148.312 141.942 148.658 141.857 149.051C140.368 153.456 141.288 158.26 141.806 162.882C142.245 166.735 142.393 170.616 142.541 174.474C142.747 177.978 142.737 181.491 142.513 184.994C142.005 191.059 140.202 197.16 141.408 203.128C142.203 207.073 143.604 210.741 143.933 214.756C144.159 217.538 144.09 220.366 144.968 223C148.204 221.609 151.866 221.762 155.384 221.948L163.924 222.411C165.108 222.52 166.301 222.492 167.479 222.328C168.795 222.052 170.056 221.556 171.21 220.863C174.242 219.145 176.892 216.826 179 214.047C177.558 207.059 178.958 199.845 177.997 192.774C177.447 188.699 176.069 184.772 175.422 180.719C174.626 175.716 174.936 170.519 173.508 165.66C172.699 163.195 171.671 160.809 170.438 158.529C169.187 155.936 167.123 153.827 164.562 152.524C164.086 152.269 163.556 152.134 163.017 152.13C161.658 152.209 160.817 153.656 160.438 154.972C159.975 156.549 159.846 158.218 159.485 159.799C158.967 162.113 158.218 164.806 156.878 166.758Z" fill="#4285F4"/>
<path fill-rule="evenodd" clip-rule="evenodd" d="M129.495 253.753C131.294 255.658 134.583 255.191 136.674 253.624C141.226 250.217 141.647 243.695 141.897 238.019C141.989 235.986 142.128 233.859 143.086 232.075C144.547 229.325 147.577 227.873 150.094 226.029C156.061 221.666 159.563 214.474 160.613 207.18C161.663 199.886 160.456 192.388 158.439 185.284C154.951 173.003 149.076 161.553 143.113 150.266C142.935 149.845 142.649 149.479 142.285 149.203C141.073 148.454 139.76 149.938 138.927 151.098C136.119 155.027 131.493 157.134 127.256 159.459C123.019 161.784 118.689 164.881 117.408 169.536C116.547 172.656 117.218 175.975 117.87 179.141C118.522 182.307 120.845 184.822 122.551 187.507C124.553 190.449 126.356 193.52 127.95 196.701C128.551 197.887 129.017 199.136 129.338 200.426C129.617 201.951 129.74 203.5 129.703 205.049C129.8 214.626 129.897 224.236 128.741 233.744C128.084 239.124 127.029 244.523 127.51 249.922C127.626 251.373 128.468 252.681 129.495 253.753Z" fill="#3F3D56"/>
<path fill-rule="evenodd" clip-rule="evenodd" d="M141.263 236.699C143.162 237.587 145.084 238.508 147.138 238.861C149.192 239.215 151.442 238.928 153.072 237.596C154.702 236.264 155.56 233.744 154.629 231.796C156.093 231.845 157.558 231.771 159.011 231.576C159.846 231.467 160.86 231.133 160.988 230.264C161.134 229.252 159.965 228.641 159.02 228.354L153.926 226.889C151.532 225.959 148.935 225.754 146.435 226.297L138.675 227.538C138.469 227.555 138.269 227.62 138.09 227.729C137.859 227.937 137.698 228.219 137.634 228.531C137.259 229.767 135.529 233.223 136.123 234.455C136.652 235.51 140.199 236.14 141.263 236.699Z" fill="#FBBEBE"/>
<path fill-rule="evenodd" clip-rule="evenodd" d="M190.617 240.507C189.625 242.606 187.713 244.19 185.383 244.846C184.881 245.011 184.34 245.044 183.82 244.941C182.855 244.686 182.324 243.732 181.924 242.865C172.372 222.297 172.908 198.886 166.83 177.164C165.025 170.717 162.613 164.238 163.052 157.581C163.13 156.39 163.395 155.049 164.447 154.387C165.382 153.794 166.656 153.954 167.679 154.387C168.701 154.821 169.608 155.528 170.573 156.012C172.17 156.783 174.027 157.002 175.561 157.873C177.838 159.164 179.005 161.633 180.023 163.951C182.199 168.896 184.365 173.988 184.534 179.354C184.905 189.775 180.019 199.79 182.561 209.923C183.067 211.931 183.815 213.879 184.529 215.827C187.085 222.817 189.179 229.95 190.8 237.185C191.066 238.426 191.123 239.37 190.617 240.507Z" fill="#3F3D56"/>
<path fill-rule="evenodd" clip-rule="evenodd" d="M143.001 135.458C143.797 134.14 144.903 132.98 145.331 131.495C145.636 130.438 145.572 129.292 145.941 128.235C146.851 125.683 150.01 124.742 152.627 125.18C155.245 125.618 157.598 127.043 160.156 127.755C161.571 128.156 163.538 128.035 163.938 126.586C164.202 125.627 163.57 124.677 162.969 123.89L155.422 114.037C154.43 114.297 153.319 114.54 152.418 114.037C151.899 113.743 151.508 113.226 150.93 113.059C149.359 112.593 148.044 115.066 146.469 114.637C146.014 114.516 145.654 114.172 145.199 114.134C143.929 114.027 143.451 116.179 142.181 116.286C141.653 116.332 141.143 115.988 140.62 116.039C140.152 116.136 139.733 116.402 139.441 116.789C136.915 119.532 135.891 123.466 136.027 127.229C136.164 130.992 135.531 134.643 136.938 138.116C137.557 139.635 138.813 141.423 140.338 140.911C140.338 138.862 142.204 136.817 142.227 134.768" fill="#2F2E41"/>
<g opacity="0.1">
<path fill-rule="evenodd" clip-rule="evenodd" d="M168.599 271.502C165.729 266.944 162.225 262.782 158.186 259.13C155.84 266.615 156.255 274.596 156.347 282.41C156.502 293.959 155.955 305.506 154.71 316.993C154.329 320.49 153.899 324.099 154.986 327.457C155.705 329.676 157.09 331.844 156.762 334.15C156.598 335.299 156.009 336.466 156.313 337.569C156.598 338.602 157.568 339.329 158.017 340.311C159.176 342.863 156.463 346.129 158.061 348.454C158.425 348.862 158.748 349.303 159.026 349.77C159.509 350.844 158.611 352.086 157.501 352.549C156.39 353.012 155.13 352.933 153.924 352.947C149.355 353.021 144.931 354.5 141.304 357.167C141.622 359.999 142.173 362.802 142.95 365.551C146.903 361.439 152.439 359.06 158.268 358.969C159.475 358.969 160.735 359.038 161.846 358.57C162.956 358.103 163.835 356.861 163.371 355.791C163.093 355.324 162.77 354.884 162.406 354.476C160.808 352.16 163.521 348.885 162.362 346.333C161.913 345.351 160.943 344.623 160.658 343.59C160.354 342.469 160.943 341.321 161.107 340.172C161.435 337.856 160.05 335.697 159.33 333.479C158.244 330.12 158.674 326.531 159.055 323.015C160.3 311.528 160.847 299.98 160.692 288.432C160.59 280.618 160.185 272.637 162.531 265.152C164.716 267.12 166.745 269.243 168.599 271.502Z" fill="black"/>
</g>
<g opacity="0.1">
<path fill-rule="evenodd" clip-rule="evenodd" d="M136.631 126.973C136.631 126.323 136.631 125.667 136.631 125.007C136.604 125.515 136.604 126.023 136.631 126.527C136.627 126.688 136.627 126.836 136.631 126.973Z" fill="black"/>
<path fill-rule="evenodd" clip-rule="evenodd" d="M160.178 125.192C157.68 124.46 155.378 123.016 152.827 122.565C150.276 122.114 147.178 123.078 146.298 125.681C145.938 126.736 146 127.904 145.702 129.006C145.285 130.521 144.205 131.704 143.427 133.048L142.694 132.355C142.671 134.445 140.871 136.53 140.849 138.62C139.36 139.138 138.134 137.314 137.529 135.77C136.906 134.066 136.592 132.251 136.605 130.422C136.565 132.906 136.605 135.324 137.529 137.67C138.134 139.219 139.36 141.043 140.849 140.52C140.849 138.43 142.671 136.345 142.694 134.255L143.427 134.948C144.205 133.604 145.285 132.421 145.702 130.906C146 129.828 145.938 128.659 146.298 127.581C147.187 124.978 150.271 124.019 152.827 124.465C155.382 124.912 157.68 126.365 160.178 127.092C161.56 127.5 163.48 127.377 163.871 125.9C163.983 125.401 163.922 124.876 163.698 124.422C163.08 125.491 161.414 125.548 160.178 125.192Z" fill="black"/>
</g>
<path fill-rule="evenodd" clip-rule="evenodd" d="M116.508 183.907C116.114 186.739 115.547 189.543 114.809 192.304L111.577 205.547C111.231 206.94 110.885 208.406 111.037 209.85C111.249 211.795 112.348 213.517 113.461 215.123C119.788 224.248 127.514 232.308 136.352 239C135.84 236.354 137.663 233.894 139.376 231.815C141.089 229.735 142.761 227.744 145 226.398C139.392 221.1 133.965 215.615 128.72 209.943C128.168 209.391 127.692 208.767 127.307 208.086C126.042 205.631 127.307 202.697 128.406 200.163C131.883 192.091 133.527 182.928 131.297 174.424C130.456 171.226 128.988 168.033 126.315 166.069C125.147 165.21 123.545 164.63 122.27 165.275C121.727 165.592 121.255 166.019 120.885 166.529C116.734 171.63 117.228 177.734 116.508 183.907Z" fill="#3F3D56"/>
<path fill-rule="evenodd" clip-rule="evenodd" d="M120 369C127.732 369 134 367.881 134 366.5C134 365.119 127.732 364 120 364C112.268 364 106 365.119 106 366.5C106 367.881 112.268 369 120 369Z" fill="#4285F4"/>
<path fill-rule="evenodd" clip-rule="evenodd" d="M119 368C120.105 368 121 367.105 121 366C121 364.895 120.105 364 119 364C117.895 364 117 364.895 117 366C117 367.105 117.895 368 119 368Z" fill="#3F3D56"/>
<path fill-rule="evenodd" clip-rule="evenodd" d="M119 364C120.105 364 121 363.105 121 362C121 360.895 120.105 360 119 360C117.895 360 117 360.895 117 362C117 363.105 117.895 364 119 364Z" fill="#3F3D56"/>
<path fill-rule="evenodd" clip-rule="evenodd" d="M119 362C120.105 362 121 361.105 121 360C121 358.895 120.105 358 119 358C117.895 358 117 358.895 117 360C117 361.105 117.895 362 119 362Z" fill="#3F3D56"/>
<path fill-rule="evenodd" clip-rule="evenodd" d="M119 360C120.105 360 121 359.105 121 358C121 356.895 120.105 356 119 356C117.895 356 117 356.895 117 358C117 359.105 117.895 360 119 360Z" fill="#3F3D56"/>
<path fill-rule="evenodd" clip-rule="evenodd" d="M119 358C120.105 358 121 357.105 121 356C121 354.895 120.105 354 119 354C117.895 354 117 354.895 117 356C117 357.105 117.895 358 119 358Z" fill="#3F3D56"/>
<path fill-rule="evenodd" clip-rule="evenodd" d="M119 355C120.105 355 121 354.105 121 353C121 351.895 120.105 351 119 351C117.895 351 117 351.895 117 353C117 354.105 117.895 355 119 355Z" fill="#3F3D56"/>
<path fill-rule="evenodd" clip-rule="evenodd" d="M119 353C120.105 353 121 352.105 121 351C121 349.895 120.105 349 119 349C117.895 349 117 349.895 117 351C117 352.105 117.895 353 119 353Z" fill="#3F3D56"/>
<path fill-rule="evenodd" clip-rule="evenodd" d="M124.389 333.95C124.604 333.682 124.799 333.399 124.973 333.104L120.865 332.439L125.308 332.471C126.169 330.626 126.221 328.513 125.451 326.63L119.477 329.672L124.991 325.698C123.591 323.302 120.946 321.877 118.139 322.008C115.333 322.139 112.837 323.804 111.673 326.32C110.509 328.836 110.874 331.782 112.617 333.95C112.282 334.369 111.995 334.824 111.762 335.306L117.097 338.019L111.409 336.142C110.597 338.502 111.052 341.106 112.617 343.064C110.199 346.087 110.548 350.431 113.42 353.042C116.291 355.653 120.72 355.653 123.592 353.042C126.463 350.431 126.812 346.087 124.394 343.064C126.532 340.39 126.532 336.624 124.394 333.95H124.389Z" fill="#4285F4"/>
<path opacity="0.1" fill-rule="evenodd" clip-rule="evenodd" d="M111.002 338.111C110.999 339.805 111.565 341.449 112.607 342.778C110.187 345.873 110.537 350.322 113.41 352.995C116.284 355.668 120.716 355.668 123.59 352.995C126.463 350.322 126.813 345.873 124.393 342.778C125.4 341.496 111.002 337.264 111.002 338.111Z" fill="black"/>
<path fill-rule="evenodd" clip-rule="evenodd" d="M426.5 370C436.717 370 445 368.657 445 367C445 365.343 436.717 364 426.5 364C416.283 364 408 365.343 408 367C408 368.657 416.283 370 426.5 370Z" fill="#4285F4"/>
<path fill-rule="evenodd" clip-rule="evenodd" d="M434.172 362.97C435.019 362.247 435.636 361.271 435.941 360.172C436.172 359.059 435.719 357.722 434.703 357.316C433.567 356.861 432.353 357.689 431.434 358.521C430.515 359.354 429.457 360.307 428.257 360.128C429.515 358.93 430.083 357.128 429.753 355.38C429.7 355.023 429.557 354.689 429.337 354.411C428.704 353.705 427.564 354.01 426.806 354.566C424.405 356.333 423.735 359.756 423.722 362.829C423.481 361.721 423.685 360.564 423.68 359.441C423.675 358.318 423.375 357.021 422.456 356.43C421.89 356.109 421.253 355.95 420.609 355.97C419.533 355.927 418.328 356.043 417.593 356.871C416.67 357.897 416.915 359.62 417.709 360.743C418.503 361.866 419.718 362.587 420.835 363.367C421.729 363.925 422.492 364.688 423.066 365.598C423.135 365.725 423.191 365.86 423.232 366H430.002C431.516 365.192 432.919 364.172 434.172 362.97Z" fill="#4285F4"/>
<path fill-rule="evenodd" clip-rule="evenodd" d="M340.471 191.344L341 190.284L340.295 190L339.766 191.06L337 193.765L340.07 195L340.471 191.344Z" fill="#3F3D56"/>
<path fill-rule="evenodd" clip-rule="evenodd" d="M342.473 193.347L343 192.288L342.295 192L341.767 193.06L339 195.765L342.07 197L342.473 193.347Z" fill="#3F3D56"/>
<path fill-rule="evenodd" clip-rule="evenodd" d="M345.472 194.344L346 193.284L345.29 193L344.762 194.06L342 196.765L345.065 198L345.472 194.344Z" fill="#3F3D56"/>
<path fill-rule="evenodd" clip-rule="evenodd" d="M361.473 201.347L362 200.288L361.295 200L360.767 201.06L358 203.765L361.07 205L361.473 201.347Z" fill="#3F3D56"/>
<path fill-rule="evenodd" clip-rule="evenodd" d="M364.473 203.347L365 202.288L364.295 202L363.761 203.06L361 205.765L364.07 207L364.473 203.347Z" fill="#3F3D56"/>
<path fill-rule="evenodd" clip-rule="evenodd" d="M366.467 203.342L367 202.282L366.289 202L365.761 203.06L363 205.765L366.064 207L366.467 203.342Z" fill="#3F3D56"/>
<path fill-rule="evenodd" clip-rule="evenodd" d="M351.473 196.347L352 195.288L351.295 195L350.767 196.065L348 198.77L351.07 200L351.473 196.347Z" fill="#3F3D56"/>
<path fill-rule="evenodd" clip-rule="evenodd" d="M352.473 198.347L353 197.288L352.289 197L351.761 198.06L349 200.765L352.064 202L352.473 198.347Z" fill="#3F3D56"/>
<path fill-rule="evenodd" clip-rule="evenodd" d="M355.473 199.342L356 198.282L355.295 198L354.767 199.06L352 201.765L355.07 203L355.473 199.342Z" fill="#3F3D56"/>
<path fill-rule="evenodd" clip-rule="evenodd" d="M377.445 131.475C378.803 128.285 377.487 121.029 375.463 120.13C373.44 119.231 367.281 123.173 365.784 126.303L365.691 126.257L337 189.763L348.759 195L377.45 131.475H377.445Z" fill="#ECECF3"/>
<path fill-rule="evenodd" clip-rule="evenodd" d="M398.447 140.478C399.801 137.287 398.489 130.029 396.461 129.13C394.433 128.231 388.284 132.173 386.786 135.304L386.689 135.258L358 198.78L369.786 204L398.475 140.478H398.447Z" fill="#ECECF3"/>
<path fill-rule="evenodd" clip-rule="evenodd" d="M401.567 107.407C403.58 102.768 403.418 92.9771 401.419 92.0833C399.419 91.1894 392.114 97.6847 389.962 102.264L389.869 102.218L348 194.811L359.702 200L401.571 107.407H401.567Z" fill="white"/>
<path fill-rule="evenodd" clip-rule="evenodd" d="M397.08 95.8533C397.353 95.2438 398.068 94.9709 398.677 95.244C399.286 95.5168 399.559 96.2313 399.286 96.8402L398.132 99.4203C397.86 100.03 397.144 100.303 396.535 100.03C395.926 99.7568 395.654 99.0423 395.926 98.4334L397.08 95.8533Z" fill="#3F3D56"/>
<path opacity="0.3" fill-rule="evenodd" clip-rule="evenodd" d="M307 206.441L318.932 208.043C320.86 208.302 322.914 208.543 324.685 207.737C327.616 206.4 328.732 202.706 331.431 200.957C334.475 198.981 338.921 200.235 341.045 203.169C341.602 203.947 342.044 204.831 342.806 205.409C345.859 207.723 350.705 203.373 353.902 205.52C355.495 206.599 355.997 209.01 357.819 209.649C359.022 210.07 360.351 209.524 361.624 209.626C364.807 209.88 366.243 213.948 365.574 217.058C364.904 220.169 362.972 222.918 362.451 226.051C361.931 229.184 363.817 233.183 367 232.993" fill="white"/>
<path opacity="0.1" fill-rule="evenodd" clip-rule="evenodd" d="M378 40C380.761 40 383 37.7614 383 35C383 32.2386 380.761 30 378 30C375.239 30 373 32.2386 373 35C373 37.7614 375.239 40 378 40Z" fill="#4285F4"/>
<path opacity="0.1" fill-rule="evenodd" clip-rule="evenodd" d="M445 10C447.761 10 450 7.76142 450 5C450 2.23858 447.761 0 445 0C442.239 0 440 2.23858 440 5C440 7.76142 442.239 10 445 10Z" fill="#4285F4"/>
<path opacity="0.1" fill-rule="evenodd" clip-rule="evenodd" d="M417 32C419.761 32 422 29.7614 422 27C422 24.2386 419.761 22 417 22C414.239 22 412 24.2386 412 27C412 29.7614 414.239 32 417 32Z" fill="#4285F4"/>
<path opacity="0.1" fill-rule="evenodd" clip-rule="evenodd" d="M481 80C483.761 80 486 77.7614 486 75C486 72.2386 483.761 70 481 70C478.239 70 476 72.2386 476 75C476 77.7614 478.239 80 481 80Z" fill="#4285F4"/>
<path opacity="0.1" fill-rule="evenodd" clip-rule="evenodd" d="M451 46C453.761 46 456 43.7614 456 41C456 38.2386 453.761 36 451 36C448.239 36 446 38.2386 446 41C446 43.7614 448.239 46 451 46Z" fill="#4285F4"/>
</svg>
