<svg width="87" height="102" viewBox="0 0 87 102" fill="none" xmlns="http://www.w3.org/2000/svg">
<path d="M72.5386 24.134C66.9984 9.59604 53.053 -0.00787068 37.4952 6.19419e-05C34.0349 -0.00625478 30.5909 0.470584 27.2624 1.41662L27.2123 1.43161C17.9746 4.0435 10.1002 10.1177 5.2288 18.3896C5.14257 18.5352 5.08675 18.697 5.06457 18.8647C4.46595 19.6637 3.96913 20.5341 3.58543 21.4557L3.49141 21.6588C-1.90203 33.2759 -0.999626 46.8413 5.8853 57.6416C12.7702 68.4418 24.6871 74.9858 37.4952 74.9998C46.1055 75.0071 54.4535 72.0372 61.1245 66.5934C61.665 66.6398 62.1728 66.3296 62.378 65.8275C62.4173 65.7117 62.4396 65.5911 62.4444 65.469C74.0619 55.1212 78.0789 38.672 72.5386 24.134ZM27.0807 4.08801C28.738 6.12067 31.1801 7.35448 33.7998 7.48258C34.516 7.50109 35.2326 7.4698 35.9446 7.38856C37.0962 7.12752 38.3024 7.27104 39.3605 7.79474C39.9528 8.11146 40.2798 8.7684 40.1754 9.43195C39.9033 9.9317 39.5302 10.3692 39.0798 10.7169C37.9595 11.4768 37.2845 12.739 37.2747 14.0927C37.3594 14.9354 37.8106 15.6981 38.5082 16.1785C39.5396 16.8675 40.8106 17.0977 42.0181 16.814C42.6871 16.6387 43.3387 16.403 43.9648 16.1095C44.5341 15.8295 45.1363 15.6228 45.7574 15.4939C47.3444 15.2708 48.974 16.32 50.6375 17.5134C51.4711 18.1164 52.8286 19.2558 52.5479 20.1207C52.3323 20.7838 51.5225 21.2627 50.6676 21.7716C50.3216 21.9759 49.9832 22.1764 49.592 22.4485C48.2073 23.4969 46.6898 24.3572 45.0792 25.0071C44.4704 25.2096 43.8507 25.3771 43.2227 25.5084C41.915 25.7372 40.6584 26.1959 39.5109 26.8636C37.2081 28.3504 37.489 30.7296 37.6657 32.1598C37.6243 32.146 37.5792 32.1297 37.5303 32.1084C37.316 32.0207 37.1053 31.9203 36.896 31.8225C35.5997 30.9482 33.9207 30.8809 32.5586 31.649C31.1965 32.417 30.3852 33.8887 30.4628 35.4504C30.4628 38.4251 32.6716 40.16 34.4466 41.5526L35.0632 42.0415C35.455 42.4014 35.8076 42.8018 36.1149 43.2361C33.5953 42.6018 31.074 41.9779 28.551 41.3646C26.4301 40.8519 24.289 40.2201 23.4114 38.6506C23.076 37.9394 22.8499 37.1817 22.7408 36.403C22.5819 35.1674 22.1475 33.9834 21.4697 32.9382C20.1831 31.5023 18.4494 30.5429 16.5495 30.2156L16.3201 30.1503C14.4398 29.5912 13.4094 28.9181 13.0734 28.0369C12.864 26.8931 13.0505 25.7122 13.6024 24.6886C14.3111 23.2144 14.5474 21.5574 14.2793 19.9438C13.998 18.7065 13.171 17.6632 12.0304 17.1071C11.3528 16.7915 10.613 16.6326 9.86557 16.642C9.70633 16.642 9.54459 16.6495 9.38168 16.6621C13.7849 10.6859 19.988 6.27873 27.0807 4.08801ZM32.2278 72.0856L32.2391 72.0969C31.7473 71.8241 31.2701 71.5253 30.81 71.2018C29.7967 70.5706 29.1039 69.5339 28.9084 68.3562C28.9783 67.6001 29.2229 66.8706 29.6229 66.2251C29.9031 65.6284 30.1102 65 30.2396 64.3536C30.3192 63.7667 30.5337 63.2065 30.8664 62.7164C31.2371 62.3785 31.6666 62.1118 32.1338 61.9292C32.6569 61.6975 33.1543 61.4118 33.6179 61.0767C34.6181 60.2801 35.4477 59.2901 36.0573 58.166C36.3519 57.6495 36.6064 57.0867 36.852 56.5364C37.1855 55.6639 37.6505 54.8475 38.231 54.1158C39.4845 52.7958 41.954 53.776 42.9544 54.2549C44.8633 55.1122 46.6181 56.2772 48.1491 57.7034L48.2932 57.8513C49.9153 59.5658 51.6414 61.1789 53.4616 62.6813C54.9675 63.8446 56.6175 64.8083 58.3706 65.5482C50.8803 71.1339 41.4655 73.4882 32.2278 72.0856ZM60.5856 63.7644C58.5976 63.0289 56.728 62.0064 55.0361 60.7296C53.2961 59.2895 51.6455 57.7448 50.0934 56.104L49.9492 55.9574C48.221 54.3197 46.2291 52.9848 44.0575 52.0087C40.8861 50.4869 38.1057 50.6297 36.4247 52.4022C35.641 53.3302 35.017 54.3822 34.5782 55.5148C34.3539 56.0086 34.1357 56.4963 33.8938 56.9225C33.4479 57.7559 32.8406 58.4923 32.1075 59.0887C31.778 59.3181 31.4266 59.5143 31.0583 59.6741C30.2946 59.9876 29.6012 60.4503 29.0187 61.0354C28.3838 61.8282 27.966 62.7725 27.8065 63.7757C27.7193 64.224 27.5826 64.6612 27.3992 65.0794C26.8019 66.0765 26.46 67.2054 26.4039 68.3662C26.4223 69.2768 26.6885 70.1651 27.1735 70.9359C17.5182 67.9427 9.62597 60.9255 5.52393 51.6868C1.42188 42.4481 1.50929 31.8877 5.76396 22.7182L5.8593 22.5114C6.19952 21.6128 6.7075 20.7872 7.35607 20.0783C7.58656 19.8484 7.85832 19.6637 8.15712 19.5343C8.69771 19.2923 9.28223 19.1644 9.87453 19.1582C10.2406 19.1497 10.6042 19.2224 10.9388 19.3714C11.4121 19.6101 11.7481 20.0545 11.8489 20.5748C11.9588 21.6964 11.7499 22.826 11.246 23.8341C10.4458 25.4115 10.2613 27.2301 10.7283 28.9361C11.5695 31.1335 13.9136 32.0562 15.6172 32.5626L15.8679 32.6328C17.2225 32.8499 18.4773 33.4788 19.4618 34.4341C19.9067 35.1893 20.189 36.0291 20.2905 36.8998C20.4446 37.9365 20.7619 38.9422 21.2307 39.8796C22.5995 42.3328 25.4288 43.1939 27.971 43.8081C30.6988 44.4708 33.429 45.147 36.1618 45.8364C36.7112 46.0156 37.3044 46.0081 37.8491 45.8151C38.4844 45.5683 38.9394 45.0008 39.0425 44.3271C39.3283 42.428 36.7046 40.144 36.6608 40.1114L36.0013 39.5874C34.4457 38.3665 32.9765 37.2132 32.9765 35.4507C32.9617 34.7103 33.3883 34.0319 34.0621 33.7246C34.5297 33.5302 34.9208 33.672 35.8321 34.1006C36.0829 34.2185 36.3335 34.3363 36.5629 34.4291C37.5369 34.9515 38.7349 34.8006 39.5488 34.053C40.0784 33.4619 40.3019 32.6576 40.153 31.8782C39.9475 30.2072 40.0277 29.5165 40.8701 28.9712C41.7797 28.4713 42.7671 28.1284 43.7909 27.957C44.512 27.8026 45.2236 27.6063 45.922 27.3691C47.7713 26.6312 49.5132 25.6489 51.1017 24.4483C51.3524 24.2715 51.642 24.1035 51.9328 23.9318C53.2745 23.3303 54.3422 22.248 54.9251 20.8981C55.5154 19.0855 54.564 17.2628 52.0946 15.4815C50.5088 14.3444 48.1045 12.6259 45.3893 13.0157C44.5468 13.1704 43.7292 13.4387 42.9587 13.813C42.4678 14.0445 41.9577 14.2332 41.4343 14.3771C40.9318 14.4931 40.404 14.41 39.9613 14.1451C39.7771 14.0122 39.767 13.9082 39.7633 13.8694C39.7357 13.5434 40.1394 13.141 40.7662 12.5631C41.5385 11.9564 42.1465 11.1661 42.535 10.2641C43.0507 8.4912 42.2896 6.5953 40.691 5.67115C39.1729 4.83617 37.4098 4.56073 35.7095 4.89273C35.1129 4.96295 34.5124 4.99144 33.9118 4.97793C32.4133 4.89669 30.9832 4.32393 29.8428 3.34836C45.446 -0.166376 61.4454 7.3514 68.699 21.606C75.9521 35.8608 72.6116 53.2199 60.5856 63.7644Z" fill="#173653"/>
<rect width="39.4985" height="60" transform="translate(47 42)" fill="#F7F8F9"/>
<path fill-rule="evenodd" clip-rule="evenodd" d="M86.4967 53.7366C86.4962 53.7238 86.4958 53.711 86.4949 53.6981C86.4912 53.6473 86.4862 53.5974 86.4761 53.548C86.4761 53.548 86.4761 53.548 86.4761 53.5475C86.466 53.4981 86.4518 53.4491 86.4358 53.4015C86.4317 53.3896 86.4276 53.3777 86.423 53.3658C86.4061 53.3205 86.3868 53.2761 86.3649 53.233C86.3635 53.2308 86.3626 53.2285 86.3612 53.2262C86.3374 53.1813 86.3099 53.1387 86.2802 53.0971C86.2729 53.0866 86.2651 53.0765 86.2573 53.066C86.2257 53.0248 86.1927 52.9849 86.1557 52.9479L75.5511 42.3433C75.5141 42.3062 75.4742 42.2733 75.433 42.2417C75.4225 42.2339 75.412 42.2257 75.4014 42.2184C75.3598 42.1886 75.3177 42.1611 75.2733 42.1378C75.2701 42.136 75.2669 42.135 75.2641 42.1332C75.222 42.1112 75.1781 42.0925 75.1337 42.0755C75.1213 42.071 75.1094 42.0668 75.0966 42.0627C75.049 42.0467 75.0009 42.0325 74.951 42.0224C74.9505 42.0224 74.9501 42.0224 74.9501 42.0224C74.9011 42.0128 74.8512 42.0073 74.8009 42.0037C74.788 42.0032 74.7752 42.0023 74.7624 42.0018C74.7491 42.0014 74.7359 42 74.7226 42H48.1719C47.5246 42 47 42.5246 47 43.1719V93.3308C47 93.9781 47.5246 94.5027 48.1719 94.5027H65.815V100.828C65.815 101.254 66.0466 101.647 66.4197 101.853C66.7932 102.06 67.2487 102.048 67.6099 101.821L72.073 99.0208L76.5362 101.821C76.7262 101.94 76.9427 102 77.1593 102C77.3543 102 77.5497 101.951 77.7264 101.854C78.0995 101.647 78.3311 101.255 78.3311 100.828V94.5027H85.3267C85.9739 94.5027 86.4985 93.9781 86.4985 93.3308V53.7764C86.4985 53.7631 86.4972 53.7499 86.4967 53.7366V53.7366ZM75.8945 46.0013L82.4977 52.6045H75.8945V46.0013ZM65.2368 78.1958C65.1544 77.9719 65.0203 77.6062 65.0171 77.4565C65.1086 77.343 65.4263 77.142 65.6209 77.0193C66.0384 76.7557 66.5117 76.4563 66.855 75.9884C67.2015 75.5156 67.3425 74.9695 67.467 74.4879C67.5215 74.2773 67.6094 73.9372 67.6845 73.8086C67.7257 73.7999 67.8122 73.7875 67.9747 73.7875C68.1052 73.7875 68.2512 73.7948 68.4059 73.8026C68.5835 73.8113 68.7666 73.8205 68.958 73.8205C69.38 73.8205 69.7206 73.7729 70.0296 73.6699C70.5693 73.4904 71.001 73.143 71.3818 72.8363C71.5924 72.6669 71.9449 72.3831 72.0676 72.3657C72.2017 72.3831 72.5537 72.6669 72.7643 72.8363C73.1451 73.143 73.5773 73.4904 74.117 73.6699C74.4259 73.7729 74.7661 73.8205 75.1886 73.8205C75.3795 73.8205 75.563 73.8113 75.7402 73.8026C75.8949 73.7948 76.0409 73.7875 76.1719 73.7875C76.3344 73.7875 76.4204 73.7994 76.4621 73.8086C76.5372 73.9372 76.625 74.2773 76.6791 74.4879C76.8036 74.9695 76.945 75.5156 77.2915 75.9884C77.6344 76.4563 78.1077 76.7552 78.5257 77.0193C78.7198 77.1425 79.0375 77.343 79.129 77.4565C79.1258 77.6062 78.9917 77.9719 78.9097 78.1958C78.7353 78.6705 78.538 79.2088 78.538 79.8053C78.538 80.4017 78.7353 80.9401 78.9093 81.4152C78.9917 81.6391 79.1258 82.0048 79.129 82.1545C79.0375 82.268 78.7198 82.4685 78.5257 82.5917C78.1077 82.8553 77.6344 83.1547 77.2915 83.6226C76.945 84.0954 76.8036 84.6415 76.6791 85.1231C76.625 85.3332 76.5367 85.6738 76.4621 85.8024C76.4204 85.8111 76.3344 85.8235 76.1719 85.8235C76.0409 85.8235 75.8949 85.8162 75.7402 85.8084C75.563 85.7997 75.3795 85.7905 75.1886 85.7905C74.7661 85.7905 74.4259 85.8381 74.117 85.9411C73.5773 86.1206 73.1451 86.4685 72.7643 86.7747C72.5569 86.9423 72.2108 87.2201 72.073 87.2448C71.9353 87.2201 71.5897 86.9423 71.3823 86.7747C71.001 86.4685 70.5693 86.1206 70.0296 85.9411C69.7206 85.8381 69.38 85.7905 68.958 85.7905C68.7671 85.7905 68.5835 85.7997 68.4059 85.8084C68.2516 85.8162 68.1056 85.8235 67.9747 85.8235C67.8122 85.8235 67.7261 85.8111 67.6845 85.8024C67.6094 85.6738 67.5215 85.3337 67.467 85.1231C67.343 84.6415 67.2015 84.0954 66.855 83.6226C66.5121 83.1547 66.0388 82.8553 65.6209 82.5917C65.4268 82.469 65.1091 82.268 65.0175 82.1545C65.0208 82.0053 65.1549 81.6391 65.2368 81.4152C65.4112 80.9405 65.6085 80.4022 65.6085 79.8057C65.6085 79.2088 65.4108 78.6705 65.2368 78.1958V78.1958ZM75.9874 98.7095L72.6961 96.6445C72.3152 96.406 71.8309 96.406 71.45 96.6445L68.1587 98.7095V88.1636C68.2832 88.1599 68.4055 88.1553 68.524 88.1494C68.6792 88.1411 68.8257 88.1338 68.958 88.1338C69.1658 88.1338 69.2546 88.153 69.2889 88.1645C69.4286 88.2112 69.6968 88.4272 69.9124 88.6007C70.4594 89.0411 71.1401 89.589 72.073 89.589C73.006 89.589 73.6867 89.0411 74.2337 88.6007C74.4493 88.4272 74.7175 88.2112 74.8567 88.1649C74.8915 88.1535 74.9803 88.1343 75.1881 88.1343C75.3204 88.1343 75.4669 88.1416 75.6221 88.1494C75.7406 88.1553 75.8629 88.1604 75.9869 88.1636V98.7095H75.9874ZM78.3311 92.1589V87.2192C78.6795 86.7459 78.8251 86.1856 78.9482 85.7095C79.0127 85.4596 79.1011 85.1176 79.1816 85.0082C79.2618 84.8983 79.5598 84.7102 79.7772 84.5729C80.354 84.2085 81.0718 83.7548 81.3569 82.897C81.6389 82.0506 81.3455 81.2509 81.1097 80.6082C81.0026 80.3166 80.8813 79.9856 80.8813 79.8053C80.8813 79.6249 81.0026 79.2944 81.1097 79.0028C81.3455 78.3601 81.6389 77.5599 81.3569 76.7135C81.0718 75.8561 80.354 75.4025 79.7772 75.0381C79.5598 74.9008 79.2618 74.7122 79.1816 74.6033C79.1011 74.4934 79.0127 74.1514 78.9482 73.9015C78.7797 73.2492 78.5701 72.4371 77.8523 71.9107C77.281 71.4923 76.6195 71.4438 76.1714 71.4438C75.9819 71.4438 75.7988 71.4529 75.6221 71.4621C75.4669 71.4699 75.3204 71.4772 75.1886 71.4772C74.9803 71.4772 74.8915 71.458 74.8572 71.4465C74.718 71.4003 74.4498 71.1842 74.2341 71.0103C73.6867 70.5704 73.006 70.0224 72.073 70.0224C71.1406 70.0224 70.4594 70.5704 69.9124 71.0103C69.6968 71.1838 69.4286 71.4003 69.2894 71.4465C69.2551 71.458 69.1658 71.4772 68.958 71.4772C68.8261 71.4772 68.6792 71.4699 68.524 71.4616C68.3473 71.4529 68.1647 71.4438 67.9747 71.4438C67.527 71.4438 66.8655 71.4923 66.2947 71.9107C65.5765 72.4371 65.3664 73.2492 65.1979 73.9015C65.1334 74.1514 65.045 74.4934 64.9649 74.6028C64.8843 74.7122 64.5863 74.9008 64.3689 75.0381C63.7921 75.4025 63.0748 75.8561 62.7892 76.7135C62.5072 77.5604 62.8006 78.3601 63.0364 79.0028C63.1435 79.2944 63.2648 79.6249 63.2648 79.8053C63.2648 79.9856 63.1435 80.3166 63.0364 80.6082C62.8006 81.2509 62.5072 82.0506 62.7892 82.8975C63.0748 83.7548 63.7926 84.2085 64.3689 84.5729C64.5868 84.7102 64.8843 84.8988 64.9649 85.0082C65.045 85.1176 65.1334 85.4596 65.1979 85.7095C65.321 86.1856 65.4671 86.7463 65.8154 87.2192V92.1589H49.3437V44.3437H73.5507V53.7764C73.5507 54.4237 74.0753 54.9483 74.7226 54.9483H84.1548V92.1589H78.3311Z" fill="#173653"/>
<path fill-rule="evenodd" clip-rule="evenodd" d="M53.8981 54.9482H68.996C69.6429 54.9482 70.1679 54.4236 70.1679 53.7764C70.1679 53.1291 69.6429 52.6045 68.996 52.6045H53.8981C53.2508 52.6045 52.7262 53.1291 52.7262 53.7764C52.7262 54.4236 53.2513 54.9482 53.8981 54.9482Z" fill="#173653"/>
<path fill-rule="evenodd" clip-rule="evenodd" d="M79.7315 58.5195H53.8981C53.2508 58.5195 52.7262 59.0441 52.7262 59.6914C52.7262 60.3387 53.2508 60.8633 53.8981 60.8633H79.7315C80.3788 60.8633 80.9034 60.3387 80.9034 59.6914C80.9034 59.0441 80.3788 58.5195 79.7315 58.5195Z" fill="#173653"/>
<path fill-rule="evenodd" clip-rule="evenodd" d="M75.044 64.4355H53.8981C53.2508 64.4355 52.7262 64.9606 52.7262 65.6074C52.7262 66.2547 53.2508 66.7793 53.8981 66.7793H75.044C75.6913 66.7793 76.2159 66.2547 76.2159 65.6074C76.2159 64.9606 75.6913 64.4355 75.044 64.4355Z" fill="#173653"/>
<path fill-rule="evenodd" clip-rule="evenodd" d="M79.7316 64.4355C79.0861 64.4355 78.5597 64.962 78.5597 65.6074C78.5597 66.2529 79.0861 66.7793 79.7316 66.7793C80.3775 66.7793 80.9034 66.2529 80.9034 65.6074C80.9034 64.962 80.3775 64.4355 79.7316 64.4355Z" fill="#173653"/>
</svg>
