<svg width="500" height="317" viewBox="0 0 500 317" fill="none" xmlns="http://www.w3.org/2000/svg">
<g opacity="0.5">
<path fill-rule="evenodd" clip-rule="evenodd" d="M487.722 270.578H485.035V130.748C489.554 128.163 491.757 122.892 490.407 117.898C489.056 112.904 484.488 109.432 479.27 109.432C474.051 109.432 469.483 112.904 468.132 117.898C466.782 122.892 468.985 128.163 473.505 130.748V270.578H470.818C464.116 270.578 458.684 275.96 458.684 282.599V290.973H499.861V282.599C499.861 279.41 498.582 276.352 496.305 274.097C494.028 271.843 490.941 270.577 487.722 270.578Z" fill="url(#paint0_linear)"/>
</g>
<g opacity="0.5">
<path fill-rule="evenodd" clip-rule="evenodd" d="M453.225 280.433C449.101 277.996 446.926 269.85 446.275 266.978L441.357 203.532C441.357 203.532 437.664 182.532 423.637 152.619C423.466 134.811 422.809 78.4964 421.214 72.4389L411.918 61.1562C412.35 60.2856 412.838 59.4442 413.38 58.6373C413.546 58.5932 413.717 58.5546 413.883 58.505C414.087 58.235 414.302 57.9539 414.523 57.7279C418.927 56.1876 422.393 52.7356 423.947 48.3424C425.501 43.9493 424.974 39.0895 422.516 35.1295C424.807 33.4484 421.887 32.7373 421.887 32.7373C420.101 24.8321 412.476 19.6687 404.46 20.9365C403.439 17.3494 400.158 14.8743 396.423 14.8735H395.948C399.419 15.0642 402.41 17.3794 403.461 20.6885C402.31 18.7195 400.404 17.3057 398.184 16.7751C396.683 15.5198 394.787 14.8328 392.829 14.835H392.354C394.036 14.9305 395.649 15.5341 396.98 16.5657C396.737 16.5657 396.494 16.5271 396.251 16.5271C392.475 16.5201 389.164 19.044 388.175 22.6831C387.187 26.3222 388.766 30.1709 392.029 32.0704C391.105 35.4944 391.395 39.132 392.851 42.3665C392.536 46.7759 393.497 52.3924 399.409 55.2365L398.404 57.5074C397.195 57.568 387.364 58.7586 381.038 81.0373C378.317 86.6208 376.263 95.6546 376.401 110.25C376.136 113.987 375.937 117.966 375.849 122.271L371.289 141.055L371.356 141.166C371.356 141.254 371.356 141.337 371.356 141.425L371.306 141.623L371.339 141.673C370.235 156.67 370.787 171.944 373.823 186.666C375.545 195 376.876 203.361 376.031 206.315C374.21 212.929 367.751 237.038 368.684 244.446L366.548 257.404L366.691 257.454L358.637 272.727C358.637 272.727 363.605 277.269 365.565 277.368C367.525 277.467 369.782 280.796 369.782 280.796C369.782 280.796 381.347 289.72 385.277 286.959C389.208 284.197 383.798 280.896 380.1 276.392C377.069 272.683 377.842 264.266 378.223 261.373L395.517 200.126C395.517 200.126 397.234 190.596 397.488 174.319C398.811 175.381 400.32 176.19 401.937 176.706C402.477 176.873 403.054 176.873 403.593 176.706L404.697 180.696C404.697 180.696 424.647 209.154 425.216 215.972C425.784 222.79 428.064 247.654 431.487 254.296L433.954 267.199H434.103L431.818 284.285C431.818 284.285 438.056 286.837 439.921 286.259C441.787 285.68 445.066 288.028 445.066 288.028C445.066 288.028 459.004 292.437 461.737 288.474C464.469 284.511 458.259 283.387 453.225 280.433Z" fill="url(#paint1_linear)"/>
</g>
<path fill-rule="evenodd" clip-rule="evenodd" d="M417.444 146.884L422.244 158.464C422.244 158.464 421.711 82.5355 419.94 75.5493L408.426 61.0234L404.527 71.6854L413.386 83.0836C413.386 83.0836 418.879 99.9954 417.988 116.542C417.097 133.088 417.444 146.884 417.444 146.884Z" fill="#3AD29F"/>
<path fill-rule="evenodd" clip-rule="evenodd" d="M417.444 146.884L422.244 158.464C422.244 158.464 421.711 82.5355 419.94 75.5493L408.426 61.0234L404.527 71.6854L413.386 83.0836C413.386 83.0836 418.879 99.9954 417.988 116.542C417.097 133.088 417.444 146.884 417.444 146.884Z" fill="#381E1D"/>
<path fill-rule="evenodd" clip-rule="evenodd" d="M416.463 146.884L421.26 158.464C421.26 158.464 420.727 82.5355 418.957 75.5493L407.44 61.0234L403.543 71.6854L412.396 83.0836C412.396 83.0836 417.886 99.9954 416.996 116.542C416.106 133.088 416.463 146.884 416.463 146.884Z" fill="#333333"/>
<path fill-rule="evenodd" clip-rule="evenodd" d="M371.735 142.138C370.595 156.897 371.086 171.948 374.042 186.453C375.679 194.5 376.95 202.569 376.175 205.426C374.435 211.807 368.293 235.087 369.166 242.24L367.126 254.755L378.177 258.858L394.742 199.447C394.742 199.447 399.013 175.472 394.786 138.779L371.73 142.144L371.735 142.138Z" fill="#4285F4"/>
<path fill-rule="evenodd" clip-rule="evenodd" d="M368.377 253.938L360.236 269.911C360.236 269.911 364.952 274.384 366.808 274.485C368.664 274.586 370.808 277.861 370.808 277.861C370.808 277.861 381.775 286.649 385.509 283.926C389.243 281.203 384.109 277.979 380.625 273.517C377.141 269.055 378.997 257.707 378.997 257.707L368.377 253.938Z" fill="#381E1D"/>
<path fill-rule="evenodd" clip-rule="evenodd" d="M404.167 180.535C404.167 180.535 423.202 207.92 423.748 214.489C424.294 221.058 426.478 244.975 429.753 251.367L432.111 263.779H443.898L439.186 202.44C439.186 202.44 434.961 178.529 418.486 145.669L397.638 157.168L404.167 180.535Z" fill="#4285F4"/>
<path fill-rule="evenodd" clip-rule="evenodd" d="M418.824 149.936C418.824 151.408 402.559 149.936 402.559 149.936V78.3176L409.986 66.9287C409.986 66.9287 412.84 70.1147 415.624 78.8264C416.689 82.195 419.005 88.4121 419.884 93.5672C420.416 96.6979 418.457 101.04 418.819 104.956C420.113 118.745 421.316 133.824 418.824 149.936Z" fill="white"/>
<path fill-rule="evenodd" clip-rule="evenodd" d="M408.617 70.8663C408.617 70.8663 410.355 63.4375 414.37 59.77L400.124 56.1025L396.653 63.9898L408.617 70.8663Z" fill="#A3643B"/>
<path opacity="0.1" fill-rule="evenodd" clip-rule="evenodd" d="M398.127 62.0079C398.127 62.0079 378.059 61.5497 376.423 124.589L372.047 142.739C372.047 142.739 407.289 201.036 414.372 153.74C414.372 153.74 418.201 102.227 410.74 84.8113L414.389 76.0123L398.127 62.0079Z" fill="black"/>
<path fill-rule="evenodd" clip-rule="evenodd" d="M398.127 61.0235C398.127 61.0235 378.059 60.5654 376.423 123.604L372.047 141.754C372.047 141.754 407.289 200.052 414.372 152.756C414.372 152.756 418.201 101.243 410.74 83.8269L414.389 75.0279L398.127 61.0235Z" fill="#333333"/>
<path opacity="0.1" fill-rule="evenodd" clip-rule="evenodd" d="M390.785 153.263C390.785 153.263 389.506 172.095 402.007 176.056C402.79 176.304 403.646 176.18 404.326 175.721C405.006 175.262 405.434 174.518 405.487 173.705C405.698 170.485 404.663 163.911 398.705 150.591L390.785 153.263Z" fill="black"/>
<path fill-rule="evenodd" clip-rule="evenodd" d="M390.784 153.263C390.784 153.263 389.514 172.09 402.001 176.056C402.786 176.304 403.643 176.18 404.324 175.721C405.005 175.262 405.434 174.518 405.487 173.705C405.699 170.485 404.662 163.911 398.695 150.591L390.784 153.263Z" fill="#A3643B"/>
<path fill-rule="evenodd" clip-rule="evenodd" d="M412.402 96.4568C412.945 96.4568 413.386 96.0161 413.386 95.4725C413.386 94.9289 412.945 94.4883 412.402 94.4883C411.858 94.4883 411.417 94.9289 411.417 95.4725C411.417 96.0161 411.858 96.4568 412.402 96.4568Z" fill="#FA9221"/>
<path fill-rule="evenodd" clip-rule="evenodd" d="M412.402 123.032C412.945 123.032 413.386 122.591 413.386 122.048C413.386 121.504 412.945 121.063 412.402 121.063C411.858 121.063 411.417 121.504 411.417 122.048C411.417 122.591 411.858 123.032 412.402 123.032Z" fill="#FA9221"/>
<path fill-rule="evenodd" clip-rule="evenodd" d="M432.459 263.045L430.118 280.739C430.118 280.739 436.136 283.22 437.942 282.658C439.747 282.096 442.911 284.377 442.911 284.377C442.911 284.377 456.361 288.662 459 284.811C461.639 280.961 455.649 279.804 450.79 276.888C445.931 273.973 443.872 262.795 443.872 262.795L432.459 263.045Z" fill="#381E1D"/>
<path opacity="0.1" fill-rule="evenodd" clip-rule="evenodd" d="M393.412 74.8701C393.412 74.8701 374.939 71.229 377.153 117.483C377.153 117.483 381.603 151.355 389.346 153.543L400.983 150.631L396.383 118.942L401 102.551C401 102.551 404.682 77.7819 393.412 74.8701Z" fill="#DAA4A2"/>
<path opacity="0.1" fill-rule="evenodd" clip-rule="evenodd" d="M394.394 74.8701C394.394 74.8701 375.923 71.229 378.137 117.483C378.137 117.483 382.586 151.355 390.328 153.543L401.963 150.631L397.369 118.942L401.986 102.551C401.986 102.551 405.662 77.7819 394.394 74.8701Z" fill="black"/>
<path fill-rule="evenodd" clip-rule="evenodd" d="M394.405 74.8701C394.405 74.8701 375.922 71.229 378.137 117.483C378.137 117.483 382.589 151.355 390.336 153.543L401.979 150.631L397.36 118.942L401.979 102.551C401.979 102.551 405.675 77.7819 394.405 74.8701Z" fill="#333333"/>
<path opacity="0.1" fill-rule="evenodd" clip-rule="evenodd" d="M390.748 154.528V153.53L400.156 151.575L400.591 152.414L390.748 154.528Z" fill="black"/>
<path opacity="0.1" fill-rule="evenodd" clip-rule="evenodd" d="M391.732 68.0958L410.869 84.6454L411.417 84.2744L392.098 67.9131L391.732 68.0958Z" fill="black"/>
<path opacity="0.1" fill-rule="evenodd" clip-rule="evenodd" d="M414.429 149.606L414.37 150.591L418.307 150.099L418.103 149.606H414.429Z" fill="black"/>
<path opacity="0.1" fill-rule="evenodd" clip-rule="evenodd" d="M398.622 57.8014C401.187 59.9317 404.926 62.008 408.543 62.008C409.986 62.0093 411.421 61.8021 412.802 61.3932C413.27 60.7766 413.795 60.2042 414.37 59.6836L400.173 56.1025L398.622 57.8014Z" fill="black"/>
<path fill-rule="evenodd" clip-rule="evenodd" d="M405.512 55.1183C413.666 55.1183 420.276 48.288 420.276 39.8624C420.276 31.4367 413.666 24.6064 405.512 24.6064C397.358 24.6064 390.748 31.4367 390.748 39.8624C390.748 48.288 397.358 55.1183 405.512 55.1183Z" fill="#FDD835"/>
<path fill-rule="evenodd" clip-rule="evenodd" d="M409.449 62.9923C417.603 62.9923 424.213 56.162 424.213 47.7364C424.213 39.3108 417.603 32.4805 409.449 32.4805C401.295 32.4805 394.685 39.3108 394.685 47.7364C394.685 56.162 401.295 62.9923 409.449 62.9923Z" fill="#A3643B"/>
<path fill-rule="evenodd" clip-rule="evenodd" d="M393.973 40.3545C393.973 40.3545 388.65 54.6787 399.915 59.0553C401.816 58.0556 403.135 56.1811 403.464 54.0139C403.792 51.8466 403.09 49.6489 401.575 48.103L393.973 40.3545Z" fill="#FDD835"/>
<path fill-rule="evenodd" clip-rule="evenodd" d="M395.669 37.4014C400.018 37.4014 403.543 33.876 403.543 29.5273C403.543 25.1786 400.018 21.6533 395.669 21.6533C391.321 21.6533 387.795 25.1786 387.795 29.5273C387.795 33.876 391.321 37.4014 395.669 37.4014Z" fill="#FDD835"/>
<path fill-rule="evenodd" clip-rule="evenodd" d="M420.788 36.9685C420.788 36.9685 425.916 38.1879 416.923 41.25C413.935 42.2352 411.498 44.3944 410.194 47.2116C409.381 48.9306 407.88 50.2426 406.047 50.8361C404.213 51.4295 402.212 51.2515 400.517 50.3442L397.685 48.7833L392.716 37.4454L398.585 30.7847L408.67 29.5273L420.788 36.9685Z" fill="#FDD835"/>
<path fill-rule="evenodd" clip-rule="evenodd" d="M403.573 27.5451C403.574 23.3709 400.106 19.9217 395.669 19.6846H396.145C400.775 19.6846 404.528 23.2099 404.528 27.5586C404.528 31.9073 400.775 35.4326 396.145 35.4326H395.669C400.117 35.1949 403.589 31.7298 403.573 27.5451Z" fill="#FDD835"/>
<path fill-rule="evenodd" clip-rule="evenodd" d="M400.62 27.5451C400.621 23.3709 397.153 19.9217 392.716 19.6846H393.192C397.822 19.6846 401.575 23.2099 401.575 27.5586C401.575 31.9073 397.822 35.4326 393.192 35.4326H392.716C397.164 35.1949 400.636 31.7298 400.62 27.5451Z" fill="#FDD835"/>
<path fill-rule="evenodd" clip-rule="evenodd" d="M405.02 54.1342C405.835 54.1342 406.496 53.0325 406.496 51.6735C406.496 50.3146 405.835 49.2129 405.02 49.2129C404.204 49.2129 403.543 50.3146 403.543 51.6735C403.543 53.0325 404.204 54.1342 405.02 54.1342Z" fill="#A3643B"/>
<g opacity="0.5">
<path fill-rule="evenodd" clip-rule="evenodd" d="M175.243 289.689C170.974 287.156 168.727 278.706 168.064 275.725L162.978 209.881C162.978 209.881 159.156 188.091 144.649 157.049C144.472 138.566 143.793 80.1269 142.142 73.8388L132.329 61.8932C132.812 61.0482 133.348 60.2354 133.936 59.4599L136.443 66.5553L145.489 65.5709L140.607 56.2246C147.29 50.812 148.631 41.1335 143.672 34.1031C144.837 32.5802 144.765 30.4452 143.501 29.0041C141.977 27.2283 140.166 25.7215 138.144 24.5466C130.84 17.4988 119.305 17.4122 111.897 24.3496C104.488 31.2869 103.801 42.8189 110.333 50.5891C109.825 51.164 109.167 51.587 108.434 51.8114C105.01 52.7736 102.282 55.2015 100.509 57.209C99.8731 57.9339 99.5835 58.9002 99.7161 59.856C99.8487 60.8118 100.39 61.6625 101.199 62.1863L102.679 63.132C103.885 63.8937 105.442 63.7979 106.545 62.8942L109.61 60.3613C109.709 60.282 109.852 60.2923 109.939 60.385C110.026 60.4776 110.027 60.6214 109.941 60.7153C109.221 61.4859 108.962 62.5804 109.259 63.593C109.556 64.6056 110.366 65.3852 111.388 65.6428H111.449L111.383 65.676L111.465 65.7479C108.704 68.5131 105.877 72.506 103.331 78.3793C99.239 83.3566 95.5004 93.4772 95.7655 113.774C95.4746 117.461 95.2722 121.413 95.158 125.631L90.442 145.12C90.442 145.12 54.0498 212.264 63.0954 221.113C63.0954 221.113 68.5404 222.086 76.2109 224.116L54.4419 253.006L54.7401 253.294L40.8735 263.442C40.8735 263.442 43.4304 269.94 45.1975 270.925C46.9647 271.909 47.5556 276.046 47.5556 276.046C47.5556 276.046 54.2376 289.629 59.1524 288.843C64.0673 288.058 60.5275 282.544 59.1524 276.638C58.0811 272.042 62.129 265.068 63.979 262.192L64.4649 262.657C64.4649 262.657 90.3039 243.212 100.194 232.339C105.606 234.745 110.77 237.56 114.989 240.801C114.989 240.801 122.416 222.683 129.385 192.687L129.446 192.781C135.548 201.9 145.82 217.905 146.234 222.871C146.825 229.961 149.183 255.749 152.723 262.64L155.28 276.029H155.434L153.065 293.782C153.065 293.782 159.521 296.425 161.454 295.828C163.386 295.231 166.777 297.664 166.777 297.664C166.777 297.664 181.196 302.227 184.029 298.129C186.862 294.031 180.456 292.775 175.243 289.689Z" fill="url(#paint2_linear)"/>
</g>
<path fill-rule="evenodd" clip-rule="evenodd" d="M123.524 62.0081C133.58 62.0081 141.732 53.8558 141.732 43.7995C141.732 33.7431 133.58 25.5908 123.524 25.5908C113.467 25.5908 105.315 33.7431 105.315 43.7995C105.315 53.8558 113.467 62.0081 123.524 62.0081Z" fill="black"/>
<path fill-rule="evenodd" clip-rule="evenodd" d="M80.7085 218.505L57.0864 249.716L66.6519 258.858C66.6519 258.858 99.7679 234.056 103.907 225.874C104.152 225.443 104.297 224.963 104.331 224.469C104.303 218.318 80.7085 218.505 80.7085 218.505Z" fill="#4285F4"/>
<path fill-rule="evenodd" clip-rule="evenodd" d="M124.918 185.639C124.918 185.639 144.773 213.934 145.345 220.724C145.917 227.514 148.182 252.225 151.586 258.827L154.046 271.654H166.339L161.419 208.274C161.419 208.274 157.072 183.562 139.859 149.606L118.11 161.492L124.918 185.639Z" fill="#4285F4"/>
<rect x="122.047" y="80.709" width="17.7165" height="73.8189" fill="white"/>
<path opacity="0.1" fill-rule="evenodd" clip-rule="evenodd" d="M137.659 150.584L142.716 162.402C142.716 162.402 142.167 84.9369 140.281 77.8111L128.133 62.9922L124.016 73.8682L133.361 85.4986C133.361 85.4986 139.165 102.757 138.231 119.641C137.296 136.525 137.659 150.584 137.659 150.584Z" fill="black"/>
<path fill-rule="evenodd" clip-rule="evenodd" d="M137.395 57.0869L143.701 69.8838L135.169 70.8664L130.905 58.0695L137.395 57.0869Z" fill="black"/>
<path fill-rule="evenodd" clip-rule="evenodd" d="M129.921 64.961C138.619 64.961 145.669 58.1307 145.669 49.7051C145.669 41.2795 138.619 34.4492 129.921 34.4492C121.224 34.4492 114.173 41.2795 114.173 49.7051C114.173 58.1307 121.224 64.961 129.921 64.961Z" fill="#FDA57D"/>
<path fill-rule="evenodd" clip-rule="evenodd" d="M129.362 70.8666C130.434 67.4339 132.317 64.3298 134.843 61.8336L120.595 58.0713L117.126 66.165L129.362 70.8666Z" fill="#FDA57D"/>
<path fill-rule="evenodd" clip-rule="evenodd" d="M123.455 64.9666C123.455 64.9666 97.8873 63.0795 96.2198 127.922L91.6788 146.583C91.6788 146.583 56.6627 210.862 65.3667 219.34C65.3667 219.34 98.3041 225.184 115.345 238.189C115.345 238.189 128.407 206.523 135.794 157.89C135.794 157.89 139.768 104.923 132.009 87.0145L135.794 77.9662L123.455 64.9666Z" fill="#3AD29F"/>
<path fill-rule="evenodd" clip-rule="evenodd" d="M137.664 150.584L142.716 162.402C142.716 162.402 142.167 84.9369 140.283 77.8111L128.129 62.9922L124.016 73.8682L133.352 85.4986C133.352 85.4986 139.152 102.757 138.218 119.641C137.285 136.525 137.664 150.584 137.664 150.584Z" fill="#3AD29F"/>
<path opacity="0.05" fill-rule="evenodd" clip-rule="evenodd" d="M137.664 150.584L142.716 162.402C142.716 162.402 142.167 84.9369 140.283 77.8111L128.129 62.9922L124.016 73.8682L133.352 85.4986C133.352 85.4986 139.152 102.757 138.218 119.641C137.285 136.525 137.664 150.584 137.664 150.584Z" fill="black"/>
<path opacity="0.1" fill-rule="evenodd" clip-rule="evenodd" d="M110.276 158.288C110.276 158.288 108.911 177.848 122.247 181.956C123.083 182.214 123.996 182.086 124.721 181.609C125.446 181.132 125.902 180.36 125.958 179.516C126.183 176.191 125.078 169.345 118.723 155.512L110.276 158.288Z" fill="black"/>
<path fill-rule="evenodd" clip-rule="evenodd" d="M110.276 157.304C110.276 157.304 108.911 176.864 122.247 180.971C123.083 181.229 123.996 181.101 124.721 180.625C125.446 180.148 125.902 179.376 125.958 178.532C126.183 175.207 125.078 168.361 118.723 154.527L110.276 157.304Z" fill="#FDA57D"/>
<path fill-rule="evenodd" clip-rule="evenodd" d="M132.874 99.4099C133.417 99.4099 133.858 98.9692 133.858 98.4257C133.858 97.8821 133.417 97.4414 132.874 97.4414C132.33 97.4414 131.89 97.8821 131.89 98.4257C131.89 98.9692 132.33 99.4099 132.874 99.4099Z" fill="#4D8AF0"/>
<path fill-rule="evenodd" clip-rule="evenodd" d="M132.874 126.969C133.417 126.969 133.858 126.528 133.858 125.984C133.858 125.441 133.417 125 132.874 125C132.33 125 131.89 125.441 131.89 125.984C131.89 126.528 132.33 126.969 132.874 126.969Z" fill="#4D8AF0"/>
<path fill-rule="evenodd" clip-rule="evenodd" d="M58.7642 249.016L44.2915 259.561C44.2915 259.561 46.7045 265.668 48.3713 266.591C50.0381 267.515 50.5991 271.405 50.5991 271.405C50.5991 271.405 56.9068 284.172 61.5476 283.434C66.1885 282.695 62.844 277.512 61.5476 271.959C60.2513 266.407 66.9293 257.165 66.9293 257.165L58.7642 249.016Z" fill="black"/>
<path fill-rule="evenodd" clip-rule="evenodd" d="M153.922 270.929L151.575 288.616C151.575 288.616 157.595 291.099 159.399 290.535C161.203 289.972 164.363 292.254 164.363 292.254C164.363 292.254 177.825 296.532 180.458 292.688C183.092 288.844 177.109 287.667 172.247 284.766C167.384 281.866 165.327 270.669 165.327 270.669L153.922 270.929Z" fill="black"/>
<path opacity="0.1" fill-rule="evenodd" clip-rule="evenodd" d="M113.571 77.8258C113.571 77.8258 94.3557 74.048 96.6462 122.038C96.6462 122.038 101.255 157.18 109.328 159.449L121.441 156.425L116.634 123.552L121.441 106.544C121.441 106.544 125.294 80.849 113.571 77.8258Z" fill="black"/>
<path opacity="0.1" fill-rule="evenodd" clip-rule="evenodd" d="M114.558 77.8258C114.558 77.8258 95.3398 74.048 97.6306 122.038C97.6306 122.038 102.24 157.18 110.315 159.449L122.423 156.425L117.616 123.552L122.423 106.55C122.423 106.55 126.283 80.849 114.558 77.8258Z" fill="black"/>
<path fill-rule="evenodd" clip-rule="evenodd" d="M114.559 77.8258C114.559 77.8258 95.3396 74.048 97.6306 122.038C97.6306 122.038 102.241 157.18 110.315 159.449L122.425 156.425L117.617 123.552L122.425 106.55C122.425 106.55 126.279 80.849 114.559 77.8258Z" fill="#3AD29F"/>
<path opacity="0.1" fill-rule="evenodd" clip-rule="evenodd" d="M110.236 160.433V159.109L119.644 156.496L120.079 157.613L110.236 160.433Z" fill="black"/>
<path opacity="0.1" fill-rule="evenodd" clip-rule="evenodd" d="M111.221 69.0918L130.355 86.614L130.906 86.2253L111.593 68.8975L111.221 69.0918Z" fill="black"/>
<path fill-rule="evenodd" clip-rule="evenodd" d="M117.126 69.9334L128.17 67.9131L137.795 80.3908L132.226 83.6611L117.126 69.9334Z" fill="#3AD29F"/>
<path fill-rule="evenodd" clip-rule="evenodd" d="M141.664 39.8893L134.62 47.5022V52.1678C134.621 55.2193 134.038 58.2417 132.903 61.0652L128.171 72.832C127.526 74.4408 125.731 75.2197 124.148 74.5781L120.163 72.9655C119.377 72.6486 118.751 72.0189 118.431 71.2216C118.11 70.4242 118.121 69.5279 118.462 68.7392L119.579 66.1367C119.629 66.0262 119.587 65.8951 119.483 65.8355C119.379 65.7759 119.248 65.8078 119.181 65.9087L116.908 69.2119C116.173 70.2738 114.876 70.7698 113.637 70.4631L111.456 69.907C110.488 69.6622 109.72 68.9118 109.438 67.9357C109.157 66.9595 109.404 65.9042 110.088 65.1636C110.18 65.0745 110.184 64.9264 110.096 64.8327C110.009 64.739 109.864 64.7353 109.772 64.8243L106.877 67.26C105.838 68.1341 104.366 68.2262 103.23 67.488L101.834 66.5816C101.065 66.0818 100.549 65.2631 100.423 64.3417C100.297 63.4203 100.574 62.4889 101.18 61.7937C102.854 59.864 105.427 57.5285 108.665 56.5998C112.062 55.6266 113.272 49.5208 113.692 44.4604C114.195 37.7691 118.444 31.9772 124.595 29.5961C129.654 27.6832 135.869 27.8389 141.789 34.6621C143.072 36.1781 143.018 38.4392 141.664 39.8893Z" fill="black"/>
<path opacity="0.1" fill-rule="evenodd" clip-rule="evenodd" d="M134.905 153.543L134.842 154.527L138.779 154.032L138.574 153.543H134.905Z" fill="black"/>
<path opacity="0.1" fill-rule="evenodd" clip-rule="evenodd" d="M135.43 154.527H136.811C136.811 154.527 132.966 191.258 129.229 191.929L128.937 191.482C128.937 191.482 135.056 161.571 135.43 154.527Z" fill="black"/>
<g opacity="0.5">
<path fill-rule="evenodd" clip-rule="evenodd" d="M359.207 90.1093L360.764 87.067L344.082 78.6634L343.676 79.464L343.181 79.2155L340.79 83.8922C340.39 81.6836 339.917 79.6241 339.422 77.7137C338.649 73.2966 337.754 69.1555 336.897 65.6329C336.864 65.3292 336.831 65.0255 336.797 64.7384C335.396 52.3925 327.9 46.6005 322.306 43.9613C328.539 42.855 333.905 38.9479 336.842 33.3784C339.779 27.8089 339.955 21.2037 337.32 15.4874C339.272 13.8917 339.795 11.2138 337.615 6.88502C337.615 6.88502 299.574 -12.9921 293.084 14.8248C291.827 20.3149 292.151 26.0454 294.019 31.3614C295.075 34.4581 296.573 37.3884 298.467 40.0632C288.675 41.692 271.22 46.4515 266.771 59.9679C261.816 74.9199 264.63 103.278 266.076 114.851C266.182 115.696 266.489 116.504 266.971 117.208C267.21 117.81 267.574 118.356 268.039 118.81V146.317L268.545 146.179V146.82C268.545 146.82 268.773 146.765 269.184 146.643C269.74 172.511 273.31 212.983 273.583 216.042V215.975V216.102C270.802 237.94 268.022 287.881 268.022 287.881V288.008V287.881H273.583V308.409C273.583 309.372 274.123 310.253 274.984 310.695C277.709 312.087 283.726 315.112 286.979 316.244C291.277 317.752 301.387 316.244 301.387 316.244C301.893 313.732 293.802 311.474 293.802 311.474L284.193 300.944V287.892H286.217V287.864V288.019C293.001 281.553 310.417 160.121 310.756 157.774L306.719 278.102V278.229V278.102H309.739V297.549C309.737 298.562 310.306 299.491 311.212 299.956C313.993 301.364 319.909 304.34 323.135 305.478C327.433 306.985 337.543 305.478 337.543 305.478C338.049 302.965 329.958 300.707 329.958 300.707L320.371 290.167V278.102H324.163C327.355 265.403 332.694 171.539 334.306 142.088C336.87 143.822 338.827 143.551 338.827 143.551V143.314C338.972 143.322 339.116 143.322 339.261 143.314C339.446 143.329 339.632 143.329 339.817 143.314C339.817 143.314 339.695 133.855 339.4 121.228L345.355 115.778L345.433 115.817L345.539 115.613L346.067 115.132L346.34 115.27L346.707 114.547L354.247 107.667L354.764 107.193L354.069 105.873C358.201 103.322 360.592 98.6951 361.938 94.7804C362.285 93.8003 362.182 92.7183 361.657 91.8197C361.132 90.921 360.237 90.296 359.207 90.1093Z" fill="url(#paint3_linear)"/>
</g>
<path fill-rule="evenodd" clip-rule="evenodd" d="M319.882 269.836V289.37H310.04V267.717L319.882 269.836Z" fill="#FEC9B1"/>
<path fill-rule="evenodd" clip-rule="evenodd" d="M320.681 283.588L329.632 293.928C329.632 293.928 337.073 296.124 336.592 298.561C336.592 298.561 327.293 300.027 323.342 298.561C320.371 297.438 314.91 294.574 312.378 293.203C311.545 292.752 311.023 291.85 311.023 290.867V283.465L320.681 283.588Z" fill="#381E1D"/>
<path fill-rule="evenodd" clip-rule="evenodd" d="M285.433 279.678V299.212H275.59V277.559L285.433 279.678Z" fill="#FEC9B1"/>
<path fill-rule="evenodd" clip-rule="evenodd" d="M285.251 294.437L294.2 304.771C294.2 304.771 301.64 306.96 301.158 309.39C301.158 309.39 291.861 310.851 287.911 309.39C284.914 308.27 279.385 305.364 276.88 304.015C276.08 303.584 275.581 302.717 275.59 301.776V294.291L285.251 294.437Z" fill="#381E1D"/>
<path fill-rule="evenodd" clip-rule="evenodd" d="M333.662 134.355C333.662 134.355 327.216 257.831 323.639 272.18H307.155L310.974 157.542C310.974 157.542 294.27 275.287 287.83 281.496H270.669C270.669 281.496 273.296 233.967 275.917 213.189C275.917 213.189 268.774 132.942 273.054 126.969H331.98L333.662 134.355Z" fill="#4D8AF0"/>
<g opacity="0.1">
<path fill-rule="evenodd" clip-rule="evenodd" d="M277.892 193.867C277.246 199.067 276.6 205.938 275.992 213.322C275.629 209.17 269.053 132.875 273.182 127.052H273.768C274.278 152.689 277.892 193.867 277.892 193.867Z" fill="black"/>
<path fill-rule="evenodd" clip-rule="evenodd" d="M270.827 281.995C270.827 281.995 273.361 235.452 275.922 214.248L270.827 281.995Z" fill="black"/>
<path fill-rule="evenodd" clip-rule="evenodd" d="M312.531 138.069L308.76 253.016L306.877 272.653L310.648 157.707C310.648 157.707 294.153 275.769 287.794 281.995" fill="black"/>
</g>
<path fill-rule="evenodd" clip-rule="evenodd" d="M345.715 102.535C348.131 99.0727 351.294 96.1546 354.987 93.98C356.236 93.2576 357.82 93.3652 358.952 94.2491C360.083 95.1331 360.521 96.6049 360.048 97.933C357.973 103.811 353.37 111.286 343.504 110.114L345.715 102.535Z" fill="#FEC9B1"/>
<path opacity="0.1" fill-rule="evenodd" clip-rule="evenodd" d="M334.656 69.8818C334.656 69.8818 334.863 70.3532 335.186 71.2183C336.918 75.7103 342.137 90.8221 340.399 105.762L346.842 98.7801L352.362 109.871L334.646 126.968L334.656 69.8818Z" fill="black"/>
<path fill-rule="evenodd" clip-rule="evenodd" d="M331.693 59.0547C331.693 59.0547 333.021 59.6081 333.346 60.4992C335.147 64.9821 341.73 90.8944 339.923 105.804L346.622 98.8364L352.362 109.905L333.94 126.968L331.693 59.0547Z" fill="#4285F4"/>
<path fill-rule="evenodd" clip-rule="evenodd" d="M321.56 50.1973L329.724 129.922H289.37L299.698 51.6362L321.56 50.1973Z" fill="#333333"/>
<path opacity="0.1" fill-rule="evenodd" clip-rule="evenodd" d="M315.945 46.2598C315.945 46.2598 333.525 48.9142 335.693 68.2061C337.862 87.498 338.583 143.686 338.583 143.686C338.583 143.686 323.199 145.857 322.932 98.1103C322.666 50.3636 315.945 46.2598 315.945 46.2598Z" fill="black"/>
<path opacity="0.1" fill-rule="evenodd" clip-rule="evenodd" d="M314.96 47.2441C314.96 47.2441 332.545 49.8986 334.714 69.1905C336.883 88.4824 337.598 144.67 337.598 144.67C337.598 144.67 322.183 146.841 321.939 99.0946C321.695 51.348 314.96 47.2441 314.96 47.2441Z" fill="black"/>
<path fill-rule="evenodd" clip-rule="evenodd" d="M314.96 46.2598C314.96 46.2598 332.541 48.9142 334.709 68.2061C336.877 87.498 337.598 143.686 337.598 143.686C337.598 143.686 322.187 145.857 321.943 98.1103C321.699 50.3636 314.96 46.2598 314.96 46.2598Z" fill="#4285F4"/>
<path fill-rule="evenodd" clip-rule="evenodd" d="M343.99 117.712L328.178 109.683L341.846 82.7412L357.657 90.7703L343.99 117.712Z" fill="#F5F5F5"/>
<path fill-rule="evenodd" clip-rule="evenodd" d="M344.844 117.185L329.032 109.155L342.7 82.2138L358.511 90.2429L344.844 117.185Z" fill="#E0E0E0"/>
<path fill-rule="evenodd" clip-rule="evenodd" d="M323.02 104.384C325.729 100.334 329.401 97.0316 333.703 94.7775C334.653 94.2956 335.796 94.4236 336.618 95.1039C337.439 95.7842 337.785 96.8887 337.5 97.9207C335.807 104.008 331.455 113.415 320.866 112.076L323.02 104.384Z" fill="#FEC9B1"/>
<path fill-rule="evenodd" clip-rule="evenodd" d="M306.115 33.4648C306.115 33.4648 304.684 41.504 299.212 44.358L300.857 54.053L312.08 63.9767L317.913 51.5584L316.126 45.0552L306.115 33.4648Z" fill="#FEC9B1"/>
<path opacity="0.1" fill-rule="evenodd" clip-rule="evenodd" d="M270.669 115.585V147.638C270.669 147.638 306.953 138.481 305.046 97.5164C303.138 56.5515 301.747 45.2754 301.747 45.2754L274.969 75.8242L270.669 115.585Z" fill="black"/>
<path fill-rule="evenodd" clip-rule="evenodd" d="M270.669 115.579V147.638C270.669 147.638 306.953 138.481 305.046 97.5164C303.138 56.5515 301.747 45.2754 301.747 45.2754L274.963 75.8298L270.669 115.579Z" fill="#4285F4"/>
<path opacity="0.1" fill-rule="evenodd" clip-rule="evenodd" d="M315.861 46.0827L316.929 50.1973C311.431 49.8607 306.37 46.9466 303.149 42.2631C304.719 39.9178 305.808 37.2574 306.349 34.4492L315.861 46.0827Z" fill="black"/>
<path fill-rule="evenodd" clip-rule="evenodd" d="M318.405 49.213C329.005 49.213 337.598 40.62 337.598 30.0201C337.598 19.4201 329.005 10.8271 318.405 10.8271C307.805 10.8271 299.212 19.4201 299.212 30.0201C299.212 40.62 307.805 49.213 318.405 49.213Z" fill="#FEC9B1"/>
<path opacity="0.1" fill-rule="evenodd" clip-rule="evenodd" d="M269.374 65.3918C264.615 79.8966 267.473 107.688 268.826 118.192C269.112 120.527 271.184 122.222 273.524 122.033L324.803 118.066V101.355L288.42 100.641L293.408 68.4871C293.408 68.4871 275.337 47.276 269.374 65.3918Z" fill="black"/>
<path fill-rule="evenodd" clip-rule="evenodd" d="M305.575 44.291C305.575 44.291 275.32 45.8599 269.376 64.0905C264.714 78.3766 267.36 105.479 268.719 116.539C269.059 119.276 271.47 121.26 274.197 121.047L324.803 117.103V100.308L288.412 99.5958L293.408 67.2117L305.575 44.291Z" fill="#4285F4"/>
<path fill-rule="evenodd" clip-rule="evenodd" d="M337.241 13.5061C337.241 13.5061 301.162 -5.60697 295.005 21.1369C293.813 26.4138 294.119 31.9219 295.889 37.032C297.766 42.5175 301.565 49.537 309.141 53.1495L310.643 36.165H311.267C313.819 36.165 315.888 34.0823 315.888 31.5132V22.1817C315.888 22.1817 345.098 29.3512 337.241 13.5061Z" fill="#381E1D"/>
<path fill-rule="evenodd" clip-rule="evenodd" d="M311.024 40.3546C312.111 40.3546 312.992 38.8123 312.992 36.9097C312.992 35.0072 312.111 33.4648 311.024 33.4648C309.937 33.4648 309.055 35.0072 309.055 36.9097C309.055 38.8123 309.937 40.3546 311.024 40.3546Z" fill="#FEC9B1"/>
<path fill-rule="evenodd" clip-rule="evenodd" d="M348.399 94.842C348.878 93.8985 348.501 92.7453 347.558 92.2664C346.615 91.7875 345.463 92.1642 344.984 93.1078C344.505 94.0513 344.882 95.2045 345.825 95.6834C346.768 96.1623 347.921 95.7856 348.399 94.842Z" fill="#F5F5F5"/>
<g opacity="0.5">
<path fill-rule="evenodd" clip-rule="evenodd" d="M242.412 161.218C242.378 155.037 238.606 149.132 235.905 145.704L237.211 143.935L233.433 121.389C233.433 121.389 233.238 119.227 233.21 115.434C233.951 110.019 234.254 104.554 234.116 99.0908C234.383 96.6415 234.727 94.043 235.161 91.3228C236.594 82.3938 233.533 76.8262 230.16 73.5034C228.173 71.477 225.751 69.9234 223.076 68.9587H223.009C223.22 68.2455 223.431 67.6705 223.62 67.2061C223.72 66.9849 223.804 66.8301 223.854 66.7306C228.52 65.4761 232.316 62.1004 234.092 57.6264C235.867 53.1524 235.412 48.1067 232.866 44.0182C235.144 42.3596 232.244 41.6519 232.244 41.6519C230.937 36.0161 226.534 31.6041 220.879 30.2654C215.224 28.9267 209.296 30.8928 205.579 35.3393C201.862 39.7858 200.999 45.9444 203.351 51.2333C203.029 55.8112 204.09 61.6662 210.702 64.3366L210.963 64.5246C209.043 66.1439 206.821 67.3707 204.423 68.1349C200.306 68.5993 194.756 71.9553 190.399 84.5389C186.01 97.2221 185.032 115.827 185.038 129.925C185.038 139.822 185.493 147.59 185.638 149.718H185.11C178.865 168.173 193 217.402 193 217.402L190.922 278.285H191.966L190.122 292.036C190.122 292.036 196.322 294.562 198.178 293.987C200.034 293.412 203.29 295.74 203.29 295.74C203.29 295.74 217.142 300.097 219.859 296.182C220.892 294.695 220.637 293.595 219.653 292.649C223.909 293.678 231.188 294.96 233.077 292.235C235.8 288.32 229.627 287.126 224.62 284.174C221.348 282.244 219.309 276.715 218.292 273.116H219.342L232.183 209.606V168.301C232.849 168.629 233.479 168.92 234.072 169.174V297.172H239.739V170.943C240.593 171.071 241.459 170.796 242.08 170.199C242.702 169.602 243.009 168.751 242.912 167.897C242.867 167.482 242.806 167.079 242.734 166.686C244.54 167.576 245.979 170.556 246.723 172.768C247.835 176.152 251.635 169.196 251.635 169.196C248.612 163.214 245.318 161.301 242.412 161.218Z" fill="url(#paint4_linear)"/>
</g>
<rect x="233.268" y="165.354" width="5.90551" height="125.984" fill="#381E1D"/>
<path fill-rule="evenodd" clip-rule="evenodd" d="M233.268 165.608C233.268 165.608 242.447 154.225 250 168.979C250 168.979 246.402 175.548 245.32 172.35C244.237 169.152 241.656 164.377 238.629 167.212" fill="#381E1D"/>
<path fill-rule="evenodd" clip-rule="evenodd" d="M233.226 143.701C233.226 143.701 247.031 156.87 240.254 167.995C239.83 168.693 239.097 169.164 238.268 169.269C237.438 169.375 236.604 169.104 236.008 168.536C233.662 166.29 229.958 160.712 225.394 146.893L233.226 143.701Z" fill="#FDA57D"/>
<path opacity="0.1" fill-rule="evenodd" clip-rule="evenodd" d="M223.854 72.835C223.854 72.835 237.926 77.1675 235.222 94.1394C232.517 111.111 233.597 123.028 233.597 123.028L237.205 144.697L230.705 153.544C230.705 153.544 219.525 142.365 215.735 130.971C211.946 119.578 212.304 74.6374 223.854 72.835Z" fill="black"/>
<path fill-rule="evenodd" clip-rule="evenodd" d="M223.842 71.8506C223.842 71.8506 237.909 76.1816 235.206 93.1477C232.503 110.114 233.582 122.027 233.582 122.027L237.205 143.688L230.697 152.559C230.697 152.559 219.515 141.34 215.732 129.967C211.95 118.594 212.302 73.6579 223.842 71.8506Z" fill="#4285F4"/>
<path fill-rule="evenodd" clip-rule="evenodd" d="M207.069 265.964L204.725 282.936C204.725 282.936 210.74 285.316 212.558 284.781C214.377 284.245 217.521 286.431 217.521 286.431C217.521 286.431 230.95 290.537 233.602 286.847C236.254 283.158 230.245 282.027 225.394 279.273C220.543 276.52 218.484 265.748 218.484 265.748L207.069 265.964Z" fill="black"/>
<path fill-rule="evenodd" clip-rule="evenodd" d="M232.284 143.701V207.668L219.97 268.701H206.937L208.927 210.177C208.927 210.177 195.348 162.853 201.322 145.151L232.284 143.701Z" fill="#333333"/>
<path fill-rule="evenodd" clip-rule="evenodd" d="M221.8 151.575C221.8 151.575 240.765 154.251 242.112 167.331C242.195 168.15 241.895 168.962 241.299 169.532C240.702 170.102 239.876 170.366 239.058 170.248C235.833 169.786 229.498 167.397 217.52 158.776L221.8 151.575Z" fill="#FDA57D"/>
<path fill-rule="evenodd" clip-rule="evenodd" d="M224.41 69.7524C224.41 69.7524 221.298 74.8581 222.578 83.6614C222.578 83.6614 204.189 82.1673 204.737 71.9559C204.737 71.9559 213.702 69.8437 215.808 62.0078L224.41 69.7524Z" fill="#FDA57D"/>
<path fill-rule="evenodd" clip-rule="evenodd" d="M194.274 269.901L191.929 286.872C191.929 286.872 197.944 289.253 199.763 288.717C201.581 288.182 204.726 290.367 204.726 290.367C204.726 290.367 218.155 294.474 220.807 290.784C223.459 287.094 217.45 285.964 212.598 283.21C207.747 280.456 205.688 269.685 205.688 269.685L194.274 269.901Z" fill="black"/>
<path opacity="0.1" fill-rule="evenodd" clip-rule="evenodd" d="M218.504 148.622V212.592L206.196 273.622H193.154L195.143 215.095C195.143 215.095 181.57 167.769 187.541 150.067L218.504 148.622Z" fill="black"/>
<path fill-rule="evenodd" clip-rule="evenodd" d="M218.504 148.622V212.592L206.204 273.622H193.153L195.141 215.095C195.141 215.095 181.571 167.769 187.541 150.067L218.504 148.622Z" fill="#333333"/>
<path opacity="0.1" fill-rule="evenodd" clip-rule="evenodd" d="M210.916 72.0708C210.916 72.0708 199.622 64.6162 192.098 86.7968C184.574 108.977 187.616 149.886 187.616 149.886C187.616 149.886 219.698 160.433 231.173 145.707V123.703C231.173 123.703 237.269 98.6143 228.662 76.7944C228.662 76.7944 221.132 79.8862 210.916 72.0708Z" fill="black"/>
<path opacity="0.1" fill-rule="evenodd" clip-rule="evenodd" d="M210.916 73.0551C210.916 73.0551 199.622 65.6005 192.098 87.7812C184.574 109.962 187.616 150.871 187.616 150.871C187.616 150.871 219.698 161.417 231.173 146.691V124.693C231.173 124.693 237.269 99.6042 228.662 77.7843C228.656 77.7788 221.132 80.8705 210.916 73.0551Z" fill="black"/>
<path fill-rule="evenodd" clip-rule="evenodd" d="M210.916 72.0708C210.916 72.0708 199.622 64.6162 192.098 86.7968C184.574 108.977 187.616 149.886 187.616 149.886C187.616 149.886 219.698 160.433 231.173 145.707V123.703C231.173 123.703 237.269 98.6143 228.662 76.7944C228.656 76.7944 221.132 79.8862 210.916 72.0708Z" fill="#4285F4"/>
<path opacity="0.1" fill-rule="evenodd" clip-rule="evenodd" d="M199.332 83.6611C199.332 83.6611 213.506 88.004 210.8 105.098C208.094 122.192 209.161 134.167 209.161 134.167L227.362 152.515L220.812 161.417C220.812 161.417 194.971 153.602 191.148 142.16C187.326 130.717 187.687 85.4748 199.332 83.6611Z" fill="black"/>
<path opacity="0.1" fill-rule="evenodd" clip-rule="evenodd" d="M198.353 83.6611C198.353 83.6611 212.546 88.0148 209.818 105.097C207.091 122.179 208.18 134.164 208.18 134.164L226.378 152.516L219.829 161.417C219.829 161.417 193.992 153.603 190.164 142.156C186.337 130.708 186.709 85.4802 198.353 83.6611Z" fill="black"/>
<path fill-rule="evenodd" clip-rule="evenodd" d="M199.315 83.6611C199.315 83.6611 213.508 88.0207 210.78 105.098C208.053 122.176 209.142 134.167 209.142 134.167L227.362 152.515L220.813 161.417C220.813 161.417 194.976 153.602 191.154 142.16C187.332 130.717 187.671 85.4748 199.315 83.6611Z" fill="#4285F4"/>
<path opacity="0.1" fill-rule="evenodd" clip-rule="evenodd" d="M215.816 61.0234L224.41 69.5112C224.27 69.7792 224.143 70.0544 224.03 70.3358C222.783 70.6875 221.498 70.8657 220.208 70.866C216.927 70.866 214.07 69.0989 211.614 67.2023C213.327 65.5766 214.806 63.9685 215.816 61.0234Z" fill="black"/>
<path fill-rule="evenodd" clip-rule="evenodd" d="M217.52 63.9768C225.673 63.9768 232.283 57.3668 232.283 49.213C232.283 41.0592 225.673 34.4492 217.52 34.4492C209.366 34.4492 202.756 41.0592 202.756 49.213C202.756 57.3668 209.366 63.9768 217.52 63.9768Z" fill="#E0E0E0"/>
<path fill-rule="evenodd" clip-rule="evenodd" d="M220.472 70.8664C228.626 70.8664 235.236 64.2565 235.236 56.1026C235.236 47.9488 228.626 41.3389 220.472 41.3389C212.318 41.3389 205.708 47.9488 205.708 56.1026C205.708 64.2565 212.318 70.8664 220.472 70.8664Z" fill="#FDA57D"/>
<path fill-rule="evenodd" clip-rule="evenodd" d="M205.983 49.2129C205.983 49.2129 200.657 63.5135 211.919 67.9137C213.822 66.9168 215.143 65.0433 215.472 62.8764C215.801 60.7094 215.097 58.512 213.58 56.9682L205.983 49.2129Z" fill="#E0E0E0"/>
<path fill-rule="evenodd" clip-rule="evenodd" d="M232.794 45.8123C232.794 45.8123 237.926 47.0336 228.934 50.0978C225.948 51.0873 223.513 53.2486 222.211 56.0665C221.397 57.7871 219.894 59.1001 218.059 59.6941C216.224 60.2881 214.22 60.11 212.524 59.2022L209.677 57.6674L204.725 46.3129L210.591 39.6455L220.675 38.3857L232.794 45.8123Z" fill="#E0E0E0"/>
<path fill-rule="evenodd" clip-rule="evenodd" d="M216.043 62.9925C216.859 62.9925 217.52 61.8909 217.52 60.5319C217.52 59.173 216.859 58.0713 216.043 58.0713C215.228 58.0713 214.567 59.173 214.567 60.5319C214.567 61.8909 215.228 62.9925 216.043 62.9925Z" fill="#FDA57D"/>
<path fill-rule="evenodd" clip-rule="evenodd" d="M210.63 71.8506C210.63 71.8506 220.767 87.5986 226.531 87.5986C232.295 87.5986 222.493 72.8292 222.493 72.8292L222.26 76.9125L210.63 71.8506Z" fill="#333333"/>
<g opacity="0.5">
<path fill-rule="evenodd" clip-rule="evenodd" d="M268.347 209.293C235.602 209.293 201.692 205.99 166.966 199.349C73.5814 181.531 23.1196 146.973 20.36 145.492L12.0371 131.676C12.8153 132.095 79.1281 167.286 170.244 184.598C253.865 200.489 376.214 204.139 484.23 131.291L481.856 147.926C432.184 181.442 386.375 198.215 324.323 205.907C305.752 208.186 287.058 209.317 268.347 209.293Z" fill="url(#paint5_linear)"/>
</g>
<path fill-rule="evenodd" clip-rule="evenodd" d="M268.259 207.677C235.496 207.677 201.568 204.384 166.823 197.766C73.3884 180.009 22.8995 145.571 20.1384 144.095L11.811 130.305C12.5897 130.722 78.9381 165.792 170.103 183.044C253.763 198.875 376.178 202.513 484.252 129.921L481.877 146.498C432.178 179.9 386.344 196.614 324.259 204.28C305.681 206.558 286.978 207.693 268.259 207.677Z" fill="#F55F44"/>
<g opacity="0.5">
<path fill-rule="evenodd" clip-rule="evenodd" d="M29.0376 270.578H26.3506V130.748C30.87 128.163 33.0734 122.892 31.7227 117.898C30.3721 112.904 25.8041 109.432 20.5855 109.432C15.3669 109.432 10.7989 112.904 9.44826 117.898C8.09759 122.892 10.301 128.163 14.8204 130.748V270.578H12.1334C5.43232 270.578 0 275.96 0 282.599V290.973H41.1766V282.599C41.1766 279.41 39.8975 276.352 37.6208 274.097C35.3441 271.843 32.2565 270.577 29.0376 270.578Z" fill="url(#paint6_linear)"/>
</g>
<rect x="14.7637" y="119.095" width="10.8268" height="154.528" fill="#E0E0E0"/>
<path fill-rule="evenodd" clip-rule="evenodd" d="M11.2923 267.717H29.0514C34.7503 267.717 39.3702 272.455 39.3702 278.3V287.402H0.984375V278.295C0.987368 272.456 5.59975 267.723 11.2923 267.717Z" fill="#E0E0E0"/>
<path opacity="0.1" fill-rule="evenodd" clip-rule="evenodd" d="M20.6691 136.811C26.6485 136.811 31.4958 131.963 31.4958 125.984C31.4958 120.005 26.6485 115.157 20.6691 115.157C14.6896 115.157 9.84229 120.005 9.84229 125.984C9.84229 131.963 14.6896 136.811 20.6691 136.811Z" fill="black"/>
<path fill-rule="evenodd" clip-rule="evenodd" d="M20.6691 135.826C26.6485 135.826 31.4958 130.979 31.4958 125C31.4958 119.02 26.6485 114.173 20.6691 114.173C14.6896 114.173 9.84229 119.02 9.84229 125C9.84229 130.979 14.6896 135.826 20.6691 135.826Z" fill="#E0E0E0"/>
<path opacity="0.1" fill-rule="evenodd" clip-rule="evenodd" d="M14.7637 268.701C14.7637 268.701 21.7226 270.916 25.5904 268.701H14.7637Z" fill="black"/>
<rect x="474.41" y="119.095" width="10.8268" height="154.528" fill="#E0E0E0"/>
<path fill-rule="evenodd" clip-rule="evenodd" d="M470.938 267.722H488.697C494.396 267.722 499.016 272.459 499.016 278.303V287.402H460.63V278.297C460.63 272.454 465.25 267.717 470.949 267.717L470.938 267.722Z" fill="#E0E0E0"/>
<path opacity="0.1" fill-rule="evenodd" clip-rule="evenodd" d="M480.315 136.811C486.295 136.811 491.142 131.963 491.142 125.984C491.142 120.005 486.295 115.157 480.315 115.157C474.336 115.157 469.488 120.005 469.488 125.984C469.488 131.963 474.336 136.811 480.315 136.811Z" fill="black"/>
<path fill-rule="evenodd" clip-rule="evenodd" d="M480.315 135.826C486.295 135.826 491.142 130.979 491.142 125C491.142 119.02 486.295 114.173 480.315 114.173C474.336 114.173 469.488 119.02 469.488 125C469.488 130.979 474.336 135.826 480.315 135.826Z" fill="#E0E0E0"/>
<path opacity="0.1" fill-rule="evenodd" clip-rule="evenodd" d="M474.41 268.701C474.41 268.701 481.369 270.916 485.236 268.701H474.41Z" fill="black"/>
<defs>
<linearGradient id="paint0_linear" x1="499.856" y1="290.973" x2="499.856" y2="109.445" gradientUnits="userSpaceOnUse">
<stop stop-color="#808080" stop-opacity="0.25"/>
<stop offset="0.54" stop-color="#808080" stop-opacity="0.12"/>
<stop offset="1" stop-color="#808080" stop-opacity="0.1"/>
</linearGradient>
<linearGradient id="paint1_linear" x1="462.39" y1="290.194" x2="462.39" y2="14.835" gradientUnits="userSpaceOnUse">
<stop stop-color="#808080" stop-opacity="0.25"/>
<stop offset="0.54" stop-color="#808080" stop-opacity="0.12"/>
<stop offset="1" stop-color="#808080" stop-opacity="0.1"/>
</linearGradient>
<linearGradient id="paint2_linear" x1="184.732" y1="299.838" x2="184.732" y2="19.2043" gradientUnits="userSpaceOnUse">
<stop stop-color="#808080" stop-opacity="0.25"/>
<stop offset="0.54" stop-color="#808080" stop-opacity="0.12"/>
<stop offset="1" stop-color="#808080" stop-opacity="0.1"/>
</linearGradient>
<linearGradient id="paint3_linear" x1="362.14" y1="316.929" x2="362.14" y2="-0.000179828" gradientUnits="userSpaceOnUse">
<stop stop-color="#808080" stop-opacity="0.25"/>
<stop offset="0.54" stop-color="#808080" stop-opacity="0.12"/>
<stop offset="1" stop-color="#808080" stop-opacity="0.1"/>
</linearGradient>
<linearGradient id="paint4_linear" x1="251.654" y1="297.813" x2="251.654" y2="29.7815" gradientUnits="userSpaceOnUse">
<stop stop-color="#808080" stop-opacity="0.25"/>
<stop offset="0.54" stop-color="#808080" stop-opacity="0.12"/>
<stop offset="1" stop-color="#808080" stop-opacity="0.1"/>
</linearGradient>
<linearGradient id="paint5_linear" x1="484.231" y1="209.293" x2="484.231" y2="131.291" gradientUnits="userSpaceOnUse">
<stop stop-color="#808080" stop-opacity="0.25"/>
<stop offset="0.54" stop-color="#808080" stop-opacity="0.12"/>
<stop offset="1" stop-color="#808080" stop-opacity="0.1"/>
</linearGradient>
<linearGradient id="paint6_linear" x1="41.1722" y1="290.973" x2="41.1722" y2="109.445" gradientUnits="userSpaceOnUse">
<stop stop-color="#808080" stop-opacity="0.25"/>
<stop offset="0.54" stop-color="#808080" stop-opacity="0.12"/>
<stop offset="1" stop-color="#808080" stop-opacity="0.1"/>
</linearGradient>
</defs>
</svg>
