<svg width="330" height="330" viewBox="0 0 330 330" fill="none" xmlns="http://www.w3.org/2000/svg">
<path opacity="0.1" d="M164.999 330C255.879 330 330 255.879 330 165.001C330 74.1224 255.879 0 164.999 0C74.1211 0 0 74.1224 0 165.001C0 255.879 74.1211 330 164.999 330Z" fill="#4285F4"/>
<path fill-rule="evenodd" clip-rule="evenodd" d="M79 109.219L165 73L251 109.219V140.945C251 195.903 218.09 245.376 167.293 267.085L165 268L162.707 267.085C111.91 245.376 79 195.903 79 140.945V109.219ZM119.133 170.881C119.133 196.132 139.658 216.584 165 216.584C190.342 216.584 210.867 196.132 210.867 170.881C210.867 145.63 190.342 125.178 165 125.178C139.658 125.178 119.133 145.63 119.133 170.881Z" fill="#4285F4"/>
<path fill-rule="evenodd" clip-rule="evenodd" d="M251 109.219V140.945C251 195.903 218.09 245.376 167.293 267.085L165 268V216.584C190.342 216.584 210.867 196.132 210.867 170.881C210.867 145.63 190.342 125.178 165 125.178V73L251 109.219Z" fill="#3B78DC"/>
<path fill-rule="evenodd" clip-rule="evenodd" d="M165.5 120C137.118 120 114 142.892 114 171C114 199.106 137.118 222 165.5 222C193.882 222 217 199.106 217 171C217 142.892 193.882 120 165.5 120Z" fill="#E0F4FF"/>
<path fill-rule="evenodd" clip-rule="evenodd" d="M217 171C217 199.106 193.657 222 165 222V120C193.657 120 217 142.892 217 171Z" fill="#BBDCFF"/>
<path opacity="0.3" fill-rule="evenodd" clip-rule="evenodd" d="M198 158.865L171.5 185.382L165.862 191L145 170.101L152.894 162.236L165.862 175.044L171.5 169.427L190.106 151L198 158.865Z" fill="#A8A8A8"/>
<path fill-rule="evenodd" clip-rule="evenodd" d="M191 158.865L164.5 185.382L158.862 191L138 170.101L145.894 162.236L158.862 175.044L164.5 169.427L183.106 151L191 158.865Z" fill="#575A89"/>
<path fill-rule="evenodd" clip-rule="evenodd" d="M191 158.778L165 185V169.222L183.255 151L191 158.778Z" fill="#47568C"/>
</svg>
