<svg width="474" height="392" viewBox="0 0 474 392" fill="none" xmlns="http://www.w3.org/2000/svg">
<path fill-rule="evenodd" clip-rule="evenodd" d="M90 303C90 303 266.403 156.75 368 303H90Z" fill="#F2F2F2"/>
<path fill-rule="evenodd" clip-rule="evenodd" d="M379 392C424.287 392 461 386.404 461 379.5C461 372.596 424.287 367 379 367C333.713 367 297 372.596 297 379.5C297 386.404 333.713 392 379 392Z" fill="#F2F2F2"/>
<path fill-rule="evenodd" clip-rule="evenodd" d="M391 387C436.287 387 473 381.404 473 374.5C473 367.596 436.287 362 391 362C345.713 362 309 367.596 309 374.5C309 381.404 345.713 387 391 387Z" stroke="#3F3D56"/>
<path fill-rule="evenodd" clip-rule="evenodd" d="M426.598 242.488C429.99 243.721 433.791 242.677 436.077 239.884C438.364 237.091 438.637 233.159 436.758 230.076C434.88 226.994 431.26 225.435 427.73 226.187L427.942 230.562L425.873 226.813C423.842 227.767 422.273 229.489 421.51 231.6C421.24 232.34 421.075 233.114 421.021 233.899C420.753 237.687 423.029 241.193 426.598 242.488Z" fill="#57B894"/>
<path d="M436.568 292C435.853 288.406 438.953 285.22 442.015 283.149C445.078 281.078 448.656 279.043 449.701 275.528C451.203 270.477 446.73 265.851 443.248 261.861C440.665 258.901 438.447 255.649 436.64 252.173C435.854 250.808 435.319 249.317 435.059 247.768C434.785 245.529 435.514 243.301 436.249 241.165C438.696 234.051 441.313 226.996 444.099 220" stroke="#3F3D56"/>
<path fill-rule="evenodd" clip-rule="evenodd" d="M426.598 240.488C429.99 241.721 433.791 240.677 436.077 237.884C438.364 235.091 438.637 231.159 436.758 228.076C434.88 224.994 431.26 223.435 427.73 224.187L427.942 228.562L425.873 224.813C423.842 225.767 422.273 227.489 421.51 229.6C421.24 230.34 421.075 231.114 421.021 231.899C420.753 235.687 423.029 239.193 426.598 240.488V240.488Z" stroke="#3F3D56"/>
<path fill-rule="evenodd" clip-rule="evenodd" d="M435.51 217.6C436.497 214.877 438.803 212.845 441.629 212.209L442.328 216.369L443.626 212C447.323 212.055 450.56 214.493 451.633 218.032C452.707 221.57 451.37 225.396 448.327 227.496C445.284 229.596 441.232 229.488 438.306 227.228C435.379 224.968 434.249 221.076 435.51 217.6H435.51Z" fill="#57B894"/>
<path fill-rule="evenodd" clip-rule="evenodd" d="M436.51 216.6C437.497 213.877 439.803 211.845 442.629 211.209L443.328 215.369L444.626 211C448.323 211.055 451.56 213.493 452.633 217.032C453.707 220.57 452.37 224.396 449.327 226.496C446.284 228.596 442.232 228.488 439.306 226.228C436.379 223.968 435.249 220.076 436.51 216.6H436.51Z" stroke="#3F3D56"/>
<path fill-rule="evenodd" clip-rule="evenodd" d="M441.601 261.489C445.663 262.963 450.185 261.154 452.109 257.285C454.034 253.417 452.75 248.72 449.124 246.369L448.127 249.726L447.42 245.518C447.413 245.514 447.406 245.512 447.398 245.51C444.544 244.474 441.354 245.04 439.029 246.994C436.705 248.949 435.6 251.994 436.131 254.984C436.661 257.974 438.747 260.454 441.601 261.489H441.601Z" fill="#57B894"/>
<path fill-rule="evenodd" clip-rule="evenodd" d="M441.601 260.489C445.663 261.963 450.185 260.154 452.109 256.285C454.034 252.417 452.75 247.72 449.124 245.369L448.127 248.726L447.42 244.518C447.413 244.514 447.406 244.512 447.398 244.51C444.544 243.474 441.354 244.04 439.029 245.994C436.705 247.949 435.6 250.994 436.131 253.984C436.661 256.974 438.747 259.454 441.601 260.489L441.601 260.489Z" stroke="#3F3D56"/>
<path fill-rule="evenodd" clip-rule="evenodd" d="M433.131 274.971C433.826 278.93 437.199 281.86 441.215 281.995C445.231 282.13 448.793 279.434 449.753 275.531C450.713 271.629 448.809 267.587 445.189 265.843C441.569 264.099 437.222 265.129 434.769 268.312L438.557 274.015L433.381 270.988C432.98 272.277 432.894 273.643 433.131 274.971Z" fill="#57B894"/>
<path fill-rule="evenodd" clip-rule="evenodd" d="M433.131 273.971C433.826 277.93 437.199 280.86 441.215 280.995C445.231 281.13 448.793 278.434 449.753 274.531C450.713 270.629 448.809 266.587 445.189 264.843C441.569 263.099 437.222 264.129 434.769 267.312L438.557 273.015L433.381 269.988C432.98 271.277 432.894 272.643 433.131 273.971V273.971Z" stroke="#3F3D56"/>
<path fill-rule="evenodd" clip-rule="evenodd" d="M424 296.849C424 296.849 431.256 293.872 433.443 292.241C435.63 290.61 444.605 288.663 445.147 291.279C445.69 293.894 456.052 304.285 447.86 304.354C439.668 304.424 428.825 305.762 426.642 304.37C424.46 302.977 424 296.849 424 296.849Z" fill="#656380"/>
<path opacity="0.2" fill-rule="evenodd" clip-rule="evenodd" d="M448.008 303.475C439.815 303.543 428.971 304.854 426.789 303.49C425.126 302.45 424.464 298.721 424.242 297C424.089 297.007 424 297.01 424 297.01C424 297.01 424.46 303.017 426.642 304.382C428.825 305.747 439.669 304.435 447.861 304.367C450.226 304.348 451.043 303.484 450.998 302.205C450.67 302.977 449.768 303.46 448.008 303.475Z" fill="black"/>
<rect x="84" y="220" width="32" height="84" rx="11.8505" fill="#4285F4"/>
<rect x="145" y="169" width="32" height="134" rx="11.8505" fill="#4285F4"/>
<rect x="205" y="135" width="32" height="169" rx="11.8505" fill="#4285F4"/>
<rect x="265" y="101" width="32" height="202" rx="11.8505" fill="#4285F4"/>
<rect x="326" y="43" width="32" height="261" rx="11.8505" fill="#4285F4"/>
<rect x="89" y="216" width="32" height="84" rx="11.8505" stroke="#3F3D56"/>
<rect x="149" y="165" width="32" height="134" rx="11.8505" stroke="#3F3D56"/>
<rect x="209" y="130" width="32" height="169" rx="11.8505" stroke="#3F3D56"/>
<rect x="270" y="97" width="32" height="202" rx="11.8505" stroke="#3F3D56"/>
<rect x="330" y="39" width="32" height="261" rx="11.8505" stroke="#3F3D56"/>
<path d="M456 303.5H0" stroke="#3F3D56"/>
<path fill-rule="evenodd" clip-rule="evenodd" d="M427.088 253C427.088 253 432.189 271.099 425.727 273.781C419.265 276.462 421.306 253.67 421.306 253.67L427.088 253Z" fill="#A0616A"/>
<path fill-rule="evenodd" clip-rule="evenodd" d="M382.226 368.147C382.226 368.147 377.462 367.816 375.761 368.81C374.731 369.398 373.489 369.519 372.359 369.142C372.359 369.142 364.874 368.479 367.596 372.126C370.318 375.773 373.039 377.099 373.039 378.757C373.039 380.414 384.267 380.414 384.607 378.757C384.947 377.099 385.288 368.479 384.607 368.147C383.927 367.816 382.226 368.147 382.226 368.147Z" fill="#575A89"/>
<path fill-rule="evenodd" clip-rule="evenodd" d="M394.774 368.147C394.774 368.147 399.538 367.816 401.239 368.81C402.269 369.398 403.511 369.519 404.641 369.142C404.641 369.142 412.126 368.479 409.404 372.126C406.682 375.773 403.961 377.099 403.961 378.757C403.961 380.414 392.733 380.414 392.393 378.757C392.053 377.099 391.712 368.479 392.393 368.147C393.073 367.816 394.774 368.147 394.774 368.147Z" fill="#575A89"/>
<path fill-rule="evenodd" clip-rule="evenodd" d="M369.4 249.825C369.4 249.825 367.086 302.119 368.408 304.767C369.73 307.415 374.359 352.097 373.697 354.745C373.036 357.393 369.73 368.315 373.697 369.97C377.664 371.625 386.259 369.97 386.259 369.97C386.259 369.97 388.573 356.731 387.582 349.781C386.59 342.83 386.259 313.704 386.259 313.704L392.871 283.254L395.185 312.049C395.185 312.049 395.846 351.435 391.218 359.379C386.59 367.323 392.871 370.632 392.871 370.632C392.871 370.632 405.433 372.287 406.755 371.956C408.078 371.625 405.764 358.717 406.755 353.09C407.747 347.464 410.061 316.021 412.045 308.408C414.028 300.796 425.268 258.43 417.003 249.825C408.739 241.219 369.4 249.825 369.4 249.825Z" fill="#3F3D56"/>
<path fill-rule="evenodd" clip-rule="evenodd" d="M393.5 144C399.851 144 405 138.851 405 132.5C405 126.149 399.851 121 393.5 121C387.149 121 382 126.149 382 132.5C382 138.851 387.149 144 393.5 144Z" fill="#A0616A"/>
<path fill-rule="evenodd" clip-rule="evenodd" d="M385 137.03C385 137.03 386.929 153.504 385.964 153.847C385 154.191 403 153.847 403 153.847C403 153.847 399.464 143.894 403 136L385 137.03Z" fill="#A0616A"/>
<path fill-rule="evenodd" clip-rule="evenodd" d="M385 150.19C385 150.19 392.969 140.763 402.39 150.19L403 153L398.079 152.94H385V150.19Z" fill="#F2F2F2"/>
<path fill-rule="evenodd" clip-rule="evenodd" d="M423.21 252.89C422.45 253.044 420.587 253.359 418.157 253.734C410.068 254.975 395.734 256.856 395.227 255.567C394.568 253.894 392.264 247.871 390.618 250.548C388.971 253.225 389.959 255.567 383.045 255.902C378.341 256.129 371.503 255.427 367.717 254.322C365.939 253.804 364.833 253.198 364.938 252.556C365.268 250.548 368.889 212.4 368.889 208.719C368.889 205.038 370.206 187.303 370.206 187.303L360.744 168.38L360 166.891C360 166.891 360.988 163.21 363.951 162.54C366.914 161.871 381.07 153.506 381.07 153.506C381.07 153.506 384.033 148.821 389.63 149.155C395.227 149.49 396.544 147.148 404.116 153.506C404.116 153.506 413.334 157.521 416.626 159.529C419.918 161.537 423.54 161.537 423.869 164.883C423.935 165.555 423.576 166.851 422.96 168.487C420.705 174.483 415.006 185.094 414.114 186.748C414.035 186.891 413.992 186.968 413.992 186.968C413.992 186.968 413.821 192.985 414.002 200.029V200.046C414.18 206.802 414.68 214.502 415.968 218.758C418.601 227.458 426.503 252.221 423.21 252.89Z" fill="#575A89"/>
<path fill-rule="evenodd" clip-rule="evenodd" d="M408.936 127.091C408.7 126.021 408.246 125.01 407.602 124.121C407.346 121.664 406.523 119.299 405.199 117.21C404.681 116.232 403.944 115.384 403.047 114.733C402.018 114.143 400.845 113.851 399.659 113.891C399.444 113.888 399.058 113.953 398.709 113.969C398.487 113.9 398.262 113.838 398.036 113.781C397.905 113.489 397.644 112.639 397.571 112.696L396.588 113.475C396.173 113.403 395.755 113.347 395.336 113.302C395.183 112.868 395.031 112.434 394.878 112C394.63 112.388 394.413 112.795 394.229 113.217C393.811 113.196 393.394 113.189 392.976 113.195L392.14 112.395C392.04 112.851 391.678 113.204 391.219 113.295C390.834 113.334 390.452 113.386 390.07 113.447C390.039 113.447 390.007 113.447 389.977 113.446C387.92 113.395 385.706 113.303 383.986 114.429C383.181 114.98 382.526 115.721 382.079 116.587C381.868 116.73 381.657 116.871 381.452 117.023C380.762 117.492 380.164 118.083 379.688 118.766C379.341 119.356 379.078 119.991 378.907 120.653C378.25 122.644 377.946 124.734 378.008 126.829C378.078 128.939 378.877 130.96 380.268 132.55C381.151 133.495 382.272 134.193 383.156 135.137C384.975 137.081 385.316 139.791 386.872 141.848C388.518 144.023 391.522 145.454 394.16 145.864C397.363 146.346 400.627 145.534 403.228 143.61C403.846 143.181 404.371 142.632 404.772 141.996C405.688 140.417 405.3 138.433 405.639 136.641C406.277 133.282 409.492 130.464 408.936 127.091Z" fill="#3F3D56"/>
<path fill-rule="evenodd" clip-rule="evenodd" d="M363.088 254C363.088 254 368.189 272.099 361.727 274.781C355.265 277.462 357.306 254.67 357.306 254.67L363.088 254Z" fill="#A0616A"/>
<path opacity="0.1" fill-rule="evenodd" clip-rule="evenodd" d="M369.975 213.77C369.975 213.77 367.772 246.188 368.111 254C366.298 253.484 365.17 252.881 365.278 252.242C365.613 250.244 369.307 212.285 369.307 208.622C369.307 204.959 370.65 187.312 370.65 187.312L361 168.482C361.154 167.549 361.248 167 361.248 167L366.117 177.156L373 178.987L369.975 213.77Z" fill="black"/>
<path fill-rule="evenodd" clip-rule="evenodd" d="M362.574 165L360.217 167C360.217 167 357.187 184.667 357.524 189C357.861 193.333 350.454 259 356.178 259C361.901 259 368.297 258 367.287 255.667C366.277 253.333 368.968 213.82 368.968 213.82L372 179L362.574 165Z" fill="#575A89"/>
<path opacity="0.1" fill-rule="evenodd" clip-rule="evenodd" d="M423 169.433C420.706 175.202 414.908 185.41 414 187C414.027 182.883 414.044 179.969 414.044 179.969L421.077 166.127L422.585 165C422.585 165 422.745 166.703 423 169.433Z" fill="black"/>
<path opacity="0.1" fill-rule="evenodd" clip-rule="evenodd" d="M423.231 252.168C422.491 252.319 420.677 252.63 418.311 253C417.083 243.645 413.801 216.742 414.009 214.208C414.112 212.959 414.199 206.789 414.266 200C414.439 206.67 414.926 214.271 416.18 218.473C418.744 227.062 426.437 251.507 423.231 252.168Z" fill="black"/>
<path fill-rule="evenodd" clip-rule="evenodd" d="M419.411 163L424.484 164.325C424.484 164.325 427.866 201.101 428.204 207.396C428.542 213.691 432.6 252.454 431.924 254.111C431.248 255.767 420.764 258.087 420.426 256.43C420.087 254.774 415.171 217.394 415.431 214.383C415.691 211.372 414 180.228 414 180.228L419.411 163Z" fill="#575A89"/>
<path d="M104 184L164.368 133.505L225.265 98.955L285.632 65.4685L346 7" stroke="#3F3D56"/>
<path fill-rule="evenodd" clip-rule="evenodd" d="M102 193C105.314 193 108 190.314 108 187C108 183.686 105.314 181 102 181C98.6863 181 96 183.686 96 187C96 190.314 98.6863 193 102 193Z" fill="#F2F2F2"/>
<path fill-rule="evenodd" clip-rule="evenodd" d="M163 142C166.314 142 169 139.314 169 136C169 132.686 166.314 130 163 130C159.686 130 157 132.686 157 136C157 139.314 159.686 142 163 142Z" fill="#F2F2F2"/>
<path fill-rule="evenodd" clip-rule="evenodd" d="M224 108C227.314 108 230 105.314 230 102C230 98.6863 227.314 96 224 96C220.686 96 218 98.6863 218 102C218 105.314 220.686 108 224 108Z" fill="#F2F2F2"/>
<path fill-rule="evenodd" clip-rule="evenodd" d="M285 74C288.314 74 291 71.3137 291 68C291 64.6863 288.314 62 285 62C281.686 62 279 64.6863 279 68C279 71.3137 281.686 74 285 74Z" fill="#F2F2F2"/>
<path fill-rule="evenodd" clip-rule="evenodd" d="M345 16C348.314 16 351 13.3137 351 10C351 6.68629 348.314 4 345 4C341.686 4 339 6.68629 339 10C339 13.3137 341.686 16 345 16Z" fill="#F2F2F2"/>
<path fill-rule="evenodd" clip-rule="evenodd" d="M104 190C107.314 190 110 187.314 110 184C110 180.686 107.314 178 104 178C100.686 178 98 180.686 98 184C98 187.314 100.686 190 104 190Z" stroke="#3F3D56"/>
<path fill-rule="evenodd" clip-rule="evenodd" d="M164 139C167.314 139 170 136.314 170 133C170 129.686 167.314 127 164 127C160.686 127 158 129.686 158 133C158 136.314 160.686 139 164 139Z" stroke="#3F3D56"/>
<path fill-rule="evenodd" clip-rule="evenodd" d="M226 105C229.314 105 232 102.314 232 99C232 95.6863 229.314 93 226 93C222.686 93 220 95.6863 220 99C220 102.314 222.686 105 226 105Z" stroke="#3F3D56"/>
<path fill-rule="evenodd" clip-rule="evenodd" d="M286 71C289.314 71 292 68.3137 292 65C292 61.6863 289.314 59 286 59C282.686 59 280 61.6863 280 65C280 68.3137 282.686 71 286 71Z" stroke="#3F3D56"/>
<path fill-rule="evenodd" clip-rule="evenodd" d="M346 13C349.314 13 352 10.3137 352 7C352 3.68629 349.314 1 346 1C342.686 1 340 3.68629 340 7C340 10.3137 342.686 13 346 13Z" stroke="#3F3D56"/>
</svg>
